{
.formatVersion = 3;
axes = (
{
name = Weight;
tag = wght;
}
);
classes = (
{
code = "gravecomb acutecomb circumflexcomb dotaccentcomb hookabovecomb ringcomb caroncomb commaturnedabovecomb";
name = ccmp1;
},
{
code = "i j iogonek iukrcyr jecyr itildebelow idotbelow i.superior i.locl i.superior.locl";
name = ccmp2;
},
{
code = "Alpha Epsilon Eta Iota Omicron Rho Upsilon uni03A9 Iotadieresis Upsilondieresis Alphabreve Alphawithmacron Alphaiotasub Etaiotasub Iotabreve Iotawithmacron Upsilonbreve Upsilonwithmacron Omegaiotasub Omega";
name = ccmp3;
},
{
code = "gravecomb acutecomb circumflexcomb tildecomb macroncomb brevecomb dotaccentcomb dieresiscomb hookabovecomb ringcomb hungarumlautcomb caroncomb dblgravecomb breveinvertedcomb commaturnedabovecomb titlocombcyr palatcombcyr dasiacombcyr psilicombcyr pokrytiecombcyr acutecomb.locl gravecomb.locl hookabovecomb.locl _1513 _1514 _1515 psilicombcyr_pokrytiecombcyr _1527 _1529 _1531 _1533 _1535 _1537 _1539 _1541";
name = ccmp4;
},
{

glyphs = (
{
glyphname = exclam;
layers = (
{
layerId = "AC532A80-AEF9-404E-A94E-472F4CBCE5BB";
shapes = (
{
closed = 1;
nodes = (
(127,280,l),
(127,700,l),
(273,700,l),
(273,280,l)
);
},
{
closed = 1;
nodes = (
(200,-8,l),
(145,-12,o),
(102,31,o),
(102,90,c),
(95,150,o),
(151,191,o),
(200,188,c),
(255,191,o),
(298,148,o),
(298,90,c),
(302,37,o),
(261,-4,o),
(210,-8,c)
);
}
);
width = 400;
},
{
layerId = "3EF66B8B-A4EF-422E-A8E2-9DC69E93467B";
shapes = (
{
closed = 1;
nodes = (
(155,266,l),
(155,700,l),
(245,700,l),
(245,266,l)
);
},
{
closed = 1;
nodes = (
(200,-8,l),
(159,-10,o),
(130,19,o),
(130,62,c),
(126,100,o),
(159,133,o),
(200,132,c),
(237,133,o),
(270,105,o),
(270,62,c),
(272,22,o),
(243,-6,o),
(206,-8,c)
);
}
);
width = 400;
},
{
layerId = "0A6BB479-68DF-438A-AB6B-934827A2B9BB";
shapes = (
{
closed = 1;
nodes = (
(190,248,l),
(190,700,l),
(210,700,l),
(210,248,l)
);
},
{
closed = 1;
nodes = (
(177,-8,o),
(165,5,o),
(165,27,cs),
(165,38,o),
(170,61,o),
(200,61,cs),
(215,61,o),
(234,52,o),
(234,27,cs),
(234,4,o),
(220,-8,o),
(200,-8,c)
);
}
);
width = 400;
}
);
unicode = 33;
},
{
glyphname = quotedbl;
layers = (
{
layerId = "AC532A80-AEF9-404E-A94E-472F4CBCE5BB";
shapes = (
{
alignment = -1;
pos = (220,0);
ref = quotesingle;
},
{
alignment = -1;
pos = (-20,0);
ref = quotesingle;
}
);
width = 600;
},
{
layerId = "3EF66B8B-A4EF-422E-A8E2-9DC69E93467B";
shapes = (
{
closed = 1;
nodes = (
(377,451,l),
(372,543,o),
(371,639,o),
(371,735,c),
(469,735,l),
(469,639,o),
(467,543,o),
(463,451,c)
);
},
{
closed = 1;
nodes = (
(137,451,l),
(132,543,o),
(131,639,o),
(131,735,c),
(229,735,l),
(229,639,o),
(227,543,o),
(223,451,c)
);
}
);
width = 600;
},
{
layerId = "0A6BB479-68DF-438A-AB6B-934827A2B9BB";
shapes = (
{
alignment = -1;
pos = (220,0);
ref = quotesingle;
},
{
alignment = -1;
pos = (-20,0);
ref = quotesingle;
}
);
width = 600;
}
);
unicode = 34;
},
{
glyphname = numbersign;
layers = (
{
layerId = "AC532A80-AEF9-404E-A94E-472F4CBCE5BB";
shapes = (
{
closed = 1;
nodes = (
(150,18,l),
(19,18,l),
(56,157,l),
(-18,157,l),
(-18,277,l),
(87,277,l),
(125,423,l),
(40,423,l),
(40,543,l),
(156,543,l),
(193,683,l),
(323,683,l),
(287,543,l),
(414,543,l),
(450,683,l),
(581,683,l),
(544,543,l),
(618,543,l),
(618,423,l),
(513,423,l),
(475,277,l),
(560,277,l),
(560,157,l),
(444,157,l),
(407,18,l),
(277,18,l),
(313,157,l),
(186,157,l)
);
},
{
closed = 1;
nodes = (
(344,277,l),
(383,423,l),
(256,423,l),
(217,277,l)
);
}
);
width = 600;
},
{
layerId = "3EF66B8B-A4EF-422E-A8E2-9DC69E93467B";
shapes = (
{
closed = 1;
nodes = (
(150,18,l),
(67,18,l),
(105,180,l),
(12,180,l),
(12,254,l),
(124,254,l),
(168,446,l),
(64,446,l),
(64,520,l),
(187,520,l),
(225,683,l),
(307,683,l),
(269,520,l),
(413,520,l),
(450,683,l),
(533,683,l),
(495,520,l),
(588,520,l),
(588,446,l),
(476,446,l),
(432,254,l),
(536,254,l),
(536,180,l),
(413,180,l),
(375,18,l),
(293,18,l),
(331,180,l),
(187,180,l)
);
},
{
closed = 1;
nodes = (
(350,254,l),
(394,446,l),
(250,446,l),
(206,254,l)
);
}
);
width = 600;
},
{
layerId = "0A6BB479-68DF-438A-AB6B-934827A2B9BB";
shapes = (
{
closed = 1;
nodes = (
(149,18,l),
(128,18,l),
(167,208,l),
(50,208,l),
(50,226,l),
(171,226,l),
(222,474,l),
(95,474,l),
(95,492,l),
(226,492,l),
(265,683,l),
(286,683,l),
(247,492,l),
(412,492,l),
(451,683,l),
(472,683,l),
(433,492,l),
(550,492,l),
(550,474,l),
(429,474,l),
(378,226,l),
(505,226,l),
(505,208,l),
(374,208,l),
(335,18,l),
(314,18,l),
(353,208,l),
(188,208,l)
);
},
{
closed = 1;
nodes = (
(357,226,l),
(408,474,l),
(243,474,l),
(192,226,l)
);
}
);
width = 600;
}
);
unicode = 35;
},
{
glyphname = dollar;
layers = (
{
layerId = "AC532A80-AEF9-404E-A94E-472F4CBCE5BB";
shapes = (
{
closed = 1;
nodes = (
(238,-102,l),
(238,31,l),
(123,31,o),
(66,146,o),
(57,182,cs),
(54,194,o),
(54,207,o),
(54,220,c),
(54,230,l),
(200,230,l),
(200,226,ls),
(200,198,o),
(222,137,o),
(299,147,c),
(340,147,o),
(394,155,o),
(399,204,c),
(399,230,o),
(378,252,o),
(355,263,c),
(332,274,l),
(247,306,o),
(64,333,o),
(64,498,cs),
(64,580,o),
(141,669,o),
(238,669,c),
(238,803,l),
(362,803,l),
(362,669,l),
(470,669,o),
(527,555,o),
(535,519,cs),
(538,506,o),
(538,493,o),
(538,480,c),
(538,470,l),
(392,470,l),
(392,474,ls),
(392,522,o),
(355,553,o),
(301,553,cs),
(267,553,o),
(209,545,o),
(209,497,cs),
(209,440,o),
(288,421,o),
(322,410,c),
(407,382,o),
(544,337,o),
(544,203,c),
(549,108,o),
(447,31,o),
(362,31,c),
(362,-102,l)
);
}
);
width = 600;
},
{
layerId = "3EF66B8B-A4EF-422E-A8E2-9DC69E93467B";
shapes = (
{
closed = 1;
nodes = (
(261,-102,l),
(261,29,l),
(157,29,o),
(69,108,o),
(64,186,c),
(62,194,o),
(62,202,o),
(62,209,cs),
(62,217,l),
(152,217,l),
(152,211,ls),
(152,155,o),
(201,97,o),
(299,102,c),
(357,102,o),
(444,118,o),
(447,196,c),
(447,242,o),
(407,268,o),
(366,286,c),
(333,299,l),
(233,330,o),
(72,363,o),
(72,505,cs),
(72,592,o),
(150,667,o),
(261,671,c),
(261,803,l),
(339,803,l),
(339,671,l),
(435,671,o),
(524,591,o),
(528,514,c),
(530,506,o),
(530,498,o),
(530,491,cs),
(530,483,l),
(440,483,l),
(440,489,ls),
(440,558,o),
(379,598,o),
(301,598,cs),
(246,598,o),
(161,580,o),
(161,504,cs),
(161,423,o),
(280,398,o),
(321,386,c),
(402,359,o),
(536,320,o),
(536,196,c),
(539,91,o),
(427,29,o),
(339,29,c),
(339,-102,l)
);
}
);
width = 600;
},
{
layerId = "0A6BB479-68DF-438A-AB6B-934827A2B9BB";
shapes = (
{
closed = 1;
nodes = (
(290,-103,l),
(290,27,l),
(199,27,o),
(72,61,o),
(72,192,cs),
(72,193,o),
(72,195,o),
(72,196,c),
(72,200,l),
(93,200,l),
(93,193,ls),
(93,101,o),
(174,46,o),
(299,46,cs),
(379,46,o),
(506,71,o),
(506,187,cs),
(506,256,o),
(444,289,o),
(380,315,c),
(335,330,l),
(215,359,o),
(82,400,o),
(82,513,cs),
(82,606,o),
(161,665,o),
(290,673,c),
(290,803,l),
(310,803,l),
(310,673,l),
(392,673,o),
(520,637,o),
(520,508,cs),
(520,506,o),
(520,505,o),
(520,504,c),
(520,500,l),
(499,500,l),
(499,507,ls),
(499,603,o),
(409,654,o),
(301,654,cs),
(220,654,o),
(102,624,o),
(102,513,cs),
(102,401,o),
(270,369,o),
(319,357,c),
(396,331,o),
(526,299,o),
(526,187,cs),
(526,70,o),
(402,27,o),
(310,27,c),
(310,-103,l)
);
}
);
width = 600;
}
);
unicode = 36;
},
{
glyphname = percent;
layers = (
{
layerId = "AC532A80-AEF9-404E-A94E-472F4CBCE5BB";
shapes = (
{
closed = 1;
nodes = (
(150,373,ls),
(96,373,o),
(24,399,o),
(24,494,cs),
(24,587,l),
(17,656,o),
(82,715,o),
(150,708,c),
(213,713,o),
(277,671,o),
(277,587,cs),
(277,494,l),
(282,430,o),
(231,377,o),
(165,373,c)
);
},
{
closed = 1;
nodes = (
(161,0,l),
(32,0,l),
(243,350,l),
(439,700,l),
(568,700,l),
(357,350,l)
);
},
{
closed = 1;
nodes = (
(171,464,o),
(166,509,o),
(166,509,c),
(166,567,ls),
(166,581,o),
(171,618,o),
(150,618,cs),
(133,618,o),
(134,586,o),
(134,577,cs),
(134,514,ls),
(134,501,o),
(129,464,o),
(150,464,cs)
);
},
{
closed = 1;
nodes = (
(376,-18,o),
(323,46,o),
(323,113,cs),
(323,206,l),
(318,273,o),
(379,334,o),
(450,327,c),
(518,327,o),
(576,288,o),
(576,206,cs),
(576,113,l),
(583,50,o),
(527,-9,o),
(464,-9,cs),
(459,-9,o),
(455,-9,o),
(450,-8,c)
);
},
{
closed = 1;
nodes = (
(470,82,o),
(466,128,o),
(466,123,c),
(466,186,ls),
(466,199,o),
(471,236,o),
(450,236,cs),
(429,236,o),
(434,191,o),
(434,191,c),
(434,133,ls),
(434,119,o),
(429,82,o),
(450,82,cs)
);
}
);
width = 600;
},
{
layerId = "3EF66B8B-A4EF-422E-A8E2-9DC69E93467B";
shapes = (
{
closed = 1;
nodes = (
(157,363,ls),
(99,363,o),
(28,388,o),
(28,480,cs),
(28,592,l),
(24,655,o),
(78,712,o),
(157,708,c),
(218,711,o),
(287,676,o),
(287,592,cs),
(287,480,l),
(290,412,o),
(236,365,o),
(165,363,c)
);
},
{
closed = 1;
nodes = (
(119,0,l),
(36,0,l),
(263,350,l),
(481,700,l),
(564,700,l),
(337,350,l)
);
},
{
closed = 1;
nodes = (
(189,422,o),
(216,454,o),
(216,488,cs),
(216,581,ls),
(216,614,o),
(198,650,o),
(157,650,cs),
(126,650,o),
(98,625,o),
(98,586,cs),
(98,491,ls),
(98,459,o),
(112,422,o),
(157,422,cs)
);
},
{
closed = 1;
nodes = (
(373,-14,o),
(313,34,o),
(313,108,cs),
(313,220,l),
(310,282,o),
(361,341,o),
(443,337,c),
(507,337,o),
(572,304,o),
(572,220,cs),
(572,108,l),
(576,41,o),
(519,-9,o),
(451,-9,c),
(455,-9,o),
(449,-9,o),
(443,-8,c)
);
},
{
closed = 1;
nodes = (
(475,50,o),
(502,83,o),
(502,114,cs),
(502,209,ls),
(502,241,o),
(485,278,o),
(443,278,cs),
(408,278,o),
(384,243,o),
(384,212,cs),
(384,119,ls),
(384,86,o),
(400,50,o),
(443,50,cs)
);
}
);
width = 600;
},
{
layerId = "0A6BB479-68DF-438A-AB6B-934827A2B9BB";
shapes = (
{
closed = 1;
nodes = (
(103,351,o),
(33,375,o),
(33,462,cs),
(33,598,ls),
(33,654,o),
(72,708,o),
(166,708,cs),
(224,708,o),
(299,682,o),
(299,598,cs),
(299,462,ls),
(299,389,o),
(242,351,o),
(166,351,c)
);
},
{
closed = 1;
nodes = (
(66,0,l),
(41,0,l),
(287,350,l),
(534,700,l),
(559,700,l),
(313,350,l)
);
},
{
closed = 1;
nodes = (
(212,370,o),
(278,386,o),
(278,462,cs),
(278,598,ls),
(278,656,o),
(231,689,o),
(166,689,cs),
(117,689,o),
(54,673,o),
(54,598,cs),
(54,462,ls),
(54,406,o),
(91,370,o),
(166,370,cs)
);
},
{
closed = 1;
nodes = (
(370,-8,o),
(301,18,o),
(301,102,cs),
(301,238,ls),
(301,294,o),
(338,349,o),
(434,349,cs),
(493,349,o),
(567,323,o),
(567,238,cs),
(567,102,ls),
(567,29,o),
(508,-8,o),
(434,-8,c),
(451,-8,o),
(442,-8,o),
(434,-8,cs)
);
},
{
closed = 1;
nodes = (
(481,11,o),
(546,27,o),
(546,102,cs),
(546,238,ls),
(546,294,o),
(502,330,o),
(434,330,cs),
(381,330,o),
(322,307,o),
(322,238,cs),
(322,102,ls),
(322,44,o),
(363,11,o),
(434,11,cs)
);
}
);
width = 600;
}
);
unicode = 37;
},
{
glyphname = ampersand;
layers = (
{
layerId = "AC532A80-AEF9-404E-A94E-472F4CBCE5BB";
shapes = (
{
closed = 1;
nodes = (
(267,-8,ls),
(176,-8,o),
(56,31,o),
(56,184,cs),
(56,253,o),
(92,324,o),
(159,364,c),
(123,411,o),
(87,463,o),
(87,526,cs),
(87,538,o),
(88,549,o),
(90,560,cs),
(106,651,o),
(178,708,o),
(283,708,cs),
(379,708,o),
(478,653,o),
(478,524,cs),
(478,439,o),
(423,368,o),
(348,330,c),
(351,326,o),
(354,322,o),
(357,318,cs),
(423,236,l),
(430,250,ls),
(432,255,o),
(434,258,o),
(436,263,c),
(463,318,l),
(597,318,l),
(512,145,l),
(505,131,l),
(608,0,l),
(448,0,l),
(407,51,l),
(381,16,o),
(320,-8,o),
(280,-8,cs)
);
},
{
closed = 1;
nodes = (
(271,421,l),
(305,444,o),
(343,472,o),
(343,525,cs),
(343,559,o),
(323,597,o),
(283,597,cs),
(244,597,o),
(223,563,o),
(223,524,c),
(223,494,o),
(236,470,o),
(252,446,c),
(266,427,l)
);
},
{
closed = 1;
nodes = (
(309,103,o),
(332,111,o),
(350,125,c),
(266,231,l),
(263,235,o),
(259,240,o),
(256,244,cs),
(236,269,l),
(209,248,o),
(191,218,o),
(191,184,cs),
(191,143,o),
(221,103,o),
(286,103,cs)
);
}
);
width = 600;
},
{
layerId = "3EF66B8B-A4EF-422E-A8E2-9DC69E93467B";
shapes = (
{
closed = 1;
nodes = (
(271,-8,ls),
(180,-8,o),
(64,31,o),
(64,178,cs),
(64,257,o),
(115,325,o),
(187,365,c),
(146,412,o),
(102,463,o),
(95,529,c),
(95,540,o),
(95,550,o),
(96,561,cs),
(105,644,o),
(166,708,o),
(273,708,cs),
(359,708,o),
(452,659,o),
(452,540,cs),
(452,446,o),
(377,379,o),
(307,344,c),
(313,334,o),
(322,326,o),
(329,318,cs),
(442,184,l),
(449,197,l),
(451,202,o),
(453,206,o),
(455,210,cs),
(498,298,l),
(582,298,l),
(501,133,l),
(494,118,l),
(590,0,l),
(489,0,l),
(435,66,l),
(401,18,o),
(335,-8,o),
(278,-8,cs)
);
},
{
closed = 1;
nodes = (
(258,401,l),
(305,429,o),
(367,466,o),
(367,541,cs),
(367,591,o),
(334,638,o),
(273,638,cs),
(220,638,o),
(179,600,o),
(179,540,c),
(179,498,o),
(203,463,o),
(229,432,c),
(255,404,l)
);
},
{
closed = 1;
nodes = (
(323,62,o),
(366,75,o),
(397,114,c),
(272,264,ls),
(267,270,o),
(261,276,o),
(257,281,cs),
(236,306,l),
(193,278,o),
(148,240,o),
(148,178,cs),
(148,111,o),
(199,62,o),
(282,62,cs)
);
}
);
width = 600;
},
{
layerId = "0A6BB479-68DF-438A-AB6B-934827A2B9BB";
shapes = (
{
closed = 1;
nodes = (
(186,-8,o),
(74,32,o),
(74,171,cs),
(74,263,o),
(144,326,o),
(223,366,c),
(175,413,o),
(120,462,o),
(106,532,cs),
(104,542,o),
(104,552,o),
(104,562,cs),
(104,635,o),
(151,708,o),
(261,708,cs),
(334,708,o),
(419,666,o),
(419,561,cs),
(419,455,o),
(319,393,o),
(255,361,c),
(266,345,o),
(282,331,o),
(294,317,cs),
(465,118,l),
(472,131,ls),
(474,135,o),
(476,140,o),
(479,144,c),
(541,272,l),
(564,272,l),
(488,118,l),
(480,102,l),
(567,0,l),
(541,0,l),
(469,84,l),
(426,21,o),
(354,-8,o),
(276,-8,c)
);
},
{
closed = 1;
nodes = (
(241,376,l),
(305,410,o),
(398,458,o),
(398,561,cs),
(398,631,o),
(348,689,o),
(261,689,cs),
(189,689,o),
(124,647,o),
(124,561,c),
(123,502,o),
(161,454,o),
(201,415,cs)
);
},
{
closed = 1;
nodes = (
(340,11,o),
(409,31,o),
(455,100,c),
(279,305,l),
(271,313,o),
(264,320,o),
(258,328,c),
(237,352,l),
(172,316,o),
(94,267,o),
(94,171,cs),
(94,70,o),
(171,11,o),
(276,11,cs)
);
}
);
width = 600;
}
);
unicode = 38;
},
{
glyphname = quotesingle;
layers = (
{
layerId = "AC532A80-AEF9-404E-A94E-472F4CBCE5BB";
shapes = (
{
closed = 1;
nodes = (
(131,451,l),
(123,543,o),
(120,639,o),
(120,735,c),
(280,735,l),
(280,639,o),
(277,543,o),
(269,451,c)
);
}
);
width = 400;
},
{
layerId = "3EF66B8B-A4EF-422E-A8E2-9DC69E93467B";
shapes = (
{
closed = 1;
nodes = (
(157,451,l),
(152,543,o),
(151,639,o),
(151,735,c),
(249,735,l),
(249,639,o),
(247,543,o),
(243,451,c)
);
}
);
width = 400;
},
{
layerId = "0A6BB479-68DF-438A-AB6B-934827A2B9BB";
shapes = (
{
closed = 1;
nodes = (
(190,451,l),
(188,544,o),
(189,639,o),
(189,735,c),
(211,735,l),
(211,639,o),
(210,544,o),
(210,451,c)
);
}
);
width = 400;
}
);
unicode = 39;
},
{
glyphname = parenleft;
layers = (
{
layerId = "AC532A80-AEF9-404E-A94E-472F4CBCE5BB";
shapes = (
{
closed = 1;
nodes = (
(438,-194,l),
(246,-110,o),
(121,68,o),
(121,307,cs),
(121,511,o),
(209,703,o),
(438,808,c),
(497,699,l),
(352,632,o),
(258,468,o),
(267,307,c),
(259,147,o),
(350,-17,o),
(497,-85,c)
);
}
);
width = 600;
},
{
layerId = "3EF66B8B-A4EF-422E-A8E2-9DC69E93467B";
shapes = (
{
closed = 1;
nodes = (
(451,-194,l),
(256,-109,o),
(137,74,o),
(137,307,cs),
(137,495,o),
(212,701,o),
(451,808,c),
(488,740,l),
(323,665,o),
(222,496,o),
(227,307,c),
(223,135,o),
(305,-42,o),
(488,-126,c)
);
}
);
width = 600;
},
{
layerId = "0A6BB479-68DF-438A-AB6B-934827A2B9BB";
shapes = (
{
closed = 1;
nodes = (
(467,-194,l),
(269,-107,o),
(157,81,o),
(157,307,cs),
(157,475,o),
(215,698,o),
(467,808,c),
(476,791,l),
(286,706,o),
(178,531,o),
(178,307,cs),
(178,119,o),
(249,-74,o),
(476,-177,c)
);
}
);
width = 600;
}
);
unicode = 40;
},
{
glyphname = parenright;
layers = (
{
layerId = "AC532A80-AEF9-404E-A94E-472F4CBCE5BB";
shapes = (
{
closed = 1;
nodes = (
(162,-194,l),
(103,-85,l),
(249,-18,o),
(341,147,o),
(333,307,c),
(342,478,o),
(239,637,o),
(103,699,c),
(162,808,l),
(351,725,o),
(479,551,o),
(479,307,cs),
(479,116,o),
(405,-67,o),
(188,-182,c)
);
}
);
width = 600;
},
{
layerId = "3EF66B8B-A4EF-422E-A8E2-9DC69E93467B";
shapes = (
{
closed = 1;
nodes = (
(149,-194,l),
(112,-126,l),
(273,-51,o),
(377,113,o),
(373,307,c),
(378,485,o),
(286,660,o),
(112,740,c),
(149,808,l),
(339,725,o),
(463,544,o),
(463,307,cs),
(463,113,o),
(384,-80,o),
(164,-187,cs)
);
}
);
width = 600;
},
{
layerId = "0A6BB479-68DF-438A-AB6B-934827A2B9BB";
shapes = (
{
closed = 1;
nodes = (
(124,-177,l),
(303,-93,o),
(422,71,o),
(422,307,cs),
(422,494,o),
(345,688,o),
(124,791,c),
(133,808,l),
(325,724,o),
(443,536,o),
(443,307,cs),
(443,109,o),
(358,-96,o),
(133,-194,c)
);
}
);
width = 600;
}
);
unicode = 41;
},
{
glyphname = asterisk;
layers = (
{
layerId = "AC532A80-AEF9-404E-A94E-472F4CBCE5BB";
shapes = (
{
closed = 1;
nodes = (
(217,76,l),
(99,147,l),
(209,281,l),
(48,325,l),
(93,439,l),
(237,383,l),
(227,549,l),
(373,549,l),
(363,383,l),
(507,439,l),
(552,325,l),
(391,281,l),
(501,147,l),
(383,76,l),
(300,206,l)
);
}
);
width = 600;
},
{
layerId = "3EF66B8B-A4EF-422E-A8E2-9DC69E93467B";
shapes = (
{
closed = 1;
nodes = (
(194,89,l),
(122,134,l),
(244,291,l),
(56,346,l),
(85,418,l),
(261,354,l),
(255,549,l),
(345,549,l),
(339,354,l),
(515,418,l),
(544,346,l),
(356,291,l),
(478,134,l),
(406,89,l),
(300,245,l)
);
}
);
width = 600;
},
{
layerId = "0A6BB479-68DF-438A-AB6B-934827A2B9BB";
shapes = (
{
closed = 1;
nodes = (
(166,106,l),
(150,117,l),
(287,303,l),
(67,373,l),
(74,391,l),
(292,318,l),
(290,549,l),
(310,549,l),
(308,318,l),
(526,391,l),
(533,373,l),
(313,303,l),
(450,117,l),
(434,106,l),
(300,293,l)
);
}
);
width = 600;
}
);
unicode = 42;
},
{
glyphname = plus;
layers = (
{
layerId = "AC532A80-AEF9-404E-A94E-472F4CBCE5BB";
shapes = (
{
closed = 1;
nodes = (
(365,62,l),
(235,62,l),
(235,254,l),
(64,254,l),
(64,360,l),
(235,360,l),
(235,552,l),
(365,552,l),
(365,360,l),
(536,360,l),
(536,254,l),
(365,254,l)
);
}
);
width = 600;
},
{
layerId = "3EF66B8B-A4EF-422E-A8E2-9DC69E93467B";
shapes = (
{
closed = 1;
nodes = (
(341,70,l),
(259,70,l),
(259,274,l),
(72,274,l),
(72,340,l),
(259,340,l),
(259,544,l),
(341,544,l),
(341,340,l),
(528,340,l),
(528,274,l),
(341,274,l)
);
}
);
width = 600;
},
{
layerId = "0A6BB479-68DF-438A-AB6B-934827A2B9BB";
shapes = (
{
closed = 1;
nodes = (
(310,80,l),
(290,80,l),
(290,298,l),
(82,298,l),
(82,316,l),
(290,316,l),
(290,534,l),
(310,534,l),
(310,316,l),
(518,316,l),
(518,298,l),
(310,298,l)
);
}
);
width = 600;
}
);
unicode = 43;
},
{
glyphname = comma;
layers = (
{
layerId = "AC532A80-AEF9-404E-A94E-472F4CBCE5BB";
shapes = (
{
closed = 1;
nodes = (
(69,-130,l),
(112,-96,o),
(153,-54,o),
(180,-7,c),
(162,-4,o),
(147,0,o),
(132,11,cs),
(105,32,o),
(92,66,o),
(92,100,c),
(91,111,o),
(92,122,o),
(95,132,cs),
(108,177,o),
(142,208,o),
(200,208,c),
(247,213,o),
(296,179,o),
(306,131,cs),
(308,121,o),
(309,109,o),
(308,98,c),
(308,-17,o),
(233,-132,o),
(150,-205,c)
);
}
);
width = 400;
},
{
layerId = "3EF66B8B-A4EF-422E-A8E2-9DC69E93467B";
shapes = (
{
closed = 1;
nodes = (
(111,-160,l),
(147,-114,o),
(178,-61,o),
(195,-6,c),
(183,-5,o),
(172,-4,o),
(162,3,c),
(139,14,o),
(127,38,o),
(125,61,c),
(124,69,o),
(124,78,o),
(126,86,cs),
(133,115,o),
(153,144,o),
(200,144,c),
(235,146,o),
(269,122,o),
(275,83,cs),
(276,75,o),
(276,66,o),
(276,58,cs),
(274,-38,o),
(224,-135,o),
(164,-205,c)
);
}
);
width = 400;
},
{
layerId = "0A6BB479-68DF-438A-AB6B-934827A2B9BB";
shapes = (
{
closed = 1;
nodes = (
(163,-197,l),
(191,-137,o),
(210,-69,o),
(214,-4,c),
(209,-7,o),
(203,-8,o),
(199,-8,cs),
(181,-8,o),
(170,2,o),
(167,13,c),
(165,17,o),
(165,22,o),
(165,28,cs),
(165,37,o),
(166,63,o),
(200,63,cs),
(221,63,o),
(236,50,o),
(236,23,cs),
(236,17,o),
(235,13,o),
(235,8,c),
(231,-64,o),
(213,-139,o),
(182,-205,c)
);
}
);
width = 400;
}
);
unicode = 44;
},
{
glyphname = hyphen;
layers = (
{
layerId = "AC532A80-AEF9-404E-A94E-472F4CBCE5BB";
shapes = (
{
closed = 1;
nodes = (
(436,247,l),
(64,247,l),
(64,367,l),
(436,367,l)
);
}
);
width = 500;
},
{
layerId = "3EF66B8B-A4EF-422E-A8E2-9DC69E93467B";
shapes = (
{
closed = 1;
nodes = (
(428,270,l),
(72,270,l),
(72,344,l),
(428,344,l)
);
}
);
width = 500;
},
{
layerId = "0A6BB479-68DF-438A-AB6B-934827A2B9BB";
shapes = (
{
closed = 1;
nodes = (
(418,298,l),
(82,298,l),
(82,316,l),
(418,316,l)
);
}
);
width = 500;
}
);
unicode = 45;
},
{
glyphname = period;
layers = (
{
layerId = "AC532A80-AEF9-404E-A94E-472F4CBCE5BB";
shapes = (
{
closed = 1;
nodes = (
(200,-8,l),
(136,-13,o),
(92,36,o),
(92,100,c),
(88,160,o),
(135,212,o),
(200,208,c),
(260,212,o),
(312,165,o),
(308,100,c),
(312,45,o),
(270,-8,o),
(212,-8,cs)
);
}
);
width = 400;
},
{
layerId = "3EF66B8B-A4EF-422E-A8E2-9DC69E93467B";
shapes = (
{
closed = 1;
nodes = (
(200,-8,l),
(153,-11,o),
(124,24,o),
(124,68,c),
(122,105,o),
(149,146,o),
(200,144,c),
(239,146,o),
(278,117,o),
(276,68,c),
(278,26,o),
(247,-8,o),
(207,-8,cs)
);
}
);
width = 400;
},
{
layerId = "0A6BB479-68DF-438A-AB6B-934827A2B9BB";
shapes = (
{
closed = 1;
nodes = (
(174,-8,o),
(164,8,o),
(164,28,cs),
(164,37,o),
(167,63,o),
(200,63,cs),
(212,63,o),
(235,57,o),
(235,27,cs),
(235,3,o),
(219,-8,o),
(200,-8,c)
);
}
);
width = 400;
}
);
unicode = 46;
},
{
glyphname = slash;
layers = (
{
layerId = "AC532A80-AEF9-404E-A94E-472F4CBCE5BB";
shapes = (
{
closed = 1;
nodes = (
(49,-176,l),
(401,790,l),
(551,790,l),
(199,-176,l)
);
}
);
width = 600;
},
{
layerId = "3EF66B8B-A4EF-422E-A8E2-9DC69E93467B";
shapes = (
{
closed = 1;
nodes = (
(63,-176,l),
(444,790,l),
(537,790,l),
(156,-176,l)
);
}
);
width = 600;
},
{
layerId = "0A6BB479-68DF-438A-AB6B-934827A2B9BB";
shapes = (
{
closed = 1;
nodes = (
(80,-176,l),
(497,790,l),
(520,790,l),
(103,-176,l)
);
}
);
width = 600;
}
);
unicode = 47;
},
{
glyphname = zero;
layers = (
{
anchors = (
{
name = mark0;
position = "{300, 700}";
},
{
name = mark0.1;
position = "{536, 700}";
},
{
name = mark0.2;
position = "{300, 0}";
},
{
name = mark0.3;
position = "{300, 364}";
},
{
name = mark0.4;
position = "{300, 350}";
}
);
layerId = "AC532A80-AEF9-404E-A94E-472F4CBCE5BB";
shapes = (
{
closed = 1;
nodes = (
(147,-8,o),
(56,130,o),
(56,350,cs),
(56,483,o),
(84,708,o),
(300,708,cs),
(453,708,o),
(544,568,o),
(544,350,cs),
(544,217,o),
(516,-8,o),
(300,-8,cs)
);
},
{
closed = 1;
nodes = (
(382,112,o),
(394,257,o),
(395,265,c),
(397,292,o),
(398,322,o),
(398,350,cs),
(398,428,o),
(394,588,o),
(300,588,cs),
(225,588,o),
(207,459,o),
(205,431,c),
(203,404,o),
(202,377,o),
(202,350,cs),
(202,279,o),
(203,112,o),
(300,112,cs)
);
}
);
width = 600;
},
{
anchors = (
{
name = mark0;
position = "{300, 700}";
},
{
name = mark0.1;
position = "{536, 700}";
},
{
name = mark0.2;
position = "{300, 0}";
},
{
name = mark0.3;
position = "{300, 364}";
},
{
name = mark0.4;
position = "{300, 350}";
}
);
layerId = "3EF66B8B-A4EF-422E-A8E2-9DC69E93467B";
shapes = (
{
closed = 1;
nodes = (
(151,-8,o),
(64,124,o),
(64,350,cs),
(64,483,o),
(91,708,o),
(300,708,cs),
(444,708,o),
(536,578,o),
(536,350,cs),
(536,212,o),
(505,-8,o),
(300,-8,cs)
);
},
{
closed = 1;
nodes = (
(388,67,o),
(428,177,o),
(441,253,c),
(444,285,o),
(446,318,o),
(446,350,cs),
(446,448,o),
(433,633,o),
(300,633,cs),
(211,633,o),
(167,522,o),
(159,444,cs),
(155,412,o),
(154,381,o),
(154,350,cs),
(154,257,o),
(163,67,o),
(300,67,cs)
);
}
);
width = 600;
},
{
anchors = (
{
name = mark0;
position = "{300, 700}";
},
{
name = mark0.1;
position = "{536, 700}";
},
{
name = mark0.2;
position = "{300, 0}";
},
{
name = mark0.3;
position = "{300, 364}";
},
{
name = mark0.4;
position = "{300, 350}";
}
);
layerId = "0A6BB479-68DF-438A-AB6B-934827A2B9BB";
shapes = (
{
closed = 1;
nodes = (
(157,-8,o),
(74,117,o),
(74,350,cs),
(74,484,o),
(100,708,o),
(300,708,cs),
(433,708,o),
(526,590,o),
(526,350,cs),
(526,206,o),
(492,-8,o),
(300,-8,cs)
);
},
{
closed = 1;
nodes = (
(395,11,o),
(471,76,o),
(498,239,c),
(502,276,o),
(505,312,o),
(505,350,cs),
(505,472,o),
(481,689,o),
(300,689,cs),
(193,689,o),
(117,600,o),
(102,460,c),
(96,423,o),
(95,387,o),
(95,350,cs),
(95,230,o),
(112,11,o),
(300,11,cs)
);
}
);
width = 600;
}
);
unicode = 48;
},
{
glyphname = one;
layers = (
{
anchors = (
{
name = mark0;
position = "{300, 700}";
},
{
name = mark0.1;
position = "{536, 700}";
},
{
name = mark0.2;
position = "{300, 0}";
},
{
name = mark0.3;
position = "{300, 364}";
},
{
name = mark0.4;
position = "{300, 350}";
}
);
layerId = "AC532A80-AEF9-404E-A94E-472F4CBCE5BB";
shapes = (
{
closed = 1;
nodes = (
(99,0,l),
(99,120,l),
(235,120,l),
(235,419,l),
(106,419,l),
(106,539,l),
(235,539,l),
(235,700,l),
(380,700,l),
(380,120,l),
(501,120,l),
(501,0,l)
);
}
);
width = 600;
},
{
anchors = (
{
name = mark0;
position = "{300, 700}";
},
{
name = mark0.1;
position = "{536, 700}";
},
{
name = mark0.2;
position = "{300, 0}";
},
{
name = mark0.3;
position = "{300, 364}";
},
{
name = mark0.4;
position = "{300, 350}";
}
);
layerId = "3EF66B8B-A4EF-422E-A8E2-9DC69E93467B";
shapes = (
{
closed = 1;
nodes = (
(99,0,l),
(99,75,l),
(263,75,l),
(263,479,l),
(106,479,l),
(106,555,l),
(263,555,l),
(263,700,l),
(352,700,l),
(352,75,l),
(501,75,l),
(501,0,l)
);
}
);
width = 600;
},
{
anchors = (
{
name = mark0;
position = "{300, 700}";
},
{
name = mark0.1;
position = "{536, 700}";
},
{
name = mark0.2;
position = "{300, 0}";
},
{
name = mark0.3;
position = "{300, 364}";
},
{
name = mark0.4;
position = "{300, 350}";
}
);
layerId = "0A6BB479-68DF-438A-AB6B-934827A2B9BB";
shapes = (
{
closed = 1;
nodes = (
(99,0,l),
(99,19,l),
(297,19,l),
(297,555,l),
(106,555,l),
(106,574,l),
(297,574,l),
(297,700,l),
(318,700,l),
(318,19,l),
(501,19,l),
(501,0,l)
);
}
);
width = 600;
}
);
unicode = 49;
},
{
glyphname = two;
layers = (
{
anchors = (
{
name = mark0;
position = "{300, 700}";
},
{
name = mark0.1;
position = "{536, 700}";
},
{
name = mark0.2;
position = "{300, 0}";
},
{
name = mark0.3;
position = "{300, 364}";
},
{
name = mark0.4;
position = "{300, 350}";
}
);
layerId = "AC532A80-AEF9-404E-A94E-472F4CBCE5BB";
shapes = (
{
closed = 1;
nodes = (
(64,0,l),
(64,120,l),
(321,368,l),
(356,405,o),
(394,440,o),
(394,497,c),
(394,497,o),
(394,497,o),
(394,497,c),
(400,550,o),
(352,594,o),
(301,588,c),
(256,591,o),
(205,561,o),
(208,508,c),
(208,505,l),
(62,505,l),
(62,513,ls),
(62,628,o),
(152,708,o),
(301,708,cs),
(399,708,o),
(526,675,o),
(539,520,cs),
(540,512,o),
(540,505,o),
(540,497,c),
(540,412,o),
(487,336,o),
(421,281,c),
(254,120,l),
(536,120,l),
(536,0,l)
);
}
);
width = 600;
},
{
anchors = (
{
name = mark0;
position = "{300, 700}";
},
{
name = mark0.1;
position = "{536, 700}";
},
{
name = mark0.2;
position = "{300, 0}";
},
{
name = mark0.3;
position = "{300, 364}";
},
{
name = mark0.4;
position = "{300, 350}";
}
);
layerId = "3EF66B8B-A4EF-422E-A8E2-9DC69E93467B";
shapes = (
{
closed = 1;
nodes = (
(72,0,l),
(72,75,l),
(355,359,l),
(393,401,o),
(442,444,o),
(442,513,cs),
(442,520,o),
(440,527,o),
(438,534,c),
(433,596,o),
(370,636,o),
(301,633,c),
(237,635,o),
(159,605,o),
(160,523,c),
(160,518,l),
(70,518,l),
(70,526,ls),
(70,633,o),
(156,708,o),
(301,708,cs),
(394,708,o),
(524,678,o),
(531,526,c),
(532,517,o),
(532,509,o),
(531,500,cs),
(524,420,o),
(476,360,o),
(417,305,c),
(190,75,l),
(528,75,l),
(528,0,l)
);
}
);
width = 600;
},
{
anchors = (
{
name = mark0;
position = "{300, 700}";
},
{
name = mark0.1;
position = "{536, 700}";
},
{
name = mark0.2;
position = "{300, 0}";
},
{
name = mark0.3;
position = "{300, 364}";
},
{
name = mark0.4;
position = "{300, 350}";
}
);
layerId = "0A6BB479-68DF-438A-AB6B-934827A2B9BB";
shapes = (
{
closed = 1;
nodes = (
(82,0,l),
(82,19,l),
(397,348,l),
(440,395,o),
(501,449,o),
(501,533,cs),
(501,549,o),
(498,564,o),
(494,580,cs),
(475,654,o),
(392,689,o),
(301,689,cs),
(213,689,o),
(101,659,o),
(101,542,cs),
(101,535,l),
(80,535,l),
(80,543,ls),
(80,639,o),
(161,708,o),
(301,708,cs),
(388,708,o),
(522,682,o),
(522,533,cs),
(522,523,o),
(521,513,o),
(520,504,c),
(505,429,o),
(463,390,o),
(412,335,c),
(109,19,l),
(518,19,l),
(518,0,l)
);
}
);
width = 600;
}
);
unicode = 50;
},
{
glyphname = three;
layers = (
{
anchors = (
{
name = mark0;
position = "{300, 700}";
},
{
name = mark0.1;
position = "{536, 700}";
},
{
name = mark0.2;
position = "{300, 0}";
},
{
name = mark0.3;
position = "{300, 364}";
},
{
name = mark0.4;
position = "{300, 350}";
}
);
layerId = "AC532A80-AEF9-404E-A94E-472F4CBCE5BB";
shapes = (
{
closed = 1;
nodes = (
(303,-8,ls),
(206,-8,o),
(54,25,o),
(54,187,cs),
(54,195,l),
(200,195,l),
(200,192,ls),
(200,157,o),
(231,105,o),
(303,112,c),
(350,107,o),
(407,138,o),
(407,194,cs),
(407,248,o),
(360,283,o),
(311,293,cs),
(292,297,o),
(271,299,o),
(253,297,c),
(253,417,l),
(304,410,o),
(375,437,o),
(388,488,cs),
(390,496,o),
(391,504,o),
(391,513,cs),
(391,558,o),
(353,588,o),
(303,588,cs),
(265,588,o),
(216,567,o),
(216,509,cs),
(216,505,l),
(70,505,l),
(70,514,ls),
(70,622,o),
(152,708,o),
(303,708,cs),
(392,708,o),
(536,674,o),
(536,515,cs),
(536,447,o),
(500,393,o),
(440,359,c),
(513,329,o),
(552,259,o),
(552,181,c),
(546,63,o),
(449,-1,o),
(315,-8,c)
);
}
);
width = 600;
},
{
anchors = (
{
name = mark0;
position = "{300, 700}";
},
{
name = mark0.1;
position = "{536, 700}";
},
{
name = mark0.2;
position = "{300, 0}";
},
{
name = mark0.3;
position = "{300, 364}";
},
{
name = mark0.4;
position = "{300, 350}";
}
);
layerId = "3EF66B8B-A4EF-422E-A8E2-9DC69E93467B";
shapes = (
{
closed = 1;
nodes = (
(303,-8,ls),
(208,-8,o),
(62,23,o),
(62,175,cs),
(62,182,l),
(152,182,l),
(152,178,ls),
(152,114,o),
(211,63,o),
(303,67,c),
(365,64,o),
(455,94,o),
(455,186,cs),
(455,264,o),
(382,312,o),
(313,320,c),
(293,323,o),
(273,324,o),
(254,323,c),
(254,398,l),
(319,394,o),
(407,412,o),
(432,488,cs),
(436,500,o),
(439,512,o),
(439,525,cs),
(439,593,o),
(377,633,o),
(303,633,cs),
(244,633,o),
(168,607,o),
(168,524,cs),
(168,518,l),
(78,518,l),
(78,525,ls),
(78,620,o),
(146,708,o),
(303,708,cs),
(390,708,o),
(528,675,o),
(528,526,cs),
(528,450,o),
(477,389,o),
(405,362,c),
(481,337,o),
(544,272,o),
(544,178,c),
(541,54,o),
(433,-4,o),
(310,-8,c)
);
}
);
width = 600;
},
{
anchors = (
{
name = mark0;
position = "{300, 700}";
},
{
name = mark0.1;
position = "{536, 700}";
},
{
name = mark0.2;
position = "{300, 0}";
},
{
name = mark0.3;
position = "{300, 364}";
},
{
name = mark0.4;
position = "{300, 350}";
}
);
layerId = "0A6BB479-68DF-438A-AB6B-934827A2B9BB";
shapes = (
{
closed = 1;
nodes = (
(210,-8,o),
(72,21,o),
(72,160,cs),
(72,165,l),
(93,165,l),
(93,161,ls),
(93,60,o),
(187,11,o),
(303,11,cs),
(384,11,o),
(514,38,o),
(514,175,cs),
(514,285,o),
(409,349,o),
(315,354,cs),
(295,355,o),
(276,356,o),
(256,356,c),
(256,375,l),
(337,375,o),
(446,381,o),
(487,487,cs),
(494,504,o),
(498,522,o),
(498,540,cs),
(498,637,o),
(408,689,o),
(303,689,cs),
(217,689,o),
(109,657,o),
(109,542,cs),
(109,535,l),
(88,535,l),
(88,539,ls),
(88,618,o),
(139,708,o),
(303,708,cs),
(388,708,o),
(518,677,o),
(518,540,cs),
(518,454,o),
(449,383,o),
(362,366,c),
(441,348,o),
(534,289,o),
(534,175,cs),
(534,43,o),
(414,-8,o),
(303,-8,c)
);
}
);
width = 600;
}
);
unicode = 51;
},
{
glyphname = four;
layers = (
{
anchors = (
{
name = mark0;
position = "{300, 700}";
},
{
name = mark0.1;
position = "{536, 700}";
},
{
name = mark0.2;
position = "{300, 0}";
},
{
name = mark0.3;
position = "{300, 364}";
},
{
name = mark0.4;
position = "{300, 350}";
}
);
layerId = "AC532A80-AEF9-404E-A94E-472F4CBCE5BB";
shapes = (
{
closed = 1;
nodes = (
(351,0,l),
(351,130,l),
(56,130,l),
(56,250,l),
(333,700,l),
(479,700,l),
(201,250,l),
(351,250,l),
(351,379,l),
(487,379,l),
(487,250,l),
(536,250,l),
(536,130,l),
(487,130,l),
(487,0,l)
);
}
);
width = 600;
},
{
anchors = (
{
name = mark0;
position = "{300, 700}";
},
{
name = mark0.1;
position = "{536, 700}";
},
{
name = mark0.2;
position = "{300, 0}";
},
{
name = mark0.3;
position = "{300, 364}";
},
{
name = mark0.4;
position = "{300, 350}";
}
);
layerId = "3EF66B8B-A4EF-422E-A8E2-9DC69E93467B";
shapes = (
{
closed = 1;
nodes = (
(377,0,l),
(377,147,l),
(64,147,l),
(64,222,l),
(366,700,l),
(458,700,l),
(155,222,l),
(377,222,l),
(377,401,l),
(462,401,l),
(462,222,l),
(528,222,l),
(528,147,l),
(462,147,l),
(462,0,l)
);
}
);
width = 600;
},
{
anchors = (
{
name = mark0;
position = "{300, 700}";
},
{
name = mark0.1;
position = "{536, 700}";
},
{
name = mark0.2;
position = "{300, 0}";
},
{
name = mark0.3;
position = "{300, 364}";
},
{
name = mark0.4;
position = "{300, 350}";
}
);
layerId = "0A6BB479-68DF-438A-AB6B-934827A2B9BB";
shapes = (
{
closed = 1;
nodes = (
(409,0,l),
(409,168,l),
(74,168,l),
(74,187,l),
(408,700,l),
(432,700,l),
(98,187,l),
(409,187,l),
(409,428,l),
(430,428,l),
(430,187,l),
(518,187,l),
(518,168,l),
(430,168,l),
(430,0,l)
);
}
);
width = 600;
}
);
unicode = 52;
},
{
glyphname = five;
layers = (
{
anchors = (
{
name = mark0;
position = "{300, 700}";
},
{
name = mark0.1;
position = "{536, 700}";
},
{
name = mark0.2;
position = "{300, 0}";
},
{
name = mark0.3;
position = "{300, 364}";
},
{
name = mark0.4;
position = "{300, 350}";
}
);
layerId = "AC532A80-AEF9-404E-A94E-472F4CBCE5BB";
shapes = (
{
closed = 1;
nodes = (
(303,-8,ls),
(218,-8,o),
(124,15,o),
(81,107,cs),
(72,127,o),
(65,149,o),
(63,171,c),
(210,171,l),
(224,133,o),
(256,112,o),
(303,112,c),
(363,107,o),
(403,170,o),
(398,224,c),
(403,275,o),
(370,341,o),
(308,336,c),
(277,336,o),
(219,329,o),
(219,288,c),
(73,288,l),
(75,306,o),
(76,324,o),
(78,342,cs),
(108,700,l),
(512,700,l),
(512,580,l),
(244,580,l),
(233,450,l),
(257,455,o),
(283,456,o),
(308,456,cs),
(415,456,o),
(544,407,o),
(544,224,cs),
(544,109,o),
(484,1,o),
(321,-8,c)
);
}
);
width = 600;
},
{
anchors = (
{
name = mark0;
position = "{300, 700}";
},
{
name = mark0.1;
position = "{536, 700}";
},
{
name = mark0.2;
position = "{300, 0}";
},
{
name = mark0.3;
position = "{300, 364}";
},
{
name = mark0.4;
position = "{300, 350}";
}
);
layerId = "3EF66B8B-A4EF-422E-A8E2-9DC69E93467B";
shapes = (
{
closed = 1;
nodes = (
(303,-8,ls),
(218,-8,o),
(124,15,o),
(85,108,cs),
(77,127,o),
(72,146,o),
(71,167,c),
(162,167,l),
(169,95,o),
(240,67,o),
(303,67,c),
(374,64,o),
(448,116,o),
(446,224,c),
(448,290,o),
(416,384,o),
(307,381,c),
(255,381,o),
(171,365,o),
(171,301,c),
(81,301,l),
(82,314,o),
(83,327,o),
(84,340,cs),
(115,700,l),
(505,700,l),
(505,625,l),
(199,625,l),
(181,422,l),
(213,448,o),
(263,456,o),
(307,456,cs),
(413,456,o),
(536,405,o),
(536,224,cs),
(536,110,o),
(480,-3,o),
(313,-8,c)
);
}
);
width = 600;
},
{
anchors = (
{
name = mark0;
position = "{300, 700}";
},
{
name = mark0.1;
position = "{536, 700}";
},
{
name = mark0.2;
position = "{300, 0}";
},
{
name = mark0.3;
position = "{300, 364}";
},
{
name = mark0.4;
position = "{300, 350}";
}
);
layerId = "0A6BB479-68DF-438A-AB6B-934827A2B9BB";
shapes = (
{
closed = 1;
nodes = (
(217,-8,o),
(124,14,o),
(90,110,cs),
(84,126,o),
(80,143,o),
(80,161,c),
(101,161,l),
(101,48,o),
(219,11,o),
(302,11,cs),
(388,11,o),
(505,48,o),
(505,224,cs),
(505,308,o),
(474,437,o),
(306,437,cs),
(227,437,o),
(112,411,o),
(112,318,c),
(91,318,l),
(91,324,o),
(92,331,o),
(92,337,c),
(123,700,l),
(496,700,l),
(496,681,l),
(142,681,l),
(117,387,l),
(158,440,o),
(237,456,o),
(306,456,cs),
(410,456,o),
(526,403,o),
(526,224,cs),
(526,112,o),
(475,-8,o),
(302,-8,c)
);
}
);
width = 600;
}
);
unicode = 53;
},
{
glyphname = six;
layers = (
{
anchors = (
{
name = mark0;
position = "{300, 700}";
},
{
name = mark0.1;
position = "{536, 700}";
},
{
name = mark0.2;
position = "{300, 0}";
},
{
name = mark0.3;
position = "{300, 364}";
},
{
name = mark0.4;
position = "{300, 350}";
}
);
layerId = "AC532A80-AEF9-404E-A94E-472F4CBCE5BB";
shapes = (
{
closed = 1;
nodes = (
(300,-8,ls),
(195,-8,o),
(56,33,o),
(56,210,cs),
(56,474,ls),
(56,578,o),
(94,708,o),
(301,708,cs),
(397,708,o),
(546,672,o),
(546,512,c),
(546,510,o),
(546,507,o),
(546,505,c),
(400,505,l),
(400,550,o),
(365,594,o),
(301,588,c),
(234,596,o),
(202,547,o),
(202,459,cs),
(202,349,l),
(220,393,o),
(254,426,o),
(300,443,cs),
(319,450,o),
(341,453,o),
(363,453,cs),
(472,453,o),
(544,386,o),
(544,210,cs),
(544,99,o),
(483,2,o),
(317,-8,c)
);
},
{
closed = 1;
nodes = (
(366,105,o),
(398,162,o),
(398,216,cs),
(398,253,o),
(398,342,o),
(300,333,c),
(234,341,o),
(202,282,o),
(202,229,cs),
(202,185,o),
(201,112,o),
(300,112,c)
);
}
);
width = 600;
},
{
anchors = (
{
name = mark0;
position = "{300, 700}";
},
{
name = mark0.1;
position = "{536, 700}";
},
{
name = mark0.2;
position = "{300, 0}";
},
{
name = mark0.3;
position = "{300, 364}";
},
{
name = mark0.4;
position = "{300, 350}";
}
);
layerId = "3EF66B8B-A4EF-422E-A8E2-9DC69E93467B";
shapes = (
{
closed = 1;
nodes = (
(300,-8,ls),
(193,-8,o),
(64,36,o),
(64,210,cs),
(64,481,ls),
(64,582,o),
(105,708,o),
(301,708,cs),
(392,708,o),
(525,679,o),
(537,534,c),
(538,529,o),
(538,523,o),
(538,518,c),
(448,518,l),
(448,586,o),
(390,636,o),
(301,633,c),
(220,637,o),
(154,591,o),
(154,473,cs),
(154,329,l),
(179,389,o),
(230,427,o),
(301,436,c),
(320,440,o),
(341,441,o),
(363,440,c),
(463,432,o),
(536,366,o),
(536,210,cs),
(536,98,o),
(475,-2,o),
(309,-8,c)
);
},
{
closed = 1;
nodes = (
(374,63,o),
(446,109,o),
(446,213,cs),
(446,276,o),
(424,372,o),
(300,367,c),
(218,371,o),
(154,317,o),
(154,221,cs),
(154,153,o),
(174,67,o),
(300,67,c)
);
}
);
width = 600;
},
{
anchors = (
{
name = mark0;
position = "{300, 700}";
},
{
name = mark0.1;
position = "{536, 700}";
},
{
name = mark0.2;
position = "{300, 0}";
},
{
name = mark0.3;
position = "{300, 364}";
},
{
name = mark0.4;
position = "{300, 350}";
}
);
layerId = "0A6BB479-68DF-438A-AB6B-934827A2B9BB";
shapes = (
{
closed = 1;
nodes = (
(191,-8,o),
(74,40,o),
(74,210,cs),
(74,490,ls),
(74,587,o),
(119,708,o),
(302,708,cs),
(386,708,o),
(498,687,o),
(526,561,c),
(527,552,o),
(528,544,o),
(528,535,c),
(507,535,l),
(507,631,o),
(421,689,o),
(302,689,cs),
(202,689,o),
(95,645,o),
(95,490,cs),
(95,304,l),
(127,384,o),
(199,428,o),
(303,428,cs),
(322,428,o),
(342,427,o),
(362,423,cs),
(451,405,o),
(526,341,o),
(526,210,cs),
(526,96,o),
(465,-8,o),
(300,-8,c)
);
},
{
closed = 1;
nodes = (
(385,11,o),
(505,42,o),
(505,210,cs),
(505,305,o),
(457,409,o),
(300,409,cs),
(199,409,o),
(95,361,o),
(95,210,cs),
(95,113,o),
(140,11,o),
(300,11,cs)
);
}
);
width = 600;
}
);
unicode = 54;
},
{
glyphname = seven;
layers = (
{
anchors = (
{
name = mark0;
position = "{300, 700}";
},
{
name = mark0.1;
position = "{536, 700}";
},
{
name = mark0.2;
position = "{300, 0}";
},
{
name = mark0.3;
position = "{300, 364}";
},
{
name = mark0.4;
position = "{300, 350}";
}
);
layerId = "AC532A80-AEF9-404E-A94E-472F4CBCE5BB";
shapes = (
{
closed = 1;
nodes = (
(185,0,l),
(185,204,o),
(248,415,o),
(366,580,c),
(64,580,l),
(64,700,l),
(536,700,l),
(536,580,l),
(404,417,o),
(331,210,o),
(331,0,c)
);
}
);
width = 600;
},
{
anchors = (
{
name = mark0;
position = "{300, 700}";
},
{
name = mark0.1;
position = "{536, 700}";
},
{
name = mark0.2;
position = "{300, 0}";
},
{
name = mark0.3;
position = "{300, 364}";
},
{
name = mark0.4;
position = "{300, 350}";
}
);
layerId = "3EF66B8B-A4EF-422E-A8E2-9DC69E93467B";
shapes = (
{
closed = 1;
nodes = (
(209,0,l),
(209,222,o),
(282,448,o),
(422,625,c),
(72,625,l),
(72,700,l),
(528,700,l),
(528,625,l),
(379,449,o),
(299,223,o),
(299,0,c)
);
}
);
width = 600;
},
{
anchors = (
{
name = mark0;
position = "{300, 700}";
},
{
name = mark0.1;
position = "{536, 700}";
},
{
name = mark0.2;
position = "{300, 0}";
},
{
name = mark0.3;
position = "{300, 364}";
},
{
name = mark0.4;
position = "{300, 350}";
}
);
layerId = "0A6BB479-68DF-438A-AB6B-934827A2B9BB";
shapes = (
{
closed = 1;
nodes = (
(239,0,l),
(239,244,o),
(325,490,o),
(492,681,c),
(82,681,l),
(82,700,l),
(518,700,l),
(518,681,l),
(347,490,o),
(260,240,o),
(260,0,c)
);
}
);
width = 600;
}
);
unicode = 55;
},
{
glyphname = eight;
layers = (
{
anchors = (
{
name = mark0;
position = "{300, 700}";
},
{
name = mark0.1;
position = "{536, 700}";
},
{
name = mark0.2;
position = "{300, 0}";
},
{
name = mark0.3;
position = "{300, 364}";
},
{
name = mark0.4;
position = "{300, 350}";
}
);
layerId = "AC532A80-AEF9-404E-A94E-472F4CBCE5BB";
shapes = (
{
closed = 1;
nodes = (
(300,-8,l),
(183,-14,o),
(83,78,o),
(60,177,cs),
(57,190,o),
(56,204,o),
(56,218,c),
(56,280,o),
(84,344,o),
(132,385,c),
(91,419,o),
(75,471,o),
(75,521,c),
(81,633,o),
(175,708,o),
(300,708,cs),
(409,708,o),
(505,627,o),
(522,519,cs),
(523,510,o),
(524,500,o),
(524,490,cs),
(524,435,o),
(503,383,o),
(467,341,c),
(512,308,o),
(545,260,o),
(545,200,cs),
(545,195,o),
(544,191,o),
(544,186,c),
(538,67,o),
(436,-2,o),
(314,-8,c)
);
},
{
closed = 1;
nodes = (
(349,405,l),
(370,426,o),
(379,465,o),
(379,490,cs),
(379,535,o),
(353,588,o),
(300,588,cs),
(256,588,o),
(220,557,o),
(220,510,c),
(225,465,o),
(258,449,o),
(306,425,cs),
(317,420,o),
(328,416,o),
(338,411,c)
);
},
{
closed = 1;
nodes = (
(300,112,l),
(342,106,o),
(386,135,o),
(397,174,c),
(399,181,o),
(400,189,o),
(400,197,cs),
(400,200,o),
(399,202,o),
(399,205,c),
(391,277,o),
(247,316,o),
(246,316,c),
(219,289,o),
(202,257,o),
(202,218,cs),
(202,171,o),
(239,112,o),
(292,112,cs)
);
}
);
width = 600;
},
{
anchors = (
{
name = mark0;
position = "{300, 700}";
},
{
name = mark0.1;
position = "{536, 700}";
},
{
name = mark0.2;
position = "{300, 0}";
},
{
name = mark0.3;
position = "{300, 364}";
},
{
name = mark0.4;
position = "{300, 350}";
}
);
layerId = "3EF66B8B-A4EF-422E-A8E2-9DC69E93467B";
shapes = (
{
closed = 1;
nodes = (
(300,-8,l),
(183,-11,o),
(79,74,o),
(66,182,cs),
(65,194,o),
(64,206,o),
(65,218,cs),
(68,284,o),
(110,345,o),
(162,382,c),
(113,413,o),
(83,463,o),
(83,525,c),
(86,632,o),
(171,708,o),
(300,708,cs),
(403,708,o),
(506,632,o),
(516,519,c),
(516,510,o),
(516,500,o),
(516,490,c),
(513,430,o),
(479,376,o),
(437,339,c),
(488,309,o),
(528,267,o),
(536,201,cs),
(537,194,o),
(536,188,o),
(536,182,c),
(533,55,o),
(419,-5,o),
(308,-8,c)
);
},
{
closed = 1;
nodes = (
(361,378,l),
(399,404,o),
(427,456,o),
(427,502,cs),
(427,568,o),
(377,633,o),
(300,633,cs),
(239,633,o),
(172,601,o),
(172,519,c),
(175,449,o),
(237,421,o),
(312,397,cs),
(327,392,o),
(341,387,o),
(355,382,c)
);
},
{
closed = 1;
nodes = (
(300,67,l),
(355,64,o),
(419,86,o),
(442,153,c),
(444,161,o),
(446,169,o),
(446,177,c),
(447,182,o),
(447,186,o),
(447,192,c),
(442,297,o),
(279,322,o),
(235,340,c),
(189,309,o),
(154,264,o),
(154,205,cs),
(154,136,o),
(210,67,o),
(296,67,cs)
);
}
);
width = 600;
},
{
anchors = (
{
name = mark0;
position = "{300, 700}";
},
{
name = mark0.1;
position = "{536, 700}";
},
{
name = mark0.2;
position = "{300, 0}";
},
{
name = mark0.3;
position = "{300, 364}";
},
{
name = mark0.4;
position = "{300, 350}";
}
);
layerId = "0A6BB479-68DF-438A-AB6B-934827A2B9BB";
shapes = (
{
closed = 1;
nodes = (
(182,-8,o),
(74,69,o),
(74,189,cs),
(74,199,o),
(74,208,o),
(76,218,c),
(83,289,o),
(142,347,o),
(200,379,c),
(141,406,o),
(92,454,o),
(92,531,cs),
(92,630,o),
(167,708,o),
(300,708,cs),
(395,708,o),
(508,639,o),
(508,518,cs),
(508,509,o),
(507,500,o),
(506,491,cs),
(499,424,o),
(449,368,o),
(400,336,c),
(457,311,o),
(507,276,o),
(524,202,cs),
(526,193,o),
(527,185,o),
(527,176,cs),
(527,41,o),
(398,-8,o),
(300,-8,c)
);
},
{
closed = 1;
nodes = (
(435,376,o),
(487,444,o),
(487,518,cs),
(487,610,o),
(408,689,o),
(300,689,cs),
(218,689,o),
(112,655,o),
(112,531,cs),
(112,429,o),
(210,385,o),
(320,361,cs),
(339,357,o),
(358,350,o),
(377,345,c)
);
},
{
closed = 1;
nodes = (
(372,11,o),
(460,25,o),
(498,127,c),
(500,135,o),
(503,143,o),
(504,151,cs),
(505,159,o),
(506,167,o),
(506,176,cs),
(506,321,o),
(319,329,o),
(222,370,c),
(152,335,o),
(95,272,o),
(95,189,cs),
(95,93,o),
(174,11,o),
(300,11,c)
);
}
);
width = 600;
}
);
unicode = 56;
},
{
glyphname = nine;
layers = (
{
anchors = (
{
name = mark0;
position = "{300, 700}";
},
{
name = mark0.1;
position = "{536, 700}";
},
{
name = mark0.2;
position = "{300, 0}";
},
{
name = mark0.3;
position = "{300, 364}";
},
{
name = mark0.4;
position = "{300, 350}";
}
);
layerId = "AC532A80-AEF9-404E-A94E-472F4CBCE5BB";
shapes = (
{
closed = 1;
nodes = (
(299,-8,ls),
(191,-8,o),
(54,36,o),
(54,195,c),
(200,195,l),
(200,143,o),
(233,112,o),
(316,112,c),
(400,119,o),
(398,200,o),
(398,273,cs),
(398,351,l),
(380,307,o),
(346,274,o),
(300,257,cs),
(281,250,o),
(259,247,o),
(237,247,cs),
(125,247,o),
(56,317,o),
(56,490,cs),
(56,608,o),
(129,708,o),
(300,708,cs),
(409,708,o),
(544,662,o),
(544,490,cs),
(544,226,ls),
(544,122,o),
(508,3,o),
(316,-8,c)
);
},
{
closed = 1;
nodes = (
(366,360,o),
(398,417,o),
(398,471,cs),
(398,508,o),
(398,597,o),
(300,588,c),
(234,596,o),
(202,537,o),
(202,484,cs),
(202,440,o),
(201,367,o),
(300,367,c)
);
}
);
width = 600;
},
{
anchors = (
{
name = mark0;
position = "{300, 700}";
},
{
name = mark0.1;
position = "{536, 700}";
},
{
name = mark0.2;
position = "{300, 0}";
},
{
name = mark0.3;
position = "{300, 364}";
},
{
name = mark0.4;
position = "{300, 350}";
}
);
layerId = "3EF66B8B-A4EF-422E-A8E2-9DC69E93467B";
shapes = (
{
closed = 1;
nodes = (
(299,-8,ls),
(199,-8,o),
(62,29,o),
(62,182,c),
(152,182,l),
(152,99,o),
(223,67,o),
(308,67,c),
(394,71,o),
(446,131,o),
(446,245,cs),
(446,371,l),
(420,309,o),
(367,273,o),
(299,264,c),
(279,260,o),
(258,259,o),
(237,260,cs),
(131,267,o),
(64,341,o),
(64,490,cs),
(64,599,o),
(124,708,o),
(300,708,cs),
(407,708,o),
(536,661,o),
(536,490,cs),
(536,219,ls),
(536,114,o),
(492,-2,o),
(308,-8,c)
);
},
{
closed = 1;
nodes = (
(374,329,o),
(446,375,o),
(446,479,cs),
(446,542,o),
(424,638,o),
(300,633,c),
(218,637,o),
(154,583,o),
(154,487,cs),
(154,419,o),
(174,333,o),
(300,333,c)
);
}
);
width = 600;
},
{
anchors = (
{
name = mark0;
position = "{300, 700}";
},
{
name = mark0.1;
position = "{536, 700}";
},
{
name = mark0.2;
position = "{300, 0}";
},
{
name = mark0.3;
position = "{300, 364}";
},
{
name = mark0.4;
position = "{300, 350}";
}
);
layerId = "0A6BB479-68DF-438A-AB6B-934827A2B9BB";
shapes = (
{
closed = 1;
nodes = (
(208,-8,o),
(72,20,o),
(72,165,c),
(93,165,l),
(93,45,o),
(210,11,o),
(298,11,cs),
(386,11,o),
(505,45,o),
(505,210,cs),
(505,396,l),
(471,311,o),
(394,272,o),
(297,272,cs),
(277,272,o),
(257,274,o),
(238,277,cs),
(139,293,o),
(74,371,o),
(74,490,cs),
(74,587,o),
(117,708,o),
(300,708,cs),
(404,708,o),
(526,660,o),
(526,490,cs),
(526,210,ls),
(526,104,o),
(472,-8,o),
(298,-8,c)
);
},
{
closed = 1;
nodes = (
(385,291,o),
(505,322,o),
(505,490,cs),
(505,585,o),
(457,689,o),
(300,689,cs),
(199,689,o),
(95,641,o),
(95,490,cs),
(95,393,o),
(140,291,o),
(300,291,cs)
);
}
);
width = 600;
}
);
unicode = 57;
},
{
glyphname = colon;
layers = (
{
layerId = "AC532A80-AEF9-404E-A94E-472F4CBCE5BB";
shapes = (
{
closed = 1;
nodes = (
(200,322,l),
(136,317,o),
(92,366,o),
(92,430,c),
(88,490,o),
(135,542,o),
(200,538,c),
(260,542,o),
(312,495,o),
(308,430,c),
(312,375,o),
(270,322,o),
(212,322,cs)
);
},
{
closed = 1;
nodes = (
(200,-8,l),
(142,-12,o),
(92,29,o),
(92,100,c),
(88,160,o),
(136,213,o),
(200,208,c),
(256,212,o),
(313,167,o),
(308,100,c),
(312,44,o),
(268,-8,o),
(212,-8,cs)
);
}
);
width = 400;
},
{
layerId = "3EF66B8B-A4EF-422E-A8E2-9DC69E93467B";
shapes = (
{
closed = 1;
nodes = (
(200,386,l),
(156,384,o),
(124,414,o),
(124,462,c),
(122,500,o),
(149,540,o),
(200,538,c),
(239,540,o),
(278,511,o),
(276,462,c),
(278,417,o),
(244,386,o),
(207,386,cs)
);
},
{
closed = 1;
nodes = (
(200,-8,l),
(156,-10,o),
(124,20,o),
(124,68,c),
(122,105,o),
(150,146,o),
(200,144,c),
(236,146,o),
(278,118,o),
(276,68,c),
(278,26,o),
(246,-8,o),
(207,-8,cs)
);
}
);
width = 400;
},
{
layerId = "0A6BB479-68DF-438A-AB6B-934827A2B9BB";
shapes = (
{
closed = 1;
nodes = (
(181,467,o),
(164,475,o),
(164,503,cs),
(164,512,o),
(167,538,o),
(200,538,cs),
(212,538,o),
(235,532,o),
(235,502,cs),
(235,470,o),
(211,467,o),
(200,467,c)
);
},
{
closed = 1;
nodes = (
(174,-8,o),
(164,8,o),
(164,28,cs),
(164,37,o),
(167,63,o),
(200,63,cs),
(212,63,o),
(235,57,o),
(235,27,cs),
(235,3,o),
(219,-8,o),
(200,-8,c)
);
}
);
width = 400;
}
);
unicode = 58;
},
{
glyphname = semicolon;
layers = (
{
layerId = "AC532A80-AEF9-404E-A94E-472F4CBCE5BB";
shapes = (
{
closed = 1;
nodes = (
(200,322,l),
(136,317,o),
(92,366,o),
(92,430,c),
(88,490,o),
(135,542,o),
(200,538,c),
(260,542,o),
(312,495,o),
(308,430,c),
(312,375,o),
(270,322,o),
(212,322,cs)
);
},
{
closed = 1;
nodes = (
(150,-205,l),
(69,-130,l),
(111,-96,o),
(154,-54,o),
(180,-7,c),
(164,-5,o),
(145,0,o),
(132,11,c),
(104,31,o),
(92,66,o),
(92,100,c),
(91,111,o),
(92,122,o),
(95,132,cs),
(106,175,o),
(142,208,o),
(200,208,c),
(249,214,o),
(294,177,o),
(306,131,cs),
(308,121,o),
(309,109,o),
(308,98,c),
(308,-7,o),
(246,-110,o),
(173,-183,c)
);
}
);
width = 400;
},
{
layerId = "3EF66B8B-A4EF-422E-A8E2-9DC69E93467B";
shapes = (
{
closed = 1;
nodes = (
(200,386,l),
(156,384,o),
(124,414,o),
(124,462,c),
(122,500,o),
(149,540,o),
(200,538,c),
(239,540,o),
(278,511,o),
(276,462,c),
(278,417,o),
(244,386,o),
(207,386,cs)
);
},
{
closed = 1;
nodes = (
(164,-205,l),
(111,-160,l),
(147,-114,o),
(179,-61,o),
(195,-6,c),
(184,-6,o),
(171,-4,o),
(162,3,c),
(138,14,o),
(127,38,o),
(125,61,c),
(124,69,o),
(124,78,o),
(126,86,cs),
(132,114,o),
(153,144,o),
(200,144,c),
(237,147,o),
(268,121,o),
(275,83,cs),
(276,76,o),
(276,68,o),
(276,61,c),
(276,-31,o),
(231,-122,o),
(177,-193,c)
);
}
);
width = 400;
},
{
layerId = "0A6BB479-68DF-438A-AB6B-934827A2B9BB";
shapes = (
{
closed = 1;
nodes = (
(181,467,o),
(164,475,o),
(164,503,cs),
(164,512,o),
(167,538,o),
(200,538,cs),
(212,538,o),
(235,532,o),
(235,502,cs),
(235,470,o),
(211,467,o),
(200,467,c)
);
},
{
closed = 1;
nodes = (
(163,-197,l),
(191,-137,o),
(210,-69,o),
(214,-4,c),
(209,-7,o),
(203,-8,o),
(199,-8,cs),
(181,-8,o),
(170,2,o),
(167,13,c),
(165,17,o),
(165,22,o),
(165,28,cs),
(165,37,o),
(166,63,o),
(200,63,cs),
(221,63,o),
(236,50,o),
(236,23,cs),
(236,20,o),
(235,17,o),
(235,15,cs),
(235,-60,o),
(212,-137,o),
(182,-205,c)
);
}
);
width = 400;
}
);
unicode = 59;
},
{
glyphname = less;
layers = (
{
layerId = "AC532A80-AEF9-404E-A94E-472F4CBCE5BB";
shapes = (
{
closed = 1;
nodes = (
(502,-29,l),
(64,244,l),
(64,370,l),
(502,643,l),
(570,552,l),
(167,307,l),
(570,62,l)
);
}
);
width = 600;
},
{
layerId = "3EF66B8B-A4EF-422E-A8E2-9DC69E93467B";
shapes = (
{
closed = 1;
nodes = (
(507,-2,l),
(72,267,l),
(72,347,l),
(507,616,l),
(549,559,l),
(137,307,l),
(549,55,l)
);
}
);
width = 600;
},
{
layerId = "0A6BB479-68DF-438A-AB6B-934827A2B9BB";
shapes = (
{
closed = 1;
nodes = (
(513,31,l),
(82,296,l),
(82,318,l),
(513,583,l),
(523,567,l),
(100,307,l),
(523,47,l)
);
}
);
width = 600;
}
);
unicode = 60;
},
{
glyphname = equal;
layers = (
{
layerId = "AC532A80-AEF9-404E-A94E-472F4CBCE5BB";
shapes = (
{
closed = 1;
nodes = (
(64,367,l),
(64,474,l),
(536,474,l),
(536,367,l)
);
},
{
closed = 1;
nodes = (
(536,140,l),
(64,140,l),
(64,247,l),
(536,247,l)
);
}
);
width = 600;
},
{
layerId = "3EF66B8B-A4EF-422E-A8E2-9DC69E93467B";
shapes = (
{
closed = 1;
nodes = (
(72,383,l),
(72,450,l),
(528,450,l),
(528,383,l)
);
},
{
closed = 1;
nodes = (
(528,164,l),
(72,164,l),
(72,231,l),
(528,231,l)
);
}
);
width = 600;
},
{
layerId = "0A6BB479-68DF-438A-AB6B-934827A2B9BB";
shapes = (
{
closed = 1;
nodes = (
(82,402,l),
(82,421,l),
(518,421,l),
(518,402,l)
);
},
{
closed = 1;
nodes = (
(518,193,l),
(82,193,l),
(82,212,l),
(518,212,l)
);
}
);
width = 600;
}
);
unicode = 61;
},
{
glyphname = greater;
layers = (
{
layerId = "AC532A80-AEF9-404E-A94E-472F4CBCE5BB";
shapes = (
{
closed = 1;
nodes = (
(98,-29,l),
(30,62,l),
(433,307,l),
(30,552,l),
(98,643,l),
(536,370,l),
(536,244,l)
);
}
);
width = 600;
},
{
layerId = "3EF66B8B-A4EF-422E-A8E2-9DC69E93467B";
shapes = (
{
closed = 1;
nodes = (
(93,-2,l),
(51,55,l),
(463,307,l),
(51,559,l),
(93,616,l),
(528,347,l),
(528,267,l)
);
}
);
width = 600;
},
{
layerId = "0A6BB479-68DF-438A-AB6B-934827A2B9BB";
shapes = (
{
closed = 1;
nodes = (
(87,31,l),
(77,47,l),
(500,307,l),
(77,567,l),
(87,583,l),
(518,318,l),
(518,296,l)
);
}
);
width = 600;
}
);
unicode = 62;
},
{
glyphname = question;
layers = (
{
layerId = "AC532A80-AEF9-404E-A94E-472F4CBCE5BB";
shapes = (
{
closed = 1;
nodes = (
(227,270,l),
(227,345,o),
(250,397,o),
(333,443,cs),
(362,459,o),
(387,476,o),
(391,513,c),
(391,557,o),
(347,594,o),
(299,588,c),
(254,593,o),
(208,560,o),
(208,508,cs),
(208,505,l),
(62,505,l),
(62,513,ls),
(62,626,o),
(151,708,o),
(299,708,cs),
(408,708,o),
(511,663,o),
(533,547,cs),
(535,535,o),
(537,522,o),
(537,510,cs),
(537,425,o),
(477,378,o),
(407,333,c),
(387,318,o),
(370,300,o),
(373,270,c)
);
},
{
closed = 1;
nodes = (
(300,-8,l),
(243,-12,o),
(202,31,o),
(202,90,c),
(198,145,o),
(243,188,o),
(300,188,c),
(355,192,o),
(398,147,o),
(398,90,c),
(402,41,o),
(361,-8,o),
(310,-8,cs)
);
}
);
width = 600;
},
{
layerId = "3EF66B8B-A4EF-422E-A8E2-9DC69E93467B";
shapes = (
{
closed = 1;
nodes = (
(255,243,l),
(255,313,o),
(272,365,o),
(354,413,cs),
(394,437,o),
(436,465,o),
(439,520,c),
(439,586,o),
(378,636,o),
(299,633,c),
(237,636,o),
(160,604,o),
(160,522,cs),
(160,518,l),
(70,518,l),
(70,525,ls),
(70,627,o),
(151,708,o),
(299,708,cs),
(411,708,o),
(512,658,o),
(527,539,cs),
(528,524,o),
(528,510,o),
(525,496,c),
(513,418,o),
(454,379,o),
(390,337,c),
(359,314,o),
(343,285,o),
(345,243,c)
);
},
{
closed = 1;
nodes = (
(300,-8,l),
(257,-10,o),
(230,20,o),
(230,62,c),
(228,97,o),
(255,132,o),
(300,132,c),
(337,134,o),
(370,104,o),
(370,62,c),
(372,24,o),
(341,-8,o),
(306,-8,cs)
);
}
);
width = 600;
},
{
layerId = "0A6BB479-68DF-438A-AB6B-934827A2B9BB";
shapes = (
{
closed = 1;
nodes = (
(290,210,l),
(290,274,o),
(300,324,o),
(381,376,cs),
(433,409,o),
(498,451,o),
(498,529,cs),
(498,623,o),
(416,689,o),
(299,689,cs),
(215,689,o),
(101,658,o),
(101,539,cs),
(101,535,l),
(80,535,l),
(80,540,ls),
(80,629,o),
(152,708,o),
(299,708,cs),
(379,708,o),
(473,683,o),
(510,580,cs),
(516,563,o),
(519,546,o),
(519,528,cs),
(519,432,o),
(436,389,o),
(368,341,cs),
(324,310,o),
(310,267,o),
(310,210,c)
);
},
{
closed = 1;
nodes = (
(275,-8,o),
(266,6,o),
(266,27,cs),
(266,37,o),
(269,61,o),
(300,61,cs),
(314,61,o),
(335,51,o),
(335,27,cs),
(335,2,o),
(316,-8,o),
(300,-8,c)
);
}
);
width = 600;
}
);
unicode = 63;
},
{
glyphname = at;
layers = (
{
layerId = "AC532A80-AEF9-404E-A94E-472F4CBCE5BB";
shapes = (
{
closed = 1;
nodes = (
(476,-142,l),
(320,-142,ls),
(215,-142,o),
(64,-114,o),
(64,92,cs),
(64,522,ls),
(64,637,o),
(119,756,o),
(300,756,cs),
(410,756,o),
(527,706,o),
(536,535,c),
(536,196,ls),
(536,124,o),
(507,43,o),
(408,35,cs),
(402,34,o),
(396,34,o),
(390,34,c),
(313,34,o),
(244,80,o),
(244,196,cs),
(244,374,ls),
(244,461,o),
(284,535,o),
(408,535,cs),
(421,535,l),
(421,599,o),
(360,641,o),
(300,636,c),
(207,643,o),
(179,573,o),
(179,483,cs),
(179,131,ls),
(179,85,o),
(169,-32,o),
(300,-22,c),
(476,-22,l)
);
},
{
closed = 1;
nodes = (
(421,137,o),
(421,175,o),
(421,209,cs),
(421,441,l),
(396,441,ls),
(362,441,o),
(359,395,o),
(359,374,cs),
(359,221,ls),
(359,189,o),
(354,138,o),
(390,129,c)
);
}
);
width = 600;
},
{
layerId = "3EF66B8B-A4EF-422E-A8E2-9DC69E93467B";
shapes = (
{
closed = 1;
nodes = (
(491,-137,l),
(311,-137,ls),
(204,-137,o),
(72,-98,o),
(72,88,cs),
(72,526,ls),
(72,632,o),
(122,751,o),
(300,751,cs),
(404,751,o),
(523,703,o),
(528,534,c),
(528,204,ls),
(528,136,o),
(515,42,o),
(404,38,c),
(398,37,o),
(392,37,o),
(386,38,c),
(311,38,o),
(260,95,o),
(260,186,cs),
(260,385,ls),
(260,451,o),
(286,533,o),
(406,533,cs),
(455,533,l),
(455,602,o),
(408,678,o),
(300,676,c),
(205,679,o),
(145,621,o),
(145,505,cs),
(145,109,ls),
(145,42,o),
(159,-67,o),
(300,-62,c),
(491,-62,l)
);
},
{
closed = 1;
nodes = (
(434,103,o),
(455,138,o),
(455,193,cs),
(455,472,l),
(399,472,ls),
(354,472,o),
(332,429,o),
(332,385,cs),
(332,200,ls),
(332,159,o),
(338,103,o),
(394,98,c)
);
}
);
width = 600;
},
{
layerId = "0A6BB479-68DF-438A-AB6B-934827A2B9BB";
shapes = (
{
closed = 1;
nodes = (
(509,-130,l),
(300,-130,ls),
(190,-130,o),
(82,-79,o),
(82,82,cs),
(82,532,ls),
(82,626,o),
(125,744,o),
(300,744,cs),
(397,744,o),
(518,700,o),
(518,532,cs),
(518,213,ls),
(518,151,o),
(525,41,o),
(398,41,cs),
(392,41,o),
(387,41,o),
(381,42,c),
(309,42,o),
(279,114,o),
(279,173,cs),
(279,398,ls),
(279,439,o),
(289,530,o),
(403,530,cs),
(497,530,l),
(497,605,o),
(469,725,o),
(300,725,cs),
(203,725,o),
(103,682,o),
(103,532,cs),
(103,82,ls),
(103,-12,o),
(146,-111,o),
(300,-111,cs),
(509,-111,l)
);
},
{
closed = 1;
nodes = (
(451,60,o),
(497,91,o),
(497,173,cs),
(497,511,l),
(403,511,ls),
(344,511,o),
(299,472,o),
(299,398,cs),
(299,173,ls),
(299,121,o),
(319,60,o),
(398,60,cs)
);
}
);
width = 600;
}
);
unicode = 64;
},
{
glyphname = A;
layers = (
{
anchors = (
{
name = mark0;
position = "{300, 700}";
},
{
name = mark0.1;
position = "{536, 700}";
},
{
name = mark0.2;
position = "{300, 0}";
},
{
name = mark0.3;
position = "{536, 0}";
},
{
name = mark0.4;
position = "{300, 364}";
},
{
name = mark0.5;
position = "{300, 350}";
}
);
layerId = "AC532A80-AEF9-404E-A94E-472F4CBCE5BB";
shapes = (
{
closed = 1;
nodes = (
(37,0,l),
(216,700,l),
(384,700,l),
(563,0,l),
(413,0,l),
(382,145,l),
(218,145,l),
(187,0,l)
);
},
{
closed = 1;
nodes = (
(243,265,l),
(357,265,l),
(332,386,ls),
(321,436,o),
(311,485,o),
(300,535,c),
(289,485,o),
(279,436,o),
(268,386,c)
);
}
);
width = 600;
},
{
anchors = (
{
name = mark0;
position = "{300, 700}";
},
{
name = mark0.1;
position = "{536, 700}";
},
{
name = mark0.2;
position = "{300, 0}";
},
{
name = mark0.3;
position = "{536, 0}";
},
{
name = mark0.4;
position = "{300, 364}";
},
{
name = mark0.5;
position = "{300, 350}";
}
);
layerId = "3EF66B8B-A4EF-422E-A8E2-9DC69E93467B";
shapes = (
{
closed = 1;
nodes = (
(49,0,l),
(248,700,l),
(352,700,l),
(551,0,l),
(457,0,l),
(405,190,l),
(195,190,l),
(143,0,l)
);
},
{
closed = 1;
nodes = (
(211,265,l),
(389,265,l),
(346,422,ls),
(330,480,o),
(315,537,o),
(300,595,c),
(284,537,o),
(269,480,o),
(254,422,cs)
);
}
);
width = 600;
},
{
anchors = (
{
name = mark0;
position = "{300, 700}";
},
{
name = mark0.1;
position = "{536, 700}";
},
{
name = mark0.2;
position = "{300, 0}";
},
{
name = mark0.3;
position = "{536, 0}";
},
{
name = mark0.4;
position = "{300, 364}";
},
{
name = mark0.5;
position = "{300, 350}";
}
);
layerId = "0A6BB479-68DF-438A-AB6B-934827A2B9BB";
shapes = (
{
closed = 1;
nodes = (
(65,0,l),
(288,700,l),
(312,700,l),
(535,0,l),
(512,0,l),
(434,246,l),
(166,246,l),
(88,0,l)
);
},
{
closed = 1;
nodes = (
(172,265,l),
(428,265,l),
(364,467,ls),
(342,535,o),
(320,603,o),
(300,671,c),
(278,603,o),
(256,535,o),
(236,467,c)
);
}
);
width = 600;
}
);
unicode = 65;
},
{
glyphname = B;
layers = (
{
anchors = (
{
name = mark0;
position = "{300, 700}";
},
{
name = mark0.1;
position = "{536, 700}";
},
{
name = mark0.2;
position = "{300, 0}";
},
{
name = mark0.3;
position = "{300, 364}";
},
{
name = mark0.4;
position = "{300, 350}";
}
);
layerId = "AC532A80-AEF9-404E-A94E-472F4CBCE5BB";
shapes = (
{
closed = 1;
nodes = (
(64,0,l),
(64,700,l),
(309,700,ls),
(406,700,o),
(504,658,o),
(518,531,cs),
(519,522,o),
(519,513,o),
(519,504,cs),
(519,449,o),
(496,395,o),
(450,366,c),
(509,340,o),
(556,284,o),
(552,207,c),
(552,96,o),
(480,0,o),
(309,0,cs)
);
},
{
closed = 1;
nodes = (
(210,421,l),
(295,421,ls),
(328,421,o),
(380,428,o),
(373,502,c),
(382,573,o),
(316,580,o),
(281,580,cs),
(210,580,l)
);
},
{
closed = 1;
nodes = (
(309,120,l),
(358,114,o),
(412,156,o),
(406,210,c),
(412,261,o),
(360,308,o),
(309,302,c),
(210,302,l),
(210,120,l)
);
}
);
width = 600;
},
{
anchors = (
{
name = mark0;
position = "{300, 700}";
},
{
name = mark0.1;
position = "{536, 700}";
},
{
name = mark0.2;
position = "{300, 0}";
},
{
name = mark0.3;
position = "{300, 364}";
},
{
name = mark0.4;
position = "{300, 350}";
}
);
layerId = "3EF66B8B-A4EF-422E-A8E2-9DC69E93467B";
shapes = (
{
closed = 1;
nodes = (
(72,0,l),
(72,700,l),
(306,700,ls),
(394,700,o),
(504,664,o),
(511,529,cs),
(512,520,o),
(511,511,o),
(511,502,c),
(508,442,o),
(475,388,o),
(418,366,c),
(487,343,o),
(546,289,o),
(544,198,c),
(544,89,o),
(472,0,o),
(306,0,cs)
);
},
{
closed = 1;
nodes = (
(162,400,l),
(298,400,ls),
(343,400,o),
(426,411,o),
(422,513,c),
(427,583,o),
(373,625,o),
(290,625,cs),
(162,625,l)
);
},
{
closed = 1;
nodes = (
(306,75,l),
(373,72,o),
(457,108,o),
(454,200,c),
(457,262,o),
(407,328,o),
(306,325,c),
(162,325,l),
(162,75,l)
);
}
);
width = 600;
},
{
anchors = (
{
name = mark0;
position = "{300, 700}";
},
{
name = mark0.1;
position = "{536, 700}";
},
{
name = mark0.2;
position = "{300, 0}";
},
{
name = mark0.3;
position = "{300, 364}";
},
{
name = mark0.4;
position = "{300, 350}";
}
);
layerId = "0A6BB479-68DF-438A-AB6B-934827A2B9BB";
shapes = (
{
closed = 1;
nodes = (
(82,0,l),
(82,700,l),
(302,700,ls),
(379,700,o),
(503,672,o),
(503,527,cs),
(503,517,o),
(502,508,o),
(501,499,cs),
(494,434,o),
(448,380,o),
(379,365,c),
(460,346,o),
(534,295,o),
(534,186,cs),
(534,80,o),
(462,0,o),
(302,0,cs)
);
},
{
closed = 1;
nodes = (
(103,373,l),
(302,373,ls),
(362,373,o),
(483,390,o),
(483,527,cs),
(483,596,o),
(445,681,o),
(302,681,cs),
(103,681,l)
);
},
{
closed = 1;
nodes = (
(302,19,ls),
(392,19,o),
(513,47,o),
(513,187,cs),
(513,264,o),
(466,354,o),
(302,354,cs),
(103,354,l),
(103,19,l)
);
}
);
width = 600;
}
);
unicode = 66;
},
{
glyphname = C;
layers = (
{
anchors = (
{
name = mark0;
position = "{300, 700}";
},
{
name = mark0.1;
position = "{536, 700}";
},
{
name = mark0.2;
position = "{300, 0}";
},
{
name = mark0.3;
position = "{300, 364}";
},
{
name = mark0.4;
position = "{300, 350}";
}
);
layerId = "AC532A80-AEF9-404E-A94E-472F4CBCE5BB";
shapes = (
{
closed = 1;
nodes = (
(297,-8,ls),
(186,-8,o),
(56,40,o),
(56,226,cs),
(56,474,ls),
(56,586,o),
(111,708,o),
(297,708,cs),
(385,708,o),
(486,681,o),
(525,581,cs),
(535,555,o),
(538,532,o),
(538,505,c),
(392,505,l),
(392,539,o),
(369,595,o),
(297,588,c),
(287,589,o),
(277,588,o),
(268,585,cs),
(214,567,o),
(202,519,o),
(202,445,cs),
(202,255,ls),
(202,206,o),
(195,139,o),
(268,115,cs),
(277,112,o),
(287,111,o),
(297,112,c),
(350,106,o),
(392,143,o),
(392,195,c),
(538,195,l),
(538,101,o),
(475,-8,o),
(312,-8,cs)
);
}
);
width = 600;
},
{
anchors = (
{
name = mark0;
position = "{300, 700}";
},
{
name = mark0.1;
position = "{536, 700}";
},
{
name = mark0.2;
position = "{300, 0}";
},
{
name = mark0.3;
position = "{300, 364}";
},
{
name = mark0.4;
position = "{300, 350}";
}
);
layerId = "3EF66B8B-A4EF-422E-A8E2-9DC69E93467B";
shapes = (
{
closed = 1;
nodes = (
(297,-8,ls),
(186,-8,o),
(64,41,o),
(64,217,cs),
(64,483,ls),
(64,586,o),
(111,708,o),
(297,708,cs),
(378,708,o),
(481,686,o),
(519,584,cs),
(527,562,o),
(530,541,o),
(530,518,c),
(440,518,l),
(440,571,o),
(401,630,o),
(318,632,c),
(306,633,o),
(293,633,o),
(281,631,cs),
(209,621,o),
(154,575,o),
(154,467,cs),
(154,233,ls),
(154,163,o),
(171,82,o),
(281,69,c),
(293,67,o),
(306,67,o),
(318,68,c),
(379,69,o),
(440,110,o),
(440,182,c),
(530,182,l),
(530,81,o),
(452,-8,o),
(305,-8,cs)
);
}
);
width = 600;
},
{
anchors = (
{
name = mark0;
position = "{300, 700}";
},
{
name = mark0.1;
position = "{536, 700}";
},
{
name = mark0.2;
position = "{300, 0}";
},
{
name = mark0.3;
position = "{300, 364}";
},
{
name = mark0.4;
position = "{300, 350}";
}
);
layerId = "0A6BB479-68DF-438A-AB6B-934827A2B9BB";
shapes = (
{
closed = 1;
nodes = (
(185,-8,o),
(74,42,o),
(74,205,cs),
(74,495,ls),
(74,586,o),
(112,708,o),
(297,708,cs),
(370,708,o),
(474,692,o),
(511,587,cs),
(517,570,o),
(520,552,o),
(520,535,c),
(499,535,l),
(499,612,o),
(440,674,o),
(345,686,cs),
(329,688,o),
(313,689,o),
(297,689,cs),
(202,689,o),
(95,646,o),
(95,495,cs),
(95,205,ls),
(95,109,o),
(140,11,o),
(297,11,cs),
(313,11,o),
(329,11,o),
(345,13,cs),
(416,22,o),
(499,68,o),
(499,165,c),
(520,165,l),
(520,55,o),
(423,-8,o),
(297,-8,c)
);
}
);
width = 600;
}
);
unicode = 67;
},
{
glyphname = D;
layers = (
{
anchors = (
{
name = mark0;
position = "{300, 700}";
},
{
name = mark0.1;
position = "{536, 700}";
},
{
name = mark0.2;
position = "{300, 0}";
},
{
name = mark0.3;
position = "{300, 364}";
},
{
name = mark0.4;
position = "{300, 350}";
}
);
layerId = "AC532A80-AEF9-404E-A94E-472F4CBCE5BB";
shapes = (
{
closed = 1;
nodes = (
(64,0,l),
(64,700,l),
(254,700,l),
(431,710,o),
(544,561,o),
(544,350,cs),
(544,225,o),
(510,75,o),
(366,19,cs),
(330,5,o),
(298,0,o),
(254,0,c)
);
},
{
closed = 1;
nodes = (
(210,120,l),
(254,120,ls),
(331,120,o),
(374,185,o),
(391,263,c),
(395,292,o),
(398,320,o),
(398,350,cs),
(398,429,o),
(386,522,o),
(316,563,c),
(297,575,o),
(276,580,o),
(254,580,cs),
(210,580,l)
);
}
);
width = 600;
},
{
anchors = (
{
name = mark0;
position = "{300, 700}";
},
{
name = mark0.1;
position = "{536, 700}";
},
{
name = mark0.2;
position = "{300, 0}";
},
{
name = mark0.3;
position = "{300, 364}";
},
{
name = mark0.4;
position = "{300, 350}";
}
);
layerId = "3EF66B8B-A4EF-422E-A8E2-9DC69E93467B";
shapes = (
{
closed = 1;
nodes = (
(72,0,l),
(72,700,l),
(258,700,l),
(403,706,o),
(536,597,o),
(536,350,cs),
(536,230,o),
(507,74,o),
(363,18,cs),
(328,4,o),
(297,0,o),
(258,0,cs)
);
},
{
closed = 1;
nodes = (
(162,75,l),
(222,75,ls),
(313,75,o),
(400,102,o),
(435,240,c),
(442,275,o),
(446,313,o),
(446,350,cs),
(446,444,o),
(428,561,o),
(332,608,cs),
(298,625,o),
(259,625,o),
(222,625,cs),
(162,625,l)
);
}
);
width = 600;
},
{
anchors = (
{
name = mark0;
position = "{300, 700}";
},
{
name = mark0.1;
position = "{536, 700}";
},
{
name = mark0.2;
position = "{300, 0}";
},
{
name = mark0.3;
position = "{300, 364}";
},
{
name = mark0.4;
position = "{300, 350}";
}
);
layerId = "0A6BB479-68DF-438A-AB6B-934827A2B9BB";
shapes = (
{
closed = 1;
nodes = (
(82,0,l),
(82,700,l),
(262,700,ls),
(368,700,o),
(526,642,o),
(526,350,cs),
(526,236,o),
(504,73,o),
(359,16,cs),
(326,3,o),
(295,0,o),
(262,0,c)
);
},
{
closed = 1;
nodes = (
(103,19,l),
(182,19,ls),
(290,19,o),
(433,-2,o),
(490,211,cs),
(501,253,o),
(505,304,o),
(505,350,cs),
(505,463,o),
(481,610,o),
(353,665,cs),
(300,688,o),
(237,681,o),
(182,681,cs),
(103,681,l)
);
}
);
width = 600;
}
);
unicode = 68;
},
{
glyphname = E;
layers = (
{
anchors = (
{
name = mark0;
position = "{300, 700}";
},
{
name = mark0.1;
position = "{536, 700}";
},
{
name = mark0.2;
position = "{300, 0}";
},
{
name = mark0.3;
position = "{536, 0}";
},
{
name = mark0.4;
position = "{300, 364}";
},
{
name = mark0.5;
position = "{300, 350}";
}
);
layerId = "AC532A80-AEF9-404E-A94E-472F4CBCE5BB";
shapes = (
{
closed = 1;
nodes = (
(72,0,l),
(72,700,l),
(536,700,l),
(536,580,l),
(218,580,l),
(218,424,l),
(465,424,l),
(465,304,l),
(218,304,l),
(218,120,l),
(536,120,l),
(536,0,l)
);
}
);
width = 600;
},
{
anchors = (
{
name = mark0;
position = "{300, 700}";
},
{
name = mark0.1;
position = "{536, 700}";
},
{
name = mark0.2;
position = "{300, 0}";
},
{
name = mark0.3;
position = "{536, 0}";
},
{
name = mark0.4;
position = "{300, 364}";
},
{
name = mark0.5;
position = "{300, 350}";
}
);
layerId = "3EF66B8B-A4EF-422E-A8E2-9DC69E93467B";
shapes = (
{
closed = 1;
nodes = (
(80,0,l),
(80,700,l),
(528,700,l),
(528,625,l),
(170,625,l),
(170,401,l),
(460,401,l),
(460,327,l),
(170,327,l),
(170,75,l),
(528,75,l),
(528,0,l)
);
}
);
width = 600;
},
{
anchors = (
{
name = mark0;
position = "{300, 700}";
},
{
name = mark0.1;
position = "{536, 700}";
},
{
name = mark0.2;
position = "{300, 0}";
},
{
name = mark0.3;
position = "{536, 0}";
},
{
name = mark0.4;
position = "{300, 364}";
},
{
name = mark0.5;
position = "{300, 350}";
}
);
layerId = "0A6BB479-68DF-438A-AB6B-934827A2B9BB";
shapes = (
{
closed = 1;
nodes = (
(90,0,l),
(90,700,l),
(518,700,l),
(518,681,l),
(111,681,l),
(111,373,l),
(453,373,l),
(453,355,l),
(111,355,l),
(111,19,l),
(518,19,l),
(518,0,l)
);
}
);
width = 600;
}
);
unicode = 69;
},
{
glyphname = F;
layers = (
{
anchors = (
{
name = mark0;
position = "{300, 700}";
},
{
name = mark0.1;
position = "{536, 700}";
},
{
name = mark0.2;
position = "{300, 0}";
},
{
name = mark0.3;
position = "{169, 0}";
},
{
name = mark0.4;
position = "{300, 364}";
},
{
name = mark0.5;
position = "{300, 350}";
}
);
layerId = "AC532A80-AEF9-404E-A94E-472F4CBCE5BB";
shapes = (
{
closed = 1;
nodes = (
(96,0,l),
(96,700,l),
(536,700,l),
(536,580,l),
(242,580,l),
(242,424,l),
(465,424,l),
(465,304,l),
(242,304,l),
(242,0,l)
);
}
);
width = 600;
},
{
anchors = (
{
name = mark0;
position = "{300, 700}";
},
{
name = mark0.1;
position = "{536, 700}";
},
{
name = mark0.2;
position = "{300, 0}";
},
{
name = mark0.3;
position = "{169, 0}";
},
{
name = mark0.4;
position = "{300, 364}";
},
{
name = mark0.5;
position = "{300, 350}";
}
);
layerId = "3EF66B8B-A4EF-422E-A8E2-9DC69E93467B";
shapes = (
{
closed = 1;
nodes = (
(108,0,l),
(108,700,l),
(528,700,l),
(528,625,l),
(198,625,l),
(198,401,l),
(460,401,l),
(460,327,l),
(198,327,l),
(198,0,l)
);
}
);
width = 600;
},
{
anchors = (
{
name = mark0;
position = "{300, 700}";
},
{
name = mark0.1;
position = "{536, 700}";
},
{
name = mark0.2;
position = "{300, 0}";
},
{
name = mark0.3;
position = "{169, 0}";
},
{
name = mark0.4;
position = "{300, 364}";
},
{
name = mark0.5;
position = "{300, 350}";
}
);
layerId = "0A6BB479-68DF-438A-AB6B-934827A2B9BB";
shapes = (
{
closed = 1;
nodes = (
(123,0,l),
(123,700,l),
(518,700,l),
(518,681,l),
(144,681,l),
(144,373,l),
(453,373,l),
(453,355,l),
(144,355,l),
(144,0,l)
);
}
);
width = 600;
}
);
unicode = 70;
},
{
glyphname = G;
layers = (
{
anchors = (
{
name = mark0;
position = "{300, 700}";
},
{
name = mark0.1;
position = "{536, 700}";
},
{
name = mark0.2;
position = "{300, 0}";
},
{
name = mark0.3;
position = "{300, 364}";
},
{
name = mark0.4;
position = "{300, 350}";
}
);
layerId = "AC532A80-AEF9-404E-A94E-472F4CBCE5BB";
shapes = (
{
closed = 1;
nodes = (
(307,-8,ls),
(196,-8,o),
(56,38,o),
(56,226,cs),
(56,474,ls),
(56,580,o),
(105,708,o),
(297,708,cs),
(387,708,o),
(486,680,o),
(523,585,cs),
(533,559,o),
(538,533,o),
(538,505,c),
(392,505,l),
(392,550,o),
(358,593,o),
(297,588,c),
(196,595,o),
(202,477,o),
(202,398,cs),
(202,264,ls),
(202,206,o),
(195,112,o),
(307,112,cs),
(334,112,o),
(364,116,o),
(390,125,c),
(390,274,l),
(300,274,l),
(300,394,l),
(536,394,l),
(536,56,l),
(473,18,o),
(398,-4,o),
(325,-8,c)
);
}
);
width = 600;
},
{
anchors = (
{
name = mark0;
position = "{300, 700}";
},
{
name = mark0.1;
position = "{536, 700}";
},
{
name = mark0.2;
position = "{300, 0}";
},
{
name = mark0.3;
position = "{300, 364}";
},
{
name = mark0.4;
position = "{300, 350}";
}
);
layerId = "3EF66B8B-A4EF-422E-A8E2-9DC69E93467B";
shapes = (
{
closed = 1;
nodes = (
(307,-8,ls),
(195,-8,o),
(64,39,o),
(64,217,cs),
(64,483,ls),
(64,583,o),
(108,708,o),
(297,708,cs),
(379,708,o),
(481,685,o),
(518,586,cs),
(526,564,o),
(530,541,o),
(530,518,c),
(440,518,l),
(440,584,o),
(386,636,o),
(297,633,c),
(199,637,o),
(154,552,o),
(154,441,cs),
(154,238,ls),
(154,166,o),
(167,67,o),
(307,67,cs),
(351,67,o),
(396,76,o),
(438,93,c),
(438,308,l),
(300,308,l),
(300,383,l),
(528,383,l),
(528,50,l),
(464,14,o),
(390,-6,o),
(317,-8,c)
);
}
);
width = 600;
},
{
anchors = (
{
name = mark0;
position = "{300, 700}";
},
{
name = mark0.1;
position = "{536, 700}";
},
{
name = mark0.2;
position = "{300, 0}";
},
{
name = mark0.3;
position = "{300, 364}";
},
{
name = mark0.4;
position = "{300, 350}";
}
);
layerId = "0A6BB479-68DF-438A-AB6B-934827A2B9BB";
shapes = (
{
closed = 1;
nodes = (
(194,-8,o),
(74,40,o),
(74,205,cs),
(74,495,ls),
(74,586,o),
(112,708,o),
(297,708,cs),
(370,708,o),
(474,692,o),
(511,587,cs),
(517,570,o),
(520,552,o),
(520,535,c),
(499,535,l),
(499,627,o),
(420,689,o),
(297,689,cs),
(202,689,o),
(95,646,o),
(95,495,cs),
(95,205,ls),
(95,117,o),
(132,11,o),
(308,11,cs),
(373,11,o),
(437,26,o),
(497,54,c),
(497,350,l),
(300,350,l),
(300,369,l),
(518,369,l),
(518,42,l),
(453,10,o),
(379,-8,o),
(308,-8,c)
);
}
);
width = 600;
}
);
unicode = 71;
},
{
glyphname = H;
layers = (
{
anchors = (
{
name = mark0;
position = "{300, 700}";
},
{
name = mark0.1;
position = "{536, 700}";
},
{
name = mark0.2;
position = "{300, 0}";
},
{
name = mark0.3;
position = "{300, 364}";
},
{
name = mark0.4;
position = "{300, 350}";
}
);
layerId = "AC532A80-AEF9-404E-A94E-472F4CBCE5BB";
shapes = (
{
closed = 1;
nodes = (
(64,0,l),
(64,700,l),
(210,700,l),
(210,417,l),
(390,417,l),
(390,700,l),
(536,700,l),
(536,0,l),
(390,0,l),
(390,297,l),
(210,297,l),
(210,0,l)
);
}
);
width = 600;
},
{
anchors = (
{
name = mark0;
position = "{300, 700}";
},
{
name = mark0.1;
position = "{536, 700}";
},
{
name = mark0.2;
position = "{300, 0}";
},
{
name = mark0.3;
position = "{300, 364}";
},
{
name = mark0.4;
position = "{300, 350}";
}
);
layerId = "3EF66B8B-A4EF-422E-A8E2-9DC69E93467B";
shapes = (
{
closed = 1;
nodes = (
(72,0,l),
(72,700,l),
(162,700,l),
(162,398,l),
(438,398,l),
(438,700,l),
(528,700,l),
(528,0,l),
(438,0,l),
(438,323,l),
(162,323,l),
(162,0,l)
);
}
);
width = 600;
},
{
anchors = (
{
name = mark0;
position = "{300, 700}";
},
{
name = mark0.1;
position = "{536, 700}";
},
{
name = mark0.2;
position = "{300, 0}";
},
{
name = mark0.3;
position = "{300, 364}";
},
{
name = mark0.4;
position = "{300, 350}";
}
);
layerId = "0A6BB479-68DF-438A-AB6B-934827A2B9BB";
shapes = (
{
closed = 1;
nodes = (
(82,0,l),
(82,700,l),
(103,700,l),
(103,375,l),
(497,375,l),
(497,700,l),
(518,700,l),
(518,0,l),
(497,0,l),
(497,356,l),
(103,356,l),
(103,0,l)
);
}
);
width = 600;
}
);
unicode = 72;
},
{
glyphname = I;
layers = (
{
anchors = (
{
name = mark0;
position = "{150, 700}";
},
{
name = mark0.1;
position = "{236, 700}";
},
{
name = mark0.2;
position = "{150, 0}";
},
{
name = mark0.3;
position = "{223, 0}";
},
{
name = mark0.4;
position = "{150, 364}";
},
{
name = mark0.5;
position = "{150, 350}";
}
);
layerId = "AC532A80-AEF9-404E-A94E-472F4CBCE5BB";
shapes = (
{
closed = 1;
nodes = (
(77,0,l),
(77,700,l),
(223,700,l),
(223,0,l)
);
}
);
width = 300;
},
{
anchors = (
{
name = mark0;
position = "{150, 700}";
},
{
name = mark0.1;
position = "{236, 700}";
},
{
name = mark0.2;
position = "{150, 0}";
},
{
name = mark0.3;
position = "{223, 0}";
},
{
name = mark0.4;
position = "{150, 364}";
},
{
name = mark0.5;
position = "{150, 350}";
}
);
layerId = "3EF66B8B-A4EF-422E-A8E2-9DC69E93467B";
shapes = (
{
closed = 1;
nodes = (
(105,0,l),
(105,700,l),
(195,700,l),
(195,0,l)
);
}
);
width = 300;
},
{
anchors = (
{
name = mark0;
position = "{150, 700}";
},
{
name = mark0.1;
position = "{236, 700}";
},
{
name = mark0.2;
position = "{150, 0}";
},
{
name = mark0.3;
position = "{223, 0}";
},
{
name = mark0.4;
position = "{150, 364}";
},
{
name = mark0.5;
position = "{150, 350}";
}
);
layerId = "0A6BB479-68DF-438A-AB6B-934827A2B9BB";
shapes = (
{
closed = 1;
nodes = (
(140,0,l),
(140,700,l),
(160,700,l),
(160,0,l)
);
}
);
width = 300;
}
);
unicode = 73;
},
{
glyphname = J;
layers = (
{
anchors = (
{
name = t._1510;
position = "{389, 700}";
},
{
name = m.uni031B;
position = "{536, 700}";
},
{
name = m._1519;
position = "{300, 0}";
},
{
name = m.uni0335;
position = "{389, 364}";
},
{
name = m.uni0336;
position = "{300, 350}";
}
);
layerId = "AC532A80-AEF9-404E-A94E-472F4CBCE5BB";
shapes = (
{
closed = 1;
nodes = (
(149,-8,o),
(46,58,o),
(46,191,cs),
(46,195,l),
(192,195,l),
(192,193,ls),
(192,143,o),
(222,112,o),
(272,112,c),
(335,114,o),
(352,173,o),
(352,226,cs),
(352,700,l),
(498,700,l),
(498,226,l),
(500,82,o),
(417,-8,o),
(272,-8,cs)
);
}
);
width = 600;
},
{
anchors = (
{
name = t._1510;
position = "{432, 700}";
},
{
name = m.uni031B;
position = "{528, 700}";
},
{
name = m._1519;
position = "{300, 0}";
},
{
name = m.uni0335;
position = "{432, 364}";
},
{
name = m.uni0336;
position = "{300, 350}";
}
);
layerId = "3EF66B8B-A4EF-422E-A8E2-9DC69E93467B";
shapes = (
{
closed = 1;
nodes = (
(161,-8,o),
(52,49,o),
(52,178,cs),
(52,182,l),
(143,182,l),
(143,180,l),
(145,104,o),
(208,72,o),
(276,72,cs),
(360,72,o),
(409,121,o),
(409,205,cs),
(409,700,l),
(500,700,l),
(500,205,ls),
(500,65,o),
(412,-8,o),
(276,-8,cs)
);
}
);
width = 600;
},
{
anchors = (
{
name = mark0;
position = "{389, 700}";
},
{
name = mark0.1;
position = "{536, 700}";
},
{
name = mark0.2;
position = "{300, 0}";
},
{
name = mark0.3;
position = "{389, 364}";
},
{
name = mark0.4;
position = "{300, 350}";
}
);
layerId = "0A6BB479-68DF-438A-AB6B-934827A2B9BB";
shapes = (
{
closed = 1;
nodes = (
(186,-8,o),
(58,28,o),
(59,165,c),
(59,165,l),
(80,165,l),
(80,165,l),
(80,54,o),
(182,11,o),
(282,11,cs),
(409,11,o),
(485,79,o),
(485,205,cs),
(485,700,l),
(505,700,l),
(505,205,ls),
(505,94,o),
(446,-8,o),
(282,-8,cs)
);
}
);
width = 600;
}
);
unicode = 74;
},
{
glyphname = K;
layers = (
{
anchors = (
{
name = mark0;
position = "{300, 700}";
},
{
name = mark0.1;
position = "{536, 700}";
},
{
name = mark0.2;
position = "{300, 0}";
},
{
name = mark0.3;
position = "{561, 0}";
},
{
name = mark0.4;
position = "{300, 364}";
},
{
name = mark0.5;
position = "{300, 350}";
}
);
layerId = "AC532A80-AEF9-404E-A94E-472F4CBCE5BB";
shapes = (
{
closed = 1;
nodes = (
(403,0,l),
(265,266,l),
(228,212,l),
(228,0,l),
(83,0,l),
(83,700,l),
(228,700,l),
(228,424,l),
(398,700,l),
(561,700,l),
(343,380,l),
(561,0,l)
);
}
);
width = 600;
},
{
anchors = (
{
name = mark0;
position = "{300, 700}";
},
{
name = mark0.1;
position = "{536, 700}";
},
{
name = mark0.2;
position = "{300, 0}";
},
{
name = mark0.3;
position = "{561, 0}";
},
{
name = mark0.4;
position = "{300, 364}";
},
{
name = mark0.5;
position = "{300, 350}";
}
);
layerId = "3EF66B8B-A4EF-422E-A8E2-9DC69E93467B";
shapes = (
{
closed = 1;
nodes = (
(443,0,l),
(241,313,l),
(180,241,l),
(180,0,l),
(91,0,l),
(91,700,l),
(180,700,l),
(180,372,l),
(439,700,l),
(541,700,l),
(290,383,l),
(541,0,l)
);
}
);
width = 600;
},
{
anchors = (
{
name = mark0;
position = "{300, 700}";
},
{
name = mark0.1;
position = "{536, 700}";
},
{
name = mark0.2;
position = "{300, 0}";
},
{
name = mark0.3;
position = "{561, 0}";
},
{
name = mark0.4;
position = "{300, 364}";
},
{
name = mark0.5;
position = "{300, 350}";
}
);
layerId = "0A6BB479-68DF-438A-AB6B-934827A2B9BB";
shapes = (
{
closed = 1;
nodes = (
(492,0,l),
(210,371,l),
(121,277,l),
(121,0,l),
(101,0,l),
(101,700,l),
(121,700,l),
(121,306,l),
(490,700,l),
(517,700,l),
(224,386,l),
(517,0,l)
);
}
);
width = 600;
}
);
unicode = 75;
},
{
glyphname = L;
layers = (
{
anchors = (
{
name = mark0;
position = "{300, 700}";
},
{
name = mark0.1;
position = "{169, 700}";
},
{
name = mark0.2;
position = "{536, 700}";
},
{
name = mark0.3;
position = "{300, 0}";
},
{
name = mark0.4;
position = "{300, 364}";
},
{
name = mark0.5;
position = "{300, 350}";
}
);
layerId = "AC532A80-AEF9-404E-A94E-472F4CBCE5BB";
shapes = (
{
closed = 1;
nodes = (
(96,0,l),
(96,700,l),
(242,700,l),
(242,120,l),
(542,120,l),
(542,0,l)
);
}
);
width = 600;
},
{
anchors = (
{
name = mark0;
position = "{300, 700}";
},
{
name = mark0.1;
position = "{169, 700}";
},
{
name = mark0.2;
position = "{536, 700}";
},
{
name = mark0.3;
position = "{300, 0}";
},
{
name = mark0.4;
position = "{300, 364}";
},
{
name = mark0.5;
position = "{300, 350}";
}
);
layerId = "3EF66B8B-A4EF-422E-A8E2-9DC69E93467B";
shapes = (
{
closed = 1;
nodes = (
(108,0,l),
(108,700,l),
(198,700,l),
(198,75,l),
(534,75,l),
(534,0,l)
);
}
);
width = 600;
},
{
anchors = (
{
name = mark0;
position = "{300, 700}";
},
{
name = mark0.1;
position = "{169, 700}";
},
{
name = mark0.2;
position = "{536, 700}";
},
{
name = mark0.3;
position = "{300, 0}";
},
{
name = mark0.4;
position = "{300, 364}";
},
{
name = mark0.5;
position = "{300, 350}";
}
);
layerId = "0A6BB479-68DF-438A-AB6B-934827A2B9BB";
shapes = (
{
closed = 1;
nodes = (
(123,0,l),
(123,700,l),
(144,700,l),
(144,19,l),
(524,19,l),
(524,0,l)
);
}
);
width = 600;
}
);
unicode = 76;
},
{
glyphname = M;
layers = (
{
anchors = (
{
name = mark0;
position = "{400, 700}";
},
{
name = mark0.1;
position = "{736, 700}";
},
{
name = mark0.2;
position = "{400, 0}";
},
{
name = mark0.3;
position = "{400, 364}";
},
{
name = mark0.4;
position = "{400, 350}";
}
);
layerId = "AC532A80-AEF9-404E-A94E-472F4CBCE5BB";
shapes = (
{
closed = 1;
nodes = (
(64,0,l),
(70,140,l),
(76,327,o),
(92,512,o),
(92,700,c),
(278,700,l),
(400,312,l),
(522,700,l),
(708,700,l),
(708,512,o),
(722,327,o),
(730,140,cs),
(736,0,l),
(590,0,l),
(585,140,ls),
(581,238,o),
(578,333,o),
(578,430,cs),
(578,451,o),
(579,472,o),
(579,493,c),
(461,118,l),
(339,118,l),
(221,493,l),
(221,472,o),
(222,451,o),
(222,430,cs),
(222,334,o),
(218,236,o),
(215,140,cs),
(210,0,l)
);
}
);
width = 800;
},
{
anchors = (
{
name = mark0;
position = "{400, 700}";
},
{
name = mark0.1;
position = "{736, 700}";
},
{
name = mark0.2;
position = "{400, 0}";
},
{
name = mark0.3;
position = "{400, 364}";
},
{
name = mark0.4;
position = "{400, 350}";
}
);
layerId = "3EF66B8B-A4EF-422E-A8E2-9DC69E93467B";
shapes = (
{
closed = 1;
nodes = (
(72,0,l),
(78,140,l),
(84,326,o),
(100,512,o),
(100,700,c),
(217,700,l),
(400,236,l),
(583,700,l),
(700,700,l),
(700,512,o),
(714,326,o),
(722,140,cs),
(728,0,l),
(638,0,l),
(633,140,ls),
(629,247,o),
(622,353,o),
(620,460,cs),
(619,499,o),
(619,537,o),
(619,575,c),
(438,118,l),
(362,118,l),
(181,575,l),
(181,559,o),
(182,543,o),
(182,527,c),
(181,398,o),
(172,268,o),
(167,140,cs),
(162,0,l)
);
}
);
width = 800;
},
{
anchors = (
{
name = mark0;
position = "{400, 700}";
},
{
name = mark0.1;
position = "{736, 700}";
},
{
name = mark0.2;
position = "{400, 0}";
},
{
name = mark0.3;
position = "{400, 364}";
},
{
name = mark0.4;
position = "{400, 350}";
}
);
layerId = "0A6BB479-68DF-438A-AB6B-934827A2B9BB";
shapes = (
{
closed = 1;
nodes = (
(82,0,l),
(88,140,l),
(94,325,o),
(110,512,o),
(110,700,c),
(141,700,l),
(400,140,l),
(659,700,l),
(690,700,l),
(690,512,o),
(704,325,o),
(712,140,cs),
(718,0,l),
(697,0,l),
(692,140,ls),
(688,258,o),
(677,378,o),
(673,498,cs),
(671,558,o),
(668,618,o),
(669,678,c),
(410,118,l),
(390,118,l),
(131,678,l),
(131,668,o),
(131,658,o),
(131,648,cs),
(129,477,o),
(114,307,o),
(108,140,cs),
(103,0,l)
);
}
);
width = 800;
}
);
unicode = 77;
},
{
glyphname = N;
layers = (
{
anchors = (
{
name = mark0;
position = "{300, 700}";
},
{
name = mark0.1;
position = "{536, 700}";
},
{
name = mark0.2;
position = "{300, 0}";
},
{
name = mark0.3;
position = "{488, 0}";
},
{
name = mark0.4;
position = "{300, 364}";
},
{
name = mark0.5;
position = "{300, 350}";
}
);
layerId = "AC532A80-AEF9-404E-A94E-472F4CBCE5BB";
shapes = (
{
closed = 1;
nodes = (
(64,0,l),
(64,700,l),
(206,700,l),
(407,230,l),
(396,293,o),
(390,356,o),
(390,420,cs),
(390,700,l),
(536,700,l),
(536,0,l),
(394,0,l),
(193,470,l),
(204,407,o),
(210,344,o),
(210,280,cs),
(210,0,l)
);
}
);
width = 600;
},
{
anchors = (
{
name = mark0;
position = "{300, 700}";
},
{
name = mark0.1;
position = "{536, 700}";
},
{
name = mark0.2;
position = "{300, 0}";
},
{
name = mark0.3;
position = "{488, 0}";
},
{
name = mark0.4;
position = "{300, 364}";
},
{
name = mark0.5;
position = "{300, 350}";
}
);
layerId = "3EF66B8B-A4EF-422E-A8E2-9DC69E93467B";
shapes = (
{
closed = 1;
nodes = (
(72,0,l),
(72,700,l),
(164,700,l),
(447,138,l),
(441,213,o),
(438,288,o),
(438,364,cs),
(438,700,l),
(528,700,l),
(528,0,l),
(436,0,l),
(153,562,l),
(159,487,o),
(162,412,o),
(162,336,cs),
(162,0,l)
);
}
);
width = 600;
},
{
anchors = (
{
name = mark0;
position = "{300, 700}";
},
{
name = mark0.1;
position = "{536, 700}";
},
{
name = mark0.2;
position = "{300, 0}";
},
{
name = mark0.3;
position = "{488, 0}";
},
{
name = mark0.4;
position = "{300, 364}";
},
{
name = mark0.5;
position = "{300, 350}";
}
);
layerId = "0A6BB479-68DF-438A-AB6B-934827A2B9BB";
shapes = (
{
closed = 1;
nodes = (
(82,0,l),
(82,700,l),
(112,700,l),
(497,23,l),
(497,113,o),
(497,204,o),
(497,294,cs),
(497,700,l),
(518,700,l),
(518,0,l),
(488,0,l),
(103,677,l),
(103,587,o),
(103,496,o),
(103,406,cs),
(103,0,l)
);
}
);
width = 600;
}
);
unicode = 78;
},
{
glyphname = O;
layers = (
{
anchors = (
{
name = mark0;
position = "{300, 700}";
},
{
name = mark0.1;
position = "{536, 700}";
},
{
name = mark0.2;
position = "{300, 0}";
},
{
name = mark0.3;
position = "{300, 364}";
},
{
name = mark0.4;
position = "{300, 350}";
}
);
layerId = "AC532A80-AEF9-404E-A94E-472F4CBCE5BB";
shapes = (
{
closed = 1;
nodes = (
(184,-8,o),
(56,45,o),
(56,226,cs),
(56,474,ls),
(56,585,o),
(113,708,o),
(300,708,cs),
(416,708,o),
(544,655,o),
(544,474,cs),
(544,226,ls),
(544,112,o),
(486,-8,o),
(300,-8,cs)
);
},
{
closed = 1;
nodes = (
(300,112,l),
(390,103,o),
(398,210,o),
(398,251,cs),
(398,449,ls),
(398,483,o),
(403,599,o),
(300,588,c),
(204,597,o),
(202,480,o),
(202,449,cs),
(202,251,ls),
(202,216,o),
(197,112,o),
(287,112,cs)
);
}
);
width = 600;
},
{
anchors = (
{
name = mark0;
position = "{300, 700}";
},
{
name = mark0.1;
position = "{536, 700}";
},
{
name = mark0.2;
position = "{300, 0}";
},
{
name = mark0.3;
position = "{300, 364}";
},
{
name = mark0.4;
position = "{300, 350}";
}
);
layerId = "3EF66B8B-A4EF-422E-A8E2-9DC69E93467B";
shapes = (
{
closed = 1;
nodes = (
(188,-8,o),
(64,42,o),
(64,217,cs),
(64,483,ls),
(64,584,o),
(112,708,o),
(300,708,cs),
(408,708,o),
(536,659,o),
(536,483,cs),
(536,217,ls),
(536,104,o),
(477,-8,o),
(300,-8,cs)
);
},
{
closed = 1;
nodes = (
(300,67,l),
(386,62,o),
(446,134,o),
(446,231,cs),
(446,469,ls),
(446,530,o),
(427,639,o),
(300,633,c),
(203,638,o),
(154,553,o),
(154,469,cs),
(154,231,ls),
(154,171,o),
(170,67,o),
(293,67,cs)
);
}
);
width = 600;
},
{
anchors = (
{
name = mark0;
position = "{300, 700}";
},
{
name = mark0.1;
position = "{536, 700}";
},
{
name = mark0.2;
position = "{300, 0}";
},
{
name = mark0.3;
position = "{300, 364}";
},
{
name = mark0.4;
position = "{300, 350}";
}
);
layerId = "0A6BB479-68DF-438A-AB6B-934827A2B9BB";
shapes = (
{
closed = 1;
nodes = (
(192,-8,o),
(74,38,o),
(74,205,cs),
(74,495,ls),
(74,583,o),
(111,708,o),
(300,708,cs),
(399,708,o),
(526,664,o),
(526,495,cs),
(526,205,ls),
(526,93,o),
(466,-8,o),
(300,-8,cs)
);
},
{
closed = 1;
nodes = (
(380,11,o),
(505,38,o),
(505,205,cs),
(505,495,ls),
(505,588,o),
(457,689,o),
(300,689,cs),
(201,689,o),
(95,645,o),
(95,495,cs),
(95,205,ls),
(95,114,o),
(137,11,o),
(300,11,c)
);
}
);
width = 600;
}
);
unicode = 79;
},
{
glyphname = P;
layers = (
{
anchors = (
{
name = mark0;
position = "{300, 700}";
},
{
name = mark0.1;
position = "{536, 700}";
},
{
name = mark0.2;
position = "{300, 0}";
},
{
name = mark0.3;
position = "{153, 0}";
},
{
name = mark0.4;
position = "{300, 364}";
},
{
name = mark0.5;
position = "{300, 350}";
}
);
layerId = "AC532A80-AEF9-404E-A94E-472F4CBCE5BB";
shapes = (
{
closed = 1;
nodes = (
(80,0,l),
(80,700,l),
(330,700,ls),
(414,700,o),
(537,667,o),
(550,513,cs),
(551,501,o),
(552,489,o),
(552,477,c),
(552,365,o),
(493,255,o),
(330,255,cs),
(226,255,l),
(226,0,l)
);
},
{
closed = 1;
nodes = (
(226,374,l),
(317,374,ls),
(352,374,o),
(416,389,o),
(406,477,c),
(413,545,o),
(369,580,o),
(317,580,cs),
(226,580,l)
);
}
);
width = 600;
},
{
anchors = (
{
name = mark0;
position = "{300, 700}";
},
{
name = mark0.1;
position = "{536, 700}";
},
{
name = mark0.2;
position = "{300, 0}";
},
{
name = mark0.3;
position = "{153, 0}";
},
{
name = mark0.4;
position = "{300, 364}";
},
{
name = mark0.5;
position = "{300, 350}";
}
);
layerId = "3EF66B8B-A4EF-422E-A8E2-9DC69E93467B";
shapes = (
{
closed = 1;
nodes = (
(90,0,l),
(90,700,l),
(332,700,ls),
(417,700,o),
(536,666,o),
(543,512,c),
(543,497,o),
(543,482,o),
(542,469,cs),
(534,370,o),
(473,284,o),
(332,284,cs),
(180,284,l),
(180,0,l)
);
},
{
closed = 1;
nodes = (
(180,358,l),
(325,358,ls),
(379,358,o),
(459,381,o),
(454,492,c),
(457,564,o),
(417,625,o),
(325,625,cs),
(180,625,l)
);
}
);
width = 600;
},
{
anchors = (
{
name = mark0;
position = "{300, 700}";
},
{
name = mark0.1;
position = "{536, 700}";
},
{
name = mark0.2;
position = "{300, 0}";
},
{
name = mark0.3;
position = "{153, 0}";
},
{
name = mark0.4;
position = "{300, 364}";
},
{
name = mark0.5;
position = "{300, 350}";
}
);
layerId = "0A6BB479-68DF-438A-AB6B-934827A2B9BB";
shapes = (
{
closed = 1;
nodes = (
(103,0,l),
(103,700,l),
(335,700,ls),
(420,700,o),
(534,664,o),
(534,510,cs),
(534,492,o),
(531,474,o),
(529,458,c),
(511,377,o),
(447,320,o),
(335,320,cs),
(123,320,l),
(123,0,l)
);
},
{
closed = 1;
nodes = (
(123,339,l),
(335,339,ls),
(412,339,o),
(513,372,o),
(513,510,cs),
(513,587,o),
(476,681,o),
(335,681,cs),
(123,681,l)
);
}
);
width = 600;
}
);
unicode = 80;
},
{
glyphname = Q;
layers = (
{
anchors = (
{
name = mark0;
position = "{300, 700}";
},
{
name = mark0.1;
position = "{536, 700}";
},
{
name = mark0.2;
position = "{300, -205}";
},
{
name = mark0.3;
position = "{300, 266}";
},
{
name = mark0.4;
position = "{300, 248}";
}
);
layerId = "AC532A80-AEF9-404E-A94E-472F4CBCE5BB";
shapes = (
{
closed = 1;
nodes = (
(439,-195,ls),
(343,-195,o),
(244,-144,o),
(244,-4,c),
(143,3,o),
(68,91,o),
(56,191,cs),
(55,203,o),
(55,214,o),
(56,226,c),
(56,474,ls),
(56,588,o),
(114,708,o),
(300,708,cs),
(416,708,o),
(544,654,o),
(544,474,cs),
(544,226,l),
(550,135,o),
(490,20,o),
(389,3,c),
(389,-28,o),
(396,-75,o),
(439,-75,cs),
(470,-75,l),
(470,-195,l)
);
},
{
closed = 1;
nodes = (
(300,112,l),
(390,103,o),
(398,210,o),
(398,251,cs),
(398,449,ls),
(398,483,o),
(403,599,o),
(300,588,c),
(204,597,o),
(202,480,o),
(202,449,cs),
(202,251,ls),
(202,216,o),
(197,112,o),
(287,112,cs)
);
}
);
width = 600;
},
{
anchors = (
{
name = mark0;
position = "{300, 700}";
},
{
name = mark0.1;
position = "{536, 700}";
},
{
name = mark0.2;
position = "{300, -205}";
},
{
name = mark0.3;
position = "{300, 266}";
},
{
name = mark0.4;
position = "{300, 248}";
}
);
layerId = "3EF66B8B-A4EF-422E-A8E2-9DC69E93467B";
shapes = (
{
closed = 1;
nodes = (
(446,-182,ls),
(359,-182,o),
(264,-137,o),
(264,-6,c),
(160,0,o),
(71,69,o),
(64,197,cs),
(63,209,o),
(63,221,o),
(64,233,c),
(64,483,ls),
(64,586,o),
(113,708,o),
(300,708,cs),
(408,708,o),
(536,658,o),
(536,483,cs),
(536,233,l),
(539,135,o),
(501,12,o),
(354,-2,c),
(354,-52,o),
(379,-107,o),
(446,-107,cs),
(470,-107,l),
(470,-182,l)
);
},
{
closed = 1;
nodes = (
(300,67,l),
(386,62,o),
(446,134,o),
(446,231,cs),
(446,469,ls),
(446,530,o),
(427,639,o),
(300,633,c),
(203,638,o),
(154,553,o),
(154,469,cs),
(154,231,ls),
(154,171,o),
(170,67,o),
(293,67,cs)
);
}
);
width = 600;
},
{
anchors = (
{
name = mark0;
position = "{300, 700}";
},
{
name = mark0.1;
position = "{536, 700}";
},
{
name = mark0.2;
position = "{300, -205}";
},
{
name = mark0.3;
position = "{300, 266}";
},
{
name = mark0.4;
position = "{300, 248}";
}
);
layerId = "0A6BB479-68DF-438A-AB6B-934827A2B9BB";
shapes = (
{
closed = 1;
nodes = (
(455,-165,ls),
(378,-165,o),
(290,-128,o),
(290,-8,c),
(181,-3,o),
(74,42,o),
(74,205,cs),
(74,217,o),
(74,229,o),
(74,241,cs),
(74,495,ls),
(74,583,o),
(111,708,o),
(300,708,cs),
(399,708,o),
(526,664,o),
(526,495,cs),
(526,241,ls),
(526,134,o),
(515,3,o),
(310,-8,c),
(310,-81,o),
(357,-146,o),
(455,-146,cs),
(470,-146,l),
(470,-165,l)
);
},
{
closed = 1;
nodes = (
(380,11,o),
(505,38,o),
(505,205,cs),
(505,495,ls),
(505,588,o),
(457,689,o),
(300,689,cs),
(201,689,o),
(95,645,o),
(95,495,cs),
(95,205,ls),
(95,114,o),
(137,11,o),
(300,11,c)
);
}
);
width = 600;
}
);
unicode = 81;
},
{
glyphname = R;
layers = (
{
anchors = (
{
name = mark0;
position = "{300, 700}";
},
{
name = mark0.1;
position = "{536, 700}";
},
{
name = mark0.2;
position = "{300, 0}";
},
{
name = mark0.3;
position = "{300, 364}";
},
{
name = mark0.4;
position = "{300, 350}";
}
);
layerId = "AC532A80-AEF9-404E-A94E-472F4CBCE5BB";
shapes = (
{
closed = 1;
nodes = (
(64,0,l),
(64,700,l),
(330,700,ls),
(426,700,o),
(530,654,o),
(542,513,cs),
(543,501,o),
(544,489,o),
(544,477,cs),
(546,394,o),
(505,294,o),
(413,266,c),
(560,0,l),
(401,0,l),
(260,255,l),
(210,255,l),
(210,0,l)
);
},
{
closed = 1;
nodes = (
(330,374,ls),
(374,374,o),
(403,424,o),
(398,477,c),
(403,544,o),
(370,580,o),
(315,580,cs),
(210,580,l),
(210,374,l)
);
}
);
width = 600;
},
{
anchors = (
{
name = mark0;
position = "{300, 700}";
},
{
name = mark0.1;
position = "{536, 700}";
},
{
name = mark0.2;
position = "{300, 0}";
},
{
name = mark0.3;
position = "{300, 364}";
},
{
name = mark0.4;
position = "{300, 350}";
}
);
layerId = "3EF66B8B-A4EF-422E-A8E2-9DC69E93467B";
shapes = (
{
closed = 1;
nodes = (
(72,0,l),
(72,700,l),
(332,700,ls),
(425,700,o),
(528,655,o),
(535,512,c),
(535,496,o),
(535,482,o),
(534,469,cs),
(528,381,o),
(470,306,o),
(372,290,c),
(552,0,l),
(453,0,l),
(276,284,l),
(162,284,l),
(162,0,l)
);
},
{
closed = 1;
nodes = (
(332,358,ls),
(390,358,o),
(448,401,o),
(446,492,c),
(448,564,o),
(413,625,o),
(324,625,cs),
(162,625,l),
(162,358,l)
);
}
);
width = 600;
},
{
anchors = (
{
name = mark0;
position = "{300, 700}";
},
{
name = mark0.1;
position = "{536, 700}";
},
{
name = mark0.2;
position = "{300, 0}";
},
{
name = mark0.3;
position = "{300, 364}";
},
{
name = mark0.4;
position = "{300, 350}";
}
);
layerId = "0A6BB479-68DF-438A-AB6B-934827A2B9BB";
shapes = (
{
closed = 1;
nodes = (
(82,0,l),
(82,700,l),
(335,700,ls),
(424,700,o),
(526,656,o),
(526,510,cs),
(526,490,o),
(523,474,o),
(521,459,cs),
(505,364,o),
(426,320,o),
(321,320,c),
(542,0,l),
(518,0,l),
(296,320,l),
(103,320,l),
(103,0,l)
);
},
{
closed = 1;
nodes = (
(335,339,ls),
(411,339,o),
(505,372,o),
(505,510,cs),
(505,589,o),
(467,681,o),
(335,681,cs),
(103,681,l),
(103,339,l)
);
}
);
width = 600;
}
);
unicode = 82;
},
{
glyphname = S;
layers = (
{
anchors = (
{
name = mark0;
position = "{300, 700}";
},
{
name = mark0.1;
position = "{536, 700}";
},
{
name = mark0.2;
position = "{300, 0}";
},
{
name = mark0.3;
position = "{300, 364}";
},
{
name = mark0.4;
position = "{300, 350}";
}
);
layerId = "AC532A80-AEF9-404E-A94E-472F4CBCE5BB";
shapes = (
{
closed = 1;
nodes = (
(299,-8,ls),
(192,-8,o),
(54,37,o),
(54,185,cs),
(54,195,l),
(200,195,l),
(200,191,ls),
(200,163,o),
(222,102,o),
(299,112,c),
(343,107,o),
(399,132,o),
(399,183,c),
(399,183,o),
(399,183,o),
(399,183,c),
(399,251,o),
(317,275,o),
(286,288,c),
(187,323,o),
(64,384,o),
(64,518,cs),
(64,635,o),
(164,708,o),
(301,708,cs),
(385,708,o),
(483,684,o),
(524,587,c),
(534,566,o),
(538,538,o),
(538,515,cs),
(538,505,l),
(392,505,l),
(392,509,ls),
(392,545,o),
(361,595,o),
(301,588,c),
(257,594,o),
(209,565,o),
(209,518,cs),
(209,453,o),
(276,431,o),
(322,412,cs),
(418,374,o),
(544,319,o),
(544,182,cs),
(544,69,o),
(445,-8,o),
(311,-8,cs)
);
}
);
width = 600;
},
{
anchors = (
{
name = mark0;
position = "{300, 700}";
},
{
name = mark0.1;
position = "{536, 700}";
},
{
name = mark0.2;
position = "{300, 0}";
},
{
name = mark0.3;
position = "{300, 364}";
},
{
name = mark0.4;
position = "{300, 350}";
}
);
layerId = "3EF66B8B-A4EF-422E-A8E2-9DC69E93467B";
shapes = (
{
closed = 1;
nodes = (
(299,-8,ls),
(195,-8,o),
(62,33,o),
(62,175,cs),
(62,182,l),
(152,182,l),
(152,177,ls),
(152,119,o),
(203,62,o),
(299,67,c),
(353,64,o),
(426,84,o),
(443,155,c),
(445,161,o),
(447,168,o),
(447,175,cs),
(447,265,o),
(329,298,o),
(287,313,cs),
(190,346,o),
(72,400,o),
(72,525,cs),
(72,637,o),
(168,708,o),
(301,708,cs),
(383,708,o),
(479,685,o),
(518,589,cs),
(526,570,o),
(530,546,o),
(530,525,cs),
(530,518,l),
(440,518,l),
(440,523,ls),
(440,586,o),
(382,637,o),
(301,633,c),
(237,636,o),
(161,604,o),
(161,525,cs),
(161,438,o),
(261,408,o),
(321,387,cs),
(415,354,o),
(536,299,o),
(536,175,cs),
(536,57,o),
(427,-8,o),
(306,-8,cs)
);
}
);
width = 600;
},
{
anchors = (
{
name = mark0;
position = "{300, 700}";
},
{
name = mark0.1;
position = "{536, 700}";
},
{
name = mark0.2;
position = "{300, 0}";
},
{
name = mark0.3;
position = "{300, 364}";
},
{
name = mark0.4;
position = "{300, 350}";
}
);
layerId = "0A6BB479-68DF-438A-AB6B-934827A2B9BB";
shapes = (
{
closed = 1;
nodes = (
(198,-8,o),
(72,27,o),
(72,162,cs),
(72,165,l),
(93,165,l),
(93,160,ls),
(93,64,o),
(179,11,o),
(299,11,cs),
(366,11,o),
(460,23,o),
(497,119,cs),
(503,134,o),
(506,150,o),
(506,166,cs),
(506,283,o),
(345,326,o),
(288,344,cs),
(193,374,o),
(82,420,o),
(82,534,cs),
(82,640,o),
(172,708,o),
(301,708,cs),
(380,708,o),
(475,687,o),
(511,591,cs),
(517,574,o),
(520,556,o),
(520,538,cs),
(520,535,l),
(499,535,l),
(499,540,ls),
(499,637,o),
(408,689,o),
(301,689,cs),
(213,689,o),
(102,653,o),
(102,534,cs),
(102,419,o),
(242,380,o),
(319,356,cs),
(411,328,o),
(526,275,o),
(526,166,cs),
(526,42,o),
(404,-8,o),
(299,-8,c)
);
}
);
width = 600;
}
);
unicode = 83;
},
{
glyphname = T;
layers = (
{
anchors = (
{
name = mark0;
position = "{300, 700}";
},
{
name = mark0.1;
position = "{536, 700}";
},
{
name = mark0.2;
position = "{300, 0}";
},
{
name = mark0.3;
position = "{300, 364}";
},
{
name = mark0.4;
position = "{300, 350}";
}
);
layerId = "AC532A80-AEF9-404E-A94E-472F4CBCE5BB";
shapes = (
{
closed = 1;
nodes = (
(227,0,l),
(227,580,l),
(58,580,l),
(58,700,l),
(542,700,l),
(542,580,l),
(373,580,l),
(373,0,l)
);
}
);
width = 600;
},
{
anchors = (
{
name = mark0;
position = "{300, 700}";
},
{
name = mark0.1;
position = "{536, 700}";
},
{
name = mark0.2;
position = "{300, 0}";
},
{
name = mark0.3;
position = "{300, 364}";
},
{
name = mark0.4;
position = "{300, 350}";
}
);
layerId = "3EF66B8B-A4EF-422E-A8E2-9DC69E93467B";
shapes = (
{
closed = 1;
nodes = (
(255,0,l),
(255,625,l),
(66,625,l),
(66,700,l),
(534,700,l),
(534,625,l),
(345,625,l),
(345,0,l)
);
}
);
width = 600;
},
{
anchors = (
{
name = mark0;
position = "{300, 700}";
},
{
name = mark0.1;
position = "{536, 700}";
},
{
name = mark0.2;
position = "{300, 0}";
},
{
name = mark0.3;
position = "{300, 364}";
},
{
name = mark0.4;
position = "{300, 350}";
}
);
layerId = "0A6BB479-68DF-438A-AB6B-934827A2B9BB";
shapes = (
{
closed = 1;
nodes = (
(290,0,l),
(290,681,l),
(76,681,l),
(76,700,l),
(524,700,l),
(524,681,l),
(310,681,l),
(310,0,l)
);
}
);
width = 600;
}
);
unicode = 84;
},
{
glyphname = U;
layers = (
{
anchors = (
{
name = mark0;
position = "{300, 700}";
},
{
name = mark0.1;
position = "{536, 700}";
},
{
name = mark0.2;
position = "{300, 0}";
},
{
name = mark0.3;
position = "{300, 364}";
},
{
name = mark0.4;
position = "{300, 350}";
}
);
layerId = "AC532A80-AEF9-404E-A94E-472F4CBCE5BB";
shapes = (
{
closed = 1;
nodes = (
(183,-8,o),
(64,51,o),
(64,226,cs),
(64,700,l),
(210,700,l),
(210,352,ls),
(210,249,o),
(190,106,o),
(300,112,c),
(427,106,o),
(390,355,o),
(390,352,c),
(390,700,l),
(536,700,l),
(536,226,ls),
(536,113,o),
(479,-8,o),
(300,-8,cs)
);
}
);
width = 600;
},
{
anchors = (
{
name = mark0;
position = "{300, 700}";
},
{
name = mark0.1;
position = "{536, 700}";
},
{
name = mark0.2;
position = "{300, 0}";
},
{
name = mark0.3;
position = "{300, 364}";
},
{
name = mark0.4;
position = "{300, 350}";
}
);
layerId = "3EF66B8B-A4EF-422E-A8E2-9DC69E93467B";
shapes = (
{
closed = 1;
nodes = (
(185,-8,o),
(72,48,o),
(72,217,cs),
(72,700,l),
(162,700,l),
(162,287,ls),
(162,188,o),
(170,64,o),
(300,67,c),
(405,64,o),
(438,215,o),
(438,287,cs),
(438,700,l),
(528,700,l),
(528,217,ls),
(528,103,o),
(468,-8,o),
(300,-8,cs)
);
}
);
width = 600;
},
{
anchors = (
{
name = mark0;
position = "{300, 700}";
},
{
name = mark0.1;
position = "{536, 700}";
},
{
name = mark0.2;
position = "{300, 0}";
},
{
name = mark0.3;
position = "{300, 364}";
},
{
name = mark0.4;
position = "{300, 350}";
}
);
layerId = "0A6BB479-68DF-438A-AB6B-934827A2B9BB";
shapes = (
{
closed = 1;
nodes = (
(188,-8,o),
(82,45,o),
(82,205,cs),
(82,700,l),
(103,700,l),
(103,205,ls),
(103,111,o),
(145,11,o),
(300,11,cs),
(378,11,o),
(497,40,o),
(497,205,cs),
(497,700,l),
(518,700,l),
(518,205,ls),
(518,90,o),
(454,-8,o),
(300,-8,cs)
);
}
);
width = 600;
}
);
unicode = 85;
},
{
glyphname = V;
layers = (
{
anchors = (
{
name = mark0;
position = "{300, 700}";
},
{
name = mark0.1;
position = "{536, 700}";
},
{
name = mark0.2;
position = "{300, 0}";
},
{
name = mark0.3;
position = "{300, 364}";
},
{
name = mark0.4;
position = "{300, 350}";
}
);
layerId = "AC532A80-AEF9-404E-A94E-472F4CBCE5BB";
shapes = (
{
closed = 1;
nodes = (
(216,0,l),
(37,700,l),
(187,700,l),
(285,233,l),
(290,210,o),
(295,188,o),
(300,165,c),
(305,188,o),
(310,210,o),
(315,233,cs),
(413,700,l),
(563,700,l),
(384,0,l)
);
}
);
width = 600;
},
{
anchors = (
{
name = mark0;
position = "{300, 700}";
},
{
name = mark0.1;
position = "{536, 700}";
},
{
name = mark0.2;
position = "{300, 0}";
},
{
name = mark0.3;
position = "{300, 364}";
},
{
name = mark0.4;
position = "{300, 350}";
}
);
layerId = "3EF66B8B-A4EF-422E-A8E2-9DC69E93467B";
shapes = (
{
closed = 1;
nodes = (
(248,0,l),
(49,700,l),
(143,700,l),
(263,233,ls),
(275,190,o),
(287,148,o),
(300,105,c),
(312,148,o),
(324,190,o),
(337,233,c),
(457,700,l),
(551,700,l),
(352,0,l)
);
}
);
width = 600;
},
{
anchors = (
{
name = mark0;
position = "{300, 700}";
},
{
name = mark0.1;
position = "{536, 700}";
},
{
name = mark0.2;
position = "{300, 0}";
},
{
name = mark0.3;
position = "{300, 364}";
},
{
name = mark0.4;
position = "{300, 350}";
}
);
layerId = "0A6BB479-68DF-438A-AB6B-934827A2B9BB";
shapes = (
{
closed = 1;
nodes = (
(288,0,l),
(65,700,l),
(88,700,l),
(236,233,l),
(256,165,o),
(278,97,o),
(300,29,c),
(320,97,o),
(342,165,o),
(364,233,cs),
(512,700,l),
(535,700,l),
(312,0,l)
);
}
);
width = 600;
}
);
unicode = 86;
},
{
glyphname = W;
layers = (
{
anchors = (
{
name = mark0;
position = "{450, 700}";
},
{
name = mark0.1;
position = "{836, 700}";
},
{
name = mark0.2;
position = "{450, 0}";
},
{
name = mark0.3;
position = "{450, 364}";
},
{
name = mark0.4;
position = "{450, 350}";
}
);
layerId = "AC532A80-AEF9-404E-A94E-472F4CBCE5BB";
shapes = (
{
closed = 1;
nodes = (
(204,0,l),
(48,700,l),
(189,700,l),
(280,154,l),
(378,580,l),
(522,580,l),
(620,154,l),
(711,700,l),
(852,700,l),
(696,0,l),
(553,0,l),
(450,430,l),
(347,0,l)
);
}
);
width = 900;
},
{
anchors = (
{
name = mark0;
position = "{450, 700}";
},
{
name = mark0.1;
position = "{836, 700}";
},
{
name = mark0.2;
position = "{450, 0}";
},
{
name = mark0.3;
position = "{450, 364}";
},
{
name = mark0.4;
position = "{450, 350}";
}
);
layerId = "3EF66B8B-A4EF-422E-A8E2-9DC69E93467B";
shapes = (
{
closed = 1;
nodes = (
(221,0,l),
(56,700,l),
(144,700,l),
(268,100,l),
(405,625,l),
(495,625,l),
(632,100,l),
(756,700,l),
(844,700,l),
(679,0,l),
(590,0,l),
(450,528,l),
(310,0,l)
);
}
);
width = 900;
},
{
anchors = (
{
name = mark0;
position = "{450, 700}";
},
{
name = mark0.1;
position = "{836, 700}";
},
{
name = mark0.2;
position = "{450, 0}";
},
{
name = mark0.3;
position = "{450, 364}";
},
{
name = mark0.4;
position = "{450, 350}";
}
);
layerId = "0A6BB479-68DF-438A-AB6B-934827A2B9BB";
shapes = (
{
closed = 1;
nodes = (
(242,0,l),
(66,700,l),
(87,700,l),
(253,32,l),
(439,681,l),
(461,681,l),
(647,32,l),
(813,700,l),
(834,700,l),
(658,0,l),
(637,0,l),
(450,651,l),
(263,0,l)
);
}
);
width = 900;
}
);
unicode = 87;
},
{
glyphname = X;
layers = (
{
anchors = (
{
name = mark0;
position = "{300, 700}";
},
{
name = mark0.1;
position = "{536, 700}";
},
{
name = mark0.2;
position = "{300, 0}";
},
{
name = mark0.3;
position = "{300, 364}";
},
{
name = mark0.4;
position = "{300, 350}";
}
);
layerId = "AC532A80-AEF9-404E-A94E-472F4CBCE5BB";
shapes = (
{
closed = 1;
nodes = (
(563,0,l),
(397,0,l),
(300,208,l),
(203,0,l),
(37,0,l),
(231,350,l),
(37,700,l),
(203,700,l),
(300,492,l),
(397,700,l),
(563,700,l),
(369,350,l)
);
}
);
width = 600;
},
{
anchors = (
{
name = mark0;
position = "{300, 700}";
},
{
name = mark0.1;
position = "{536, 700}";
},
{
name = mark0.2;
position = "{300, 0}";
},
{
name = mark0.3;
position = "{300, 364}";
},
{
name = mark0.4;
position = "{300, 350}";
}
);
layerId = "3EF66B8B-A4EF-422E-A8E2-9DC69E93467B";
shapes = (
{
closed = 1;
nodes = (
(545,0,l),
(442,0,l),
(300,263,l),
(158,0,l),
(55,0,l),
(257,350,l),
(55,700,l),
(158,700,l),
(300,437,l),
(442,700,l),
(545,700,l),
(343,350,l)
);
}
);
width = 600;
},
{
anchors = (
{
name = mark0;
position = "{300, 700}";
},
{
name = mark0.1;
position = "{536, 700}";
},
{
name = mark0.2;
position = "{300, 0}";
},
{
name = mark0.3;
position = "{300, 364}";
},
{
name = mark0.4;
position = "{300, 350}";
}
);
layerId = "0A6BB479-68DF-438A-AB6B-934827A2B9BB";
shapes = (
{
closed = 1;
nodes = (
(522,0,l),
(498,0,l),
(300,331,l),
(102,0,l),
(78,0,l),
(289,350,l),
(78,700,l),
(102,700,l),
(300,369,l),
(498,700,l),
(522,700,l),
(311,350,l)
);
}
);
width = 600;
}
);
unicode = 88;
},
{
glyphname = Y;
layers = (
{
anchors = (
{
name = mark0;
position = "{300, 700}";
},
{
name = mark0.1;
position = "{536, 700}";
},
{
name = mark0.2;
position = "{300, 0}";
},
{
name = mark0.3;
position = "{300, 280}";
},
{
name = mark0.4;
position = "{300, 350}";
}
);
layerId = "AC532A80-AEF9-404E-A94E-472F4CBCE5BB";
shapes = (
{
closed = 1;
nodes = (
(227,0,l),
(227,292,l),
(32,700,l),
(193,700,l),
(300,439,l),
(407,700,l),
(568,700,l),
(373,292,l),
(373,0,l)
);
}
);
width = 600;
},
{
anchors = (
{
name = mark0;
position = "{300, 700}";
},
{
name = mark0.1;
position = "{536, 700}";
},
{
name = mark0.2;
position = "{300, 0}";
},
{
name = mark0.3;
position = "{300, 280}";
},
{
name = mark0.4;
position = "{300, 350}";
}
);
layerId = "3EF66B8B-A4EF-422E-A8E2-9DC69E93467B";
shapes = (
{
closed = 1;
nodes = (
(255,0,l),
(255,286,l),
(52,700,l),
(152,700,l),
(300,378,l),
(448,700,l),
(548,700,l),
(345,286,l),
(345,0,l)
);
}
);
width = 600;
},
{
anchors = (
{
name = mark0;
position = "{300, 700}";
},
{
name = mark0.1;
position = "{536, 700}";
},
{
name = mark0.2;
position = "{300, 0}";
},
{
name = mark0.3;
position = "{300, 280}";
},
{
name = mark0.4;
position = "{300, 350}";
}
);
layerId = "0A6BB479-68DF-438A-AB6B-934827A2B9BB";
shapes = (
{
closed = 1;
nodes = (
(290,0,l),
(290,279,l),
(77,700,l),
(100,700,l),
(300,302,l),
(500,700,l),
(523,700,l),
(310,279,l),
(310,0,l)
);
}
);
width = 600;
}
);
unicode = 89;
},
{
glyphname = Z;
layers = (
{
anchors = (
{
name = mark0;
position = "{300, 700}";
},
{
name = mark0.1;
position = "{536, 700}";
},
{
name = mark0.2;
position = "{300, 0}";
},
{
name = mark0.3;
position = "{300, 364}";
},
{
name = mark0.4;
position = "{300, 350}";
}
);
layerId = "AC532A80-AEF9-404E-A94E-472F4CBCE5BB";
shapes = (
{
closed = 1;
nodes = (
(64,0,l),
(64,120,l),
(368,580,l),
(64,580,l),
(64,700,l),
(536,700,l),
(536,580,l),
(232,120,l),
(536,120,l),
(536,0,l)
);
}
);
width = 600;
},
{
anchors = (
{
name = mark0;
position = "{300, 700}";
},
{
name = mark0.1;
position = "{536, 700}";
},
{
name = mark0.2;
position = "{300, 0}";
},
{
name = mark0.3;
position = "{300, 364}";
},
{
name = mark0.4;
position = "{300, 350}";
}
);
layerId = "3EF66B8B-A4EF-422E-A8E2-9DC69E93467B";
shapes = (
{
closed = 1;
nodes = (
(72,0,l),
(72,75,l),
(424,625,l),
(72,625,l),
(72,700,l),
(528,700,l),
(528,625,l),
(176,75,l),
(528,75,l),
(528,0,l)
);
}
);
width = 600;
},
{
anchors = (
{
name = mark0;
position = "{300, 700}";
},
{
name = mark0.1;
position = "{536, 700}";
},
{
name = mark0.2;
position = "{300, 0}";
},
{
name = mark0.3;
position = "{300, 364}";
},
{
name = mark0.4;
position = "{300, 350}";
}
);
layerId = "0A6BB479-68DF-438A-AB6B-934827A2B9BB";
shapes = (
{
closed = 1;
nodes = (
(82,0,l),
(82,19,l),
(494,681,l),
(82,681,l),
(82,700,l),
(518,700,l),
(518,681,l),
(106,19,l),
(518,19,l),
(518,0,l)
);
}
);
width = 600;
}
);
unicode = 90;
},
{
glyphname = bracketleft;
layers = (
{
layerId = "AC532A80-AEF9-404E-A94E-472F4CBCE5BB";
shapes = (
{
closed = 1;
nodes = (
(129,-176,l),
(129,790,l),
(489,790,l),
(489,670,l),
(275,670,l),
(275,-56,l),
(489,-56,l),
(489,-176,l)
);
}
);
width = 600;
},
{
layerId = "3EF66B8B-A4EF-422E-A8E2-9DC69E93467B";
shapes = (
{
closed = 1;
nodes = (
(145,-176,l),
(145,790,l),
(482,790,l),
(482,715,l),
(235,715,l),
(235,-101,l),
(482,-101,l),
(482,-176,l)
);
}
);
width = 600;
},
{
layerId = "0A6BB479-68DF-438A-AB6B-934827A2B9BB";
shapes = (
{
closed = 1;
nodes = (
(165,-176,l),
(165,790,l),
(474,790,l),
(474,771,l),
(186,771,l),
(186,-157,l),
(474,-157,l),
(474,-176,l)
);
}
);
width = 600;
}
);
unicode = 91;
},
{
glyphname = backslash;
layers = (
{
layerId = "AC532A80-AEF9-404E-A94E-472F4CBCE5BB";
shapes = (
{
closed = 1;
nodes = (
(401,-176,l),
(49,790,l),
(199,790,l),
(551,-176,l)
);
}
);
width = 600;
},
{
layerId = "3EF66B8B-A4EF-422E-A8E2-9DC69E93467B";
shapes = (
{
closed = 1;
nodes = (
(444,-176,l),
(63,790,l),
(156,790,l),
(537,-176,l)
);
}
);
width = 600;
},
{
layerId = "0A6BB479-68DF-438A-AB6B-934827A2B9BB";
shapes = (
{
closed = 1;
nodes = (
(497,-176,l),
(80,790,l),
(103,790,l),
(520,-176,l)
);
}
);
width = 600;
}
);
unicode = 92;
},
{
glyphname = bracketright;
layers = (
{
layerId = "AC532A80-AEF9-404E-A94E-472F4CBCE5BB";
shapes = (
{
closed = 1;
nodes = (
(111,-176,l),
(111,-56,l),
(325,-56,l),
(325,670,l),
(111,670,l),
(111,790,l),
(471,790,l),
(471,-176,l)
);
}
);
width = 600;
},
{
layerId = "3EF66B8B-A4EF-422E-A8E2-9DC69E93467B";
shapes = (
{
closed = 1;
nodes = (
(118,-176,l),
(118,-101,l),
(365,-101,l),
(365,715,l),
(118,715,l),
(118,790,l),
(455,790,l),
(455,-176,l)
);
}
);
width = 600;
},
{
layerId = "0A6BB479-68DF-438A-AB6B-934827A2B9BB";
shapes = (
{
closed = 1;
nodes = (
(126,-176,l),
(126,-157,l),
(414,-157,l),
(414,771,l),
(126,771,l),
(126,790,l),
(435,790,l),
(435,-176,l)
);
}
);
width = 600;
}
);
unicode = 93;
},
{
glyphname = asciicircum;
layers = (
{
anchors = (
{
name = mark0;
position = "{300, 552}";
},
{
name = mark0.1;
position = "{536, 552}";
},
{
name = mark0.2;
position = "{300, 62}";
},
{
name = mark0.3;
position = "{300, 317}";
},
{
name = mark0.4;
position = "{300, 307}";
}
);
layerId = "AC532A80-AEF9-404E-A94E-472F4CBCE5BB";
shapes = (
{
closed = 1;
nodes = (
(140,411,l),
(17,486,l),
(230,748,l),
(370,748,l),
(583,486,l),
(460,411,l),
(300,645,l)
);
}
);
width = 600;
},
{
anchors = (
{
name = mark0;
position = "{300, 552}";
},
{
name = mark0.1;
position = "{536, 552}";
},
{
name = mark0.2;
position = "{300, 62}";
},
{
name = mark0.3;
position = "{300, 317}";
},
{
name = mark0.4;
position = "{300, 307}";
}
);
layerId = "3EF66B8B-A4EF-422E-A8E2-9DC69E93467B";
shapes = (
{
closed = 1;
nodes = (
(119,429,l),
(43,477,l),
(255,722,l),
(345,722,l),
(557,477,l),
(481,429,l),
(300,658,l)
);
}
);
width = 600;
},
{
anchors = (
{
name = mark0;
position = "{300, 552}";
},
{
name = mark0.1;
position = "{536, 552}";
},
{
name = mark0.2;
position = "{300, 62}";
},
{
name = mark0.3;
position = "{300, 317}";
},
{
name = mark0.4;
position = "{300, 307}";
}
);
layerId = "0A6BB479-68DF-438A-AB6B-934827A2B9BB";
shapes = (
{
closed = 1;
nodes = (
(92,451,l),
(76,465,l),
(287,689,l),
(313,689,l),
(524,465,l),
(508,451,l),
(300,675,l)
);
}
);
width = 600;
}
);
unicode = 94;
},
{
glyphname = underscore;
layers = (
{
layerId = "AC532A80-AEF9-404E-A94E-472F4CBCE5BB";
shapes = (
{
closed = 1;
nodes = (
(536,-120,l),
(64,-120,l),
(64,0,l),
(536,0,l)
);
}
);
width = 600;
},
{
layerId = "3EF66B8B-A4EF-422E-A8E2-9DC69E93467B";
shapes = (
{
closed = 1;
nodes = (
(528,-75,l),
(72,-75,l),
(72,0,l),
(528,0,l)
);
}
);
width = 600;
},
{
layerId = "0A6BB479-68DF-438A-AB6B-934827A2B9BB";
shapes = (
{
closed = 1;
nodes = (
(518,-19,l),
(82,-19,l),
(82,0,l),
(518,0,l)
);
}
);
width = 600;
}
);
unicode = 95;
},
{
glyphname = grave;
layers = (
{
layerId = "AC532A80-AEF9-404E-A94E-472F4CBCE5BB";
shapes = (
{
closed = 1;
nodes = (
(192,527,l),
(-8,759,l),
(118,840,l),
(295,594,l)
);
}
);
width = 350;
},
{
layerId = "3EF66B8B-A4EF-422E-A8E2-9DC69E93467B";
shapes = (
{
closed = 1;
nodes = (
(185,544,l),
(20,771,l),
(98,820,l),
(250,585,l)
);
}
);
width = 350;
},
{
layerId = "0A6BB479-68DF-438A-AB6B-934827A2B9BB";
shapes = (
{
closed = 1;
nodes = (
(177,565,l),
(54,786,l),
(74,796,l),
(193,574,l)
);
}
);
width = 350;
}
);
unicode = 96;
},
{
glyphname = a;
layers = (
{
anchors = (
{
name = mark0;
position = "{300, 530}";
},
{
name = mark0.1;
position = "{536, 530}";
},
{
name = mark0.2;
position = "{300, 0}";
},
{
name = mark0.3;
position = "{536, 0}";
},
{
name = mark0.4;
position = "{300, 276}";
},
{
name = mark0.5;
position = "{300, 265}";
}
);
layerId = "AC532A80-AEF9-404E-A94E-472F4CBCE5BB";
shapes = (
{
closed = 1;
nodes = (
(154,-8,o),
(56,23,o),
(56,142,cs),
(56,260,o),
(156,331,o),
(324,331,cs),
(394,331,l),
(394,349,ls),
(394,398,o),
(348,422,o),
(299,422,cs),
(267,422,o),
(203,416,o),
(204,370,c),
(62,370,l),
(62,477,o),
(160,538,o),
(299,538,cs),
(399,538,o),
(536,502,o),
(536,349,cs),
(536,0,l),
(394,0,l),
(394,86,l),
(368,21,o),
(302,-8,o),
(234,-8,cs)
);
},
{
closed = 1;
nodes = (
(295,108,l),
(344,102,o),
(394,139,o),
(394,182,cs),
(394,214,l),
(317,214,ls),
(272,214,o),
(198,204,o),
(198,157,cs),
(198,122,o),
(249,108,o),
(288,108,cs)
);
}
);
width = 600;
},
{
anchors = (
{
name = mark0;
position = "{300, 530}";
},
{
name = mark0.1;
position = "{536, 530}";
},
{
name = mark0.2;
position = "{300, 0}";
},
{
name = mark0.3;
position = "{536, 0}";
},
{
name = mark0.4;
position = "{300, 276}";
},
{
name = mark0.5;
position = "{300, 265}";
}
);
layerId = "3EF66B8B-A4EF-422E-A8E2-9DC69E93467B";
shapes = (
{
closed = 1;
nodes = (
(178,-8,o),
(64,17,o),
(64,138,cs),
(64,246,o),
(159,312,o),
(323,312,cs),
(440,312,l),
(440,348,ls),
(440,414,o),
(391,465,o),
(299,465,cs),
(248,465,o),
(158,453,o),
(158,383,c),
(70,383,l),
(70,493,o),
(188,538,o),
(299,538,cs),
(399,538,o),
(528,500,o),
(528,348,cs),
(528,0,l),
(440,0,l),
(440,94,l),
(408,18,o),
(330,-8,o),
(260,-8,cs)
);
},
{
closed = 1;
nodes = (
(295,65,l),
(356,62,o),
(440,92,o),
(440,185,cs),
(440,239,l),
(319,239,ls),
(257,239,o),
(152,226,o),
(152,148,cs),
(152,92,o),
(213,65,o),
(291,65,cs)
);
}
);
width = 600;
},
{
anchors = (
{
name = mark0;
position = "{300, 530}";
},
{
name = mark0.1;
position = "{536, 530}";
},
{
name = mark0.2;
position = "{300, 0}";
},
{
name = mark0.3;
position = "{536, 0}";
},
{
name = mark0.4;
position = "{300, 276}";
},
{
name = mark0.5;
position = "{300, 265}";
}
);
layerId = "0A6BB479-68DF-438A-AB6B-934827A2B9BB";
shapes = (
{
closed = 1;
nodes = (
(207,-8,o),
(74,9,o),
(74,134,cs),
(74,229,o),
(163,289,o),
(322,289,cs),
(497,289,l),
(497,346,ls),
(497,435,o),
(444,519,o),
(298,519,cs),
(224,519,o),
(101,500,o),
(101,400,c),
(80,400,l),
(80,512,o),
(224,538,o),
(298,538,cs),
(398,538,o),
(518,497,o),
(518,346,cs),
(518,0,l),
(497,0,l),
(497,104,l),
(459,14,o),
(365,-8,o),
(292,-8,cs)
);
},
{
closed = 1;
nodes = (
(371,11,o),
(497,34,o),
(497,189,cs),
(497,270,l),
(322,270,ls),
(239,270,o),
(95,254,o),
(95,136,cs),
(95,54,o),
(169,11,o),
(295,11,c)
);
}
);
width = 600;
}
);
unicode = 97;
},
{
glyphname = b;
layers = (
{
anchors = (
{
name = mark0;
position = "{300, 735}";
},
{
name = mark0.1;
position = "{137, 735}";
},
{
name = mark0.2;
position = "{536, 735}";
},
{
name = mark0.3;
position = "{300, 0}";
},
{
name = mark0.4;
position = "{300, 265}";
},
{
name = mark0.5;
position = "{300, 368}";
}
);
layerId = "AC532A80-AEF9-404E-A94E-472F4CBCE5BB";
shapes = (
{
closed = 1;
nodes = (
(300,-11,o),
(231,31,o),
(210,95,c),
(210,0,l),
(64,0,l),
(64,735,l),
(210,735,l),
(210,435,l),
(225,481,o),
(265,515,o),
(310,530,cs),
(328,536,o),
(348,539,o),
(367,538,c),
(467,538,o),
(544,468,o),
(544,320,cs),
(544,210,ls),
(544,112,o),
(507,-8,o),
(367,-8,c)
);
},
{
closed = 1;
nodes = (
(376,105,o),
(398,172,o),
(398,227,cs),
(398,295,ls),
(398,324,o),
(403,429,o),
(304,418,c),
(231,425,o),
(210,359,o),
(210,303,cs),
(210,235,ls),
(210,210,o),
(205,95,o),
(304,112,c)
);
}
);
width = 600;
},
{
anchors = (
{
name = mark0;
position = "{300, 735}";
},
{
name = mark0.1;
position = "{137, 735}";
},
{
name = mark0.2;
position = "{536, 735}";
},
{
name = mark0.3;
position = "{300, 0}";
},
{
name = mark0.4;
position = "{300, 265}";
},
{
name = mark0.5;
position = "{300, 368}";
}
);
layerId = "3EF66B8B-A4EF-422E-A8E2-9DC69E93467B";
shapes = (
{
closed = 1;
nodes = (
(266,-10,o),
(189,27,o),
(162,104,c),
(162,0,l),
(72,0,l),
(72,735,l),
(162,735,l),
(162,426,l),
(184,489,o),
(242,525,o),
(309,534,c),
(327,537,o),
(347,538,o),
(366,536,c),
(456,530,o),
(536,465,o),
(536,320,cs),
(536,210,ls),
(536,106,o),
(491,-8,o),
(340,-8,c)
);
},
{
closed = 1;
nodes = (
(384,63,o),
(446,118,o),
(446,219,cs),
(446,306,ls),
(446,364,o),
(428,469,o),
(304,463,c),
(221,467,o),
(162,410,o),
(162,311,cs),
(162,224,ls),
(162,170,o),
(177,58,o),
(304,67,c)
);
}
);
width = 600;
},
{
anchors = (
{
name = mark0;
position = "{300, 735}";
},
{
name = mark0.1;
position = "{137, 735}";
},
{
name = mark0.2;
position = "{536, 735}";
},
{
name = mark0.3;
position = "{300, 0}";
},
{
name = mark0.4;
position = "{300, 265}";
},
{
name = mark0.5;
position = "{300, 368}";
}
);
layerId = "0A6BB479-68DF-438A-AB6B-934827A2B9BB";
shapes = (
{
closed = 1;
nodes = (
(223,-8,o),
(136,21,o),
(103,116,c),
(103,0,l),
(82,0,l),
(82,735,l),
(103,735,l),
(103,414,l),
(132,498,o),
(213,538,o),
(307,538,cs),
(326,538,o),
(345,536,o),
(365,533,cs),
(443,519,o),
(526,461,o),
(526,320,cs),
(526,210,ls),
(526,98,o),
(470,-8,o),
(307,-8,cs)
);
},
{
closed = 1;
nodes = (
(394,11,o),
(505,50,o),
(505,210,cs),
(505,320,ls),
(505,414,o),
(459,519,o),
(304,519,cs),
(209,519,o),
(103,474,o),
(103,320,cs),
(103,210,ls),
(103,119,o),
(142,11,o),
(304,11,cs)
);
}
);
width = 600;
}
);
unicode = 98;
},
{
glyphname = c;
layers = (
{
anchors = (
{
name = mark0;
position = "{300, 530}";
},
{
name = mark0.1;
position = "{536, 530}";
},
{
name = mark0.2;
position = "{300, 0}";
},
{
name = mark0.3;
position = "{300, 276}";
},
{
name = mark0.4;
position = "{300, 265}";
}
);
layerId = "AC532A80-AEF9-404E-A94E-472F4CBCE5BB";
shapes = (
{
closed = 1;
nodes = (
(297,-8,ls),
(182,-8,o),
(56,38,o),
(56,210,cs),
(56,306,ls),
(56,411,o),
(96,538,o),
(297,538,cs),
(393,538,o),
(538,501,o),
(538,342,c),
(538,340,o),
(538,337,o),
(538,335,c),
(392,335,l),
(392,371,o),
(364,425,o),
(297,418,c),
(239,425,o),
(197,366,o),
(202,320,c),
(202,238,ls),
(202,202,o),
(197,105,o),
(297,112,c),
(347,106,o),
(392,143,o),
(392,195,c),
(538,195,l),
(538,88,o),
(472,1,o),
(310,-8,c)
);
}
);
width = 600;
},
{
anchors = (
{
name = mark0;
position = "{300, 530}";
},
{
name = mark0.1;
position = "{536, 530}";
},
{
name = mark0.2;
position = "{300, 0}";
},
{
name = mark0.3;
position = "{300, 276}";
},
{
name = mark0.4;
position = "{300, 265}";
}
);
layerId = "3EF66B8B-A4EF-422E-A8E2-9DC69E93467B";
shapes = (
{
closed = 1;
nodes = (
(297,-8,ls),
(186,-8,o),
(64,38,o),
(64,210,cs),
(64,312,ls),
(64,411,o),
(104,538,o),
(297,538,cs),
(388,538,o),
(515,509,o),
(529,363,cs),
(530,358,o),
(530,353,o),
(530,348,c),
(440,348,l),
(440,408,o),
(390,467,o),
(297,463,c),
(221,467,o),
(152,413,o),
(154,320,c),
(154,226,ls),
(154,165,o),
(169,63,o),
(297,67,c),
(355,64,o),
(440,91,o),
(440,182,c),
(530,182,l),
(530,68,o),
(443,-3,o),
(305,-8,c)
);
}
);
width = 600;
},
{
anchors = (
{
name = mark0;
position = "{300, 530}";
},
{
name = mark0.1;
position = "{536, 530}";
},
{
name = mark0.2;
position = "{300, 0}";
},
{
name = mark0.3;
position = "{300, 276}";
},
{
name = mark0.4;
position = "{300, 265}";
}
);
layerId = "0A6BB479-68DF-438A-AB6B-934827A2B9BB";
shapes = (
{
closed = 1;
nodes = (
(191,-8,o),
(74,39,o),
(74,210,cs),
(74,320,ls),
(74,412,o),
(114,538,o),
(298,538,cs),
(382,538,o),
(486,518,o),
(518,390,c),
(519,381,o),
(520,373,o),
(520,365,c),
(499,365,l),
(499,455,o),
(422,519,o),
(298,519,cs),
(199,519,o),
(95,472,o),
(95,320,cs),
(95,210,ls),
(95,119,o),
(134,11,o),
(298,11,cs),
(364,11,o),
(499,27,o),
(499,165,c),
(520,165,l),
(520,44,o),
(406,-8,o),
(298,-8,c)
);
}
);
width = 600;
}
);
unicode = 99;
},
{
glyphname = d;
layers = (
{
anchors = (
{
name = mark0;
position = "{300, 735}";
},
{
name = mark0.1;
position = "{463, 735}";
},
{
name = mark0.2;
position = "{536, 735}";
},
{
name = mark0.3;
position = "{300, 0}";
},
{
name = mark0.4;
position = "{300, 265}";
},
{
name = mark0.5;
position = "{300, 368}";
}
);
layerId = "AC532A80-AEF9-404E-A94E-472F4CBCE5BB";
shapes = (
{
closed = 1;
nodes = (
(135,-8,o),
(56,56,o),
(56,210,cs),
(56,320,ls),
(56,417,o),
(92,538,o),
(233,538,c),
(252,539,o),
(272,536,o),
(290,530,cs),
(334,516,o),
(375,481,o),
(390,435,c),
(390,735,l),
(536,735,l),
(536,0,l),
(390,0,l),
(390,95,l),
(369,31,o),
(299,-11,o),
(233,-8,c)
);
},
{
closed = 1;
nodes = (
(368,105,o),
(390,172,o),
(390,227,cs),
(390,295,ls),
(390,324,o),
(395,429,o),
(296,418,c),
(223,425,o),
(202,359,o),
(202,303,cs),
(202,235,ls),
(202,210,o),
(197,95,o),
(296,112,c)
);
}
);
width = 600;
},
{
anchors = (
{
name = mark0;
position = "{300, 735}";
},
{
name = mark0.1;
position = "{463, 735}";
},
{
name = mark0.2;
position = "{536, 735}";
},
{
name = mark0.3;
position = "{300, 0}";
},
{
name = mark0.4;
position = "{300, 265}";
},
{
name = mark0.5;
position = "{300, 368}";
}
);
layerId = "3EF66B8B-A4EF-422E-A8E2-9DC69E93467B";
shapes = (
{
closed = 1;
nodes = (
(159,-8,o),
(64,47,o),
(64,210,cs),
(64,320,ls),
(64,407,o),
(95,524,o),
(233,536,c),
(252,538,o),
(272,537,o),
(291,534,c),
(351,526,o),
(412,494,o),
(438,426,c),
(438,735,l),
(528,735,l),
(528,0,l),
(438,0,l),
(438,104,l),
(411,31,o),
(339,-10,o),
(260,-8,c)
);
},
{
closed = 1;
nodes = (
(376,63,o),
(438,118,o),
(438,219,cs),
(438,306,ls),
(438,364,o),
(420,469,o),
(296,463,c),
(213,467,o),
(154,410,o),
(154,311,cs),
(154,224,ls),
(154,170,o),
(169,58,o),
(296,67,c)
);
}
);
width = 600;
},
{
anchors = (
{
name = mark0;
position = "{300, 735}";
},
{
name = mark0.1;
position = "{463, 735}";
},
{
name = mark0.2;
position = "{536, 735}";
},
{
name = mark0.3;
position = "{300, 0}";
},
{
name = mark0.4;
position = "{300, 265}";
},
{
name = mark0.5;
position = "{300, 368}";
}
);
layerId = "0A6BB479-68DF-438A-AB6B-934827A2B9BB";
shapes = (
{
closed = 1;
nodes = (
(190,-8,o),
(74,35,o),
(74,210,cs),
(74,320,ls),
(74,395,o),
(99,507,o),
(234,533,cs),
(253,537,o),
(273,538,o),
(293,538,cs),
(372,538,o),
(458,511,o),
(497,414,c),
(497,735,l),
(518,735,l),
(518,0,l),
(497,0,l),
(497,116,l),
(463,31,o),
(390,-8,o),
(293,-8,cs)
);
},
{
closed = 1;
nodes = (
(386,11,o),
(497,50,o),
(497,210,cs),
(497,320,ls),
(497,414,o),
(451,519,o),
(296,519,cs),
(201,519,o),
(95,474,o),
(95,320,cs),
(95,210,ls),
(95,119,o),
(134,11,o),
(296,11,cs)
);
}
);
width = 600;
}
);
unicode = 100;
},
{
glyphname = e;
layers = (
{
anchors = (
{
name = mark0;
position = "{300, 530}";
},
{
name = mark0.1;
position = "{536, 530}";
},
{
name = mark0.2;
position = "{300, 0}";
},
{
name = mark0.3;
position = "{300, 276}";
},
{
name = mark0.4;
position = "{300, 265}";
}
);
layerId = "AC532A80-AEF9-404E-A94E-472F4CBCE5BB";
shapes = (
{
closed = 1;
nodes = (
(300,-8,ls),
(195,-8,o),
(56,33,o),
(56,210,cs),
(56,304,ls),
(56,409,o),
(97,538,o),
(300,538,cs),
(408,538,o),
(544,492,o),
(544,320,cs),
(544,207,l),
(198,207,l),
(198,172,o),
(219,101,o),
(300,108,c),
(338,108,o),
(392,115,o),
(400,160,c),
(542,160,l),
(542,39,o),
(416,-2,o),
(316,-8,c)
);
},
{
closed = 1;
nodes = (
(402,323,l),
(412,393,o),
(337,426,o),
(300,422,c),
(250,428,o),
(206,390,o),
(198,342,cs),
(197,336,o),
(197,330,o),
(198,323,c)
);
}
);
width = 600;
},
{
anchors = (
{
name = mark0;
position = "{300, 530}";
},
{
name = mark0.1;
position = "{536, 530}";
},
{
name = mark0.2;
position = "{300, 0}";
},
{
name = mark0.3;
position = "{300, 276}";
},
{
name = mark0.4;
position = "{300, 265}";
}
);
layerId = "3EF66B8B-A4EF-422E-A8E2-9DC69E93467B";
shapes = (
{
closed = 1;
nodes = (
(300,-8,ls),
(193,-8,o),
(64,36,o),
(64,210,cs),
(64,311,ls),
(64,413,o),
(106,538,o),
(300,538,cs),
(406,538,o),
(536,491,o),
(536,320,cs),
(536,229,l),
(152,229,l),
(152,171,o),
(160,61,o),
(300,65,c),
(348,65,o),
(438,72,o),
(446,147,c),
(534,147,l),
(530,24,o),
(390,-5,o),
(309,-8,c)
);
},
{
closed = 1;
nodes = (
(448,301,l),
(453,377,o),
(415,467,o),
(300,465,c),
(227,468,o),
(157,426,o),
(152,332,c),
(152,322,o),
(152,312,o),
(152,301,c)
);
}
);
width = 600;
},
{
anchors = (
{
name = mark0;
position = "{300, 530}";
},
{
name = mark0.1;
position = "{536, 530}";
},
{
name = mark0.2;
position = "{300, 0}";
},
{
name = mark0.3;
position = "{300, 276}";
},
{
name = mark0.4;
position = "{300, 265}";
}
);
layerId = "0A6BB479-68DF-438A-AB6B-934827A2B9BB";
shapes = (
{
closed = 1;
nodes = (
(191,-8,o),
(74,40,o),
(74,210,cs),
(74,320,ls),
(74,417,o),
(117,538,o),
(300,538,cs),
(404,538,o),
(526,490,o),
(526,320,cs),
(526,256,l),
(95,256,l),
(95,169,o),
(86,11,o),
(301,11,cs),
(361,11,o),
(495,18,o),
(503,130,c),
(524,130,l),
(516,6,o),
(358,-8,o),
(301,-8,c)
);
},
{
closed = 1;
nodes = (
(505,274,l),
(505,356,o),
(512,519,o),
(300,519,cs),
(199,519,o),
(95,471,o),
(95,320,cs),
(95,305,o),
(95,289,o),
(95,274,c)
);
}
);
width = 600;
}
);
unicode = 101;
},
{
glyphname = f;
layers = (
{
anchors = (
{
name = mark0;
position = "{250, 735}";
},
{
name = mark0.1;
position = "{289, 735}";
},
{
name = mark0.2;
position = "{436, 735}";
},
{
name = mark0.3;
position = "{250, 0}";
},
{
name = mark0.4;
position = "{236, 265}";
},
{
name = mark0.5;
position = "{250, 368}";
}
);
layerId = "AC532A80-AEF9-404E-A94E-472F4CBCE5BB";
shapes = (
{
closed = 1;
nodes = (
(163,0,l),
(163,410,l),
(48,410,l),
(48,530,l),
(163,530,l),
(163,568,ls),
(163,660,o),
(221,735,o),
(363,735,cs),
(452,735,l),
(452,615,l),
(407,615,ls),
(367,615,o),
(309,622,o),
(309,568,cs),
(309,530,l),
(452,530,l),
(452,410,l),
(309,410,l),
(309,0,l)
);
}
);
width = 500;
},
{
anchors = (
{
name = mark0;
position = "{250, 735}";
},
{
name = mark0.1;
position = "{289, 735}";
},
{
name = mark0.2;
position = "{436, 735}";
},
{
name = mark0.3;
position = "{250, 0}";
},
{
name = mark0.4;
position = "{236, 265}";
},
{
name = mark0.5;
position = "{250, 368}";
}
);
layerId = "3EF66B8B-A4EF-422E-A8E2-9DC69E93467B";
shapes = (
{
closed = 1;
nodes = (
(185,0,l),
(185,455,l),
(54,455,l),
(54,530,l),
(185,530,l),
(185,580,ls),
(185,658,o),
(228,735,o),
(359,735,cs),
(446,735,l),
(446,660,l),
(383,660,ls),
(330,660,o),
(275,647,o),
(275,580,cs),
(275,530,l),
(446,530,l),
(446,455,l),
(275,455,l),
(275,0,l)
);
}
);
width = 500;
},
{
anchors = (
{
name = mark0;
position = "{250, 735}";
},
{
name = mark0.1;
position = "{289, 735}";
},
{
name = mark0.2;
position = "{436, 735}";
},
{
name = mark0.3;
position = "{250, 0}";
},
{
name = mark0.4;
position = "{236, 265}";
},
{
name = mark0.5;
position = "{250, 368}";
}
);
layerId = "0A6BB479-68DF-438A-AB6B-934827A2B9BB";
shapes = (
{
closed = 1;
nodes = (
(212,0,l),
(212,511,l),
(61,511,l),
(61,530,l),
(212,530,l),
(212,594,ls),
(212,655,o),
(236,735,o),
(353,735,cs),
(438,735,l),
(438,716,l),
(353,716,ls),
(283,716,o),
(233,679,o),
(233,594,cs),
(233,530,l),
(438,530,l),
(438,511,l),
(233,511,l),
(233,0,l)
);
}
);
width = 500;
}
);
unicode = 102;
},
{
glyphname = g;
layers = (
{
anchors = (
{
name = mark0;
position = "{300, 530}";
},
{
name = mark0.1;
position = "{536, 530}";
},
{
name = mark0.2;
position = "{300, -205}";
},
{
name = mark0.3;
position = "{300, 265}";
},
{
name = mark0.4;
position = "{300, 163}";
}
);
layerId = "AC532A80-AEF9-404E-A94E-472F4CBCE5BB";
shapes = (
{
closed = 1;
nodes = (
(298,-213,ls),
(210,-213,o),
(68,-190,o),
(62,-55,c),
(208,-55,l),
(208,-82,o),
(251,-89,o),
(262,-91,cs),
(274,-93,o),
(286,-93,o),
(298,-93,c),
(373,-101,o),
(390,-32,o),
(390,41,cs),
(390,95,l),
(374,53,o),
(344,21,o),
(299,3,cs),
(278,-5,o),
(256,-9,o),
(233,-8,c),
(138,-8,o),
(56,52,o),
(56,210,cs),
(56,320,ls),
(56,421,o),
(95,538,o),
(233,538,c),
(250,539,o),
(267,536,o),
(283,532,cs),
(335,518,o),
(370,484,o),
(390,435,c),
(390,530,l),
(536,530,l),
(536,22,ls),
(536,-80,o),
(509,-202,o),
(315,-213,c)
);
},
{
closed = 1;
nodes = (
(368,105,o),
(390,172,o),
(390,227,cs),
(390,295,ls),
(390,324,o),
(395,429,o),
(296,418,c),
(223,425,o),
(202,359,o),
(202,303,cs),
(202,235,ls),
(202,210,o),
(197,95,o),
(296,112,c)
);
}
);
width = 600;
},
{
anchors = (
{
name = mark0;
position = "{300, 530}";
},
{
name = mark0.1;
position = "{536, 530}";
},
{
name = mark0.2;
position = "{300, -205}";
},
{
name = mark0.3;
position = "{300, 265}";
},
{
name = mark0.4;
position = "{300, 163}";
}
);
layerId = "3EF66B8B-A4EF-422E-A8E2-9DC69E93467B";
shapes = (
{
closed = 1;
nodes = (
(297,-213,ls),
(211,-213,o),
(76,-190,o),
(70,-68,c),
(160,-68,l),
(160,-121,o),
(241,-134,o),
(259,-136,cs),
(272,-137,o),
(284,-138,o),
(297,-138,c),
(380,-142,o),
(438,-85,o),
(438,25,cs),
(438,104,l),
(414,43,o),
(364,8,o),
(296,-2,c),
(276,-6,o),
(255,-8,o),
(233,-6,cs),
(134,1,o),
(64,76,o),
(64,210,cs),
(64,320,ls),
(64,411,o),
(98,524,o),
(233,536,c),
(251,538,o),
(270,537,o),
(287,535,cs),
(351,527,o),
(409,496,o),
(438,426,c),
(438,530,l),
(528,530,l),
(528,14,ls),
(528,-87,o),
(490,-207,o),
(307,-213,c)
);
},
{
closed = 1;
nodes = (
(376,63,o),
(438,118,o),
(438,219,cs),
(438,306,ls),
(438,364,o),
(420,469,o),
(296,463,c),
(213,467,o),
(154,410,o),
(154,311,cs),
(154,224,ls),
(154,170,o),
(169,58,o),
(296,67,c)
);
}
);
width = 600;
},
{
anchors = (
{
name = mark0;
position = "{300, 530}";
},
{
name = mark0.1;
position = "{536, 530}";
},
{
name = mark0.2;
position = "{300, -205}";
},
{
name = mark0.3;
position = "{300, 265}";
},
{
name = mark0.4;
position = "{300, 163}";
}
);
layerId = "0A6BB479-68DF-438A-AB6B-934827A2B9BB";
shapes = (
{
closed = 1;
nodes = (
(212,-213,o),
(87,-189,o),
(80,-85,c),
(101,-85,l),
(101,-170,o),
(228,-190,o),
(255,-192,cs),
(269,-193,o),
(282,-194,o),
(296,-194,cs),
(389,-194,o),
(497,-151,o),
(497,5,cs),
(497,116,l),
(463,31,o),
(390,-8,o),
(293,-8,cs),
(273,-8,o),
(254,-6,o),
(234,-3,cs),
(128,13,o),
(74,105,o),
(74,210,cs),
(74,320,ls),
(74,398,o),
(101,507,o),
(234,533,cs),
(253,537,o),
(273,538,o),
(293,538,cs),
(372,538,o),
(458,511,o),
(497,414,c),
(497,530,l),
(518,530,l),
(518,5,ls),
(518,-96,o),
(466,-213,o),
(296,-213,c)
);
},
{
closed = 1;
nodes = (
(386,11,o),
(497,50,o),
(497,210,cs),
(497,320,ls),
(497,414,o),
(451,519,o),
(296,519,cs),
(201,519,o),
(95,474,o),
(95,320,cs),
(95,210,ls),
(95,119,o),
(134,11,o),
(296,11,cs)
);
}
);
width = 600;
}
);
unicode = 103;
},
{
glyphname = h;
layers = (
{
anchors = (
{
name = mark0;
position = "{300, 735}";
},
{
name = mark0.1;
position = "{137, 735}";
},
{
name = mark0.2;
position = "{536, 735}";
},
{
name = mark0.3;
position = "{300, 0}";
},
{
name = mark0.4;
position = "{300, 382}";
},
{
name = mark0.5;
position = "{300, 368}";
}
);
layerId = "AC532A80-AEF9-404E-A94E-472F4CBCE5BB";
shapes = (
{
closed = 1;
nodes = (
(64,0,l),
(64,735,l),
(210,735,l),
(210,436,l),
(231,481,o),
(258,512,o),
(307,529,cs),
(324,535,o),
(343,538,o),
(363,538,cs),
(454,538,o),
(536,479,o),
(536,320,cs),
(536,0,l),
(390,0,l),
(390,224,ls),
(390,305,o),
(406,428,o),
(300,418,c),
(186,428,o),
(210,262,o),
(210,224,cs),
(210,0,l)
);
}
);
width = 600;
},
{
anchors = (
{
name = mark0;
position = "{300, 735}";
},
{
name = mark0.1;
position = "{137, 735}";
},
{
name = mark0.2;
position = "{536, 735}";
},
{
name = mark0.3;
position = "{300, 0}";
},
{
name = mark0.4;
position = "{300, 382}";
},
{
name = mark0.5;
position = "{300, 368}";
}
);
layerId = "3EF66B8B-A4EF-422E-A8E2-9DC69E93467B";
shapes = (
{
closed = 1;
nodes = (
(72,0,l),
(72,735,l),
(162,735,l),
(162,427,l),
(186,485,o),
(232,524,o),
(305,533,c),
(323,536,o),
(342,538,o),
(362,536,cs),
(450,528,o),
(528,466,o),
(528,320,cs),
(528,0,l),
(438,0,l),
(438,267,ls),
(438,357,o),
(424,468,o),
(300,463,c),
(192,468,o),
(162,355,o),
(162,267,cs),
(162,0,l)
);
}
);
width = 600;
},
{
anchors = (
{
name = mark0;
position = "{300, 735}";
},
{
name = mark0.1;
position = "{137, 735}";
},
{
name = mark0.2;
position = "{536, 735}";
},
{
name = mark0.3;
position = "{300, 0}";
},
{
name = mark0.4;
position = "{300, 382}";
},
{
name = mark0.5;
position = "{300, 368}";
}
);
layerId = "0A6BB479-68DF-438A-AB6B-934827A2B9BB";
shapes = (
{
closed = 1;
nodes = (
(82,0,l),
(82,735,l),
(103,735,l),
(103,415,l),
(130,489,o),
(199,538,o),
(303,538,cs),
(321,538,o),
(341,537,o),
(361,533,cs),
(446,516,o),
(518,449,o),
(518,320,cs),
(518,0,l),
(497,0,l),
(497,320,ls),
(497,421,o),
(447,519,o),
(300,519,cs),
(199,519,o),
(103,471,o),
(103,320,cs),
(103,0,l)
);
}
);
width = 600;
}
);
unicode = 104;
},
{
glyphname = k;
layers = (
{
anchors = (
{
name = mark0;
position = "{300, 735}";
},
{
name = mark0.1;
position = "{156, 735}";
},
{
name = mark0.2;
position = "{536, 735}";
},
{
name = mark0.3;
position = "{300, 0}";
},
{
name = mark0.4;
position = "{563, 0}";
},
{
name = mark0.5;
position = "{300, 382}";
},
{
name = mark0.6;
position = "{300, 368}";
}
);
layerId = "AC532A80-AEF9-404E-A94E-472F4CBCE5BB";
shapes = (
{
closed = 1;
nodes = (
(399,0,l),
(276,190,l),
(228,134,l),
(228,0,l),
(83,0,l),
(83,735,l),
(228,735,l),
(228,314,l),
(392,530,l),
(563,530,l),
(357,286,l),
(563,0,l)
);
}
);
width = 600;
},
{
anchors = (
{
name = mark0;
position = "{300, 735}";
},
{
name = mark0.1;
position = "{156, 735}";
},
{
name = mark0.2;
position = "{536, 735}";
},
{
name = mark0.3;
position = "{300, 0}";
},
{
name = mark0.4;
position = "{563, 0}";
},
{
name = mark0.5;
position = "{300, 382}";
},
{
name = mark0.6;
position = "{300, 368}";
}
);
layerId = "3EF66B8B-A4EF-422E-A8E2-9DC69E93467B";
shapes = (
{
closed = 1;
nodes = (
(436,0,l),
(247,230,l),
(180,166,l),
(180,0,l),
(91,0,l),
(91,735,l),
(180,735,l),
(180,277,l),
(431,530,l),
(540,530,l),
(299,289,l),
(540,0,l)
);
}
);
width = 600;
},
{
anchors = (
{
name = mark0;
position = "{300, 735}";
},
{
name = mark0.1;
position = "{156, 735}";
},
{
name = mark0.2;
position = "{536, 735}";
},
{
name = mark0.3;
position = "{300, 0}";
},
{
name = mark0.4;
position = "{563, 0}";
},
{
name = mark0.5;
position = "{300, 382}";
},
{
name = mark0.6;
position = "{300, 368}";
}
);
layerId = "0A6BB479-68DF-438A-AB6B-934827A2B9BB";
shapes = (
{
closed = 1;
nodes = (
(483,0,l),
(210,279,l),
(121,205,l),
(121,0,l),
(101,0,l),
(101,735,l),
(121,735,l),
(121,231,l),
(480,530,l),
(511,530,l),
(226,292,l),
(511,0,l)
);
}
);
width = 600;
}
);
unicode = 107;
},
{
glyphname = l;
layers = (
{
anchors = (
{
name = mark0;
position = "{150, 735}";
},
{
name = mark0.1;
position = "{150, 735}";
},
{
name = mark0.2;
position = "{236, 735}";
},
{
name = mark0.3;
position = "{150, 0}";
},
{
name = mark0.4;
position = "{150, 0}";
},
{
name = mark0.5;
position = "{223, 0}";
},
{
name = mark0.6;
position = "{150, 382}";
},
{
name = mark0.7;
position = "{150, 368}";
}
);
layerId = "AC532A80-AEF9-404E-A94E-472F4CBCE5BB";
shapes = (
{
closed = 1;
nodes = (
(77,0,l),
(77,735,l),
(223,735,l),
(223,0,l)
);
}
);
width = 300;
},
{
anchors = (
{
name = mark0;
position = "{150, 735}";
},
{
name = mark0.1;
position = "{150, 735}";
},
{
name = mark0.2;
position = "{236, 735}";
},
{
name = mark0.3;
position = "{150, 0}";
},
{
name = mark0.4;
position = "{150, 0}";
},
{
name = mark0.5;
position = "{223, 0}";
},
{
name = mark0.6;
position = "{150, 382}";
},
{
name = mark0.7;
position = "{150, 368}";
}
);
layerId = "3EF66B8B-A4EF-422E-A8E2-9DC69E93467B";
shapes = (
{
closed = 1;
nodes = (
(105,0,l),
(105,735,l),
(195,735,l),
(195,0,l)
);
}
);
width = 300;
},
{
anchors = (
{
name = mark0;
position = "{150, 735}";
},
{
name = mark0.1;
position = "{150, 735}";
},
{
name = mark0.2;
position = "{236, 735}";
},
{
name = mark0.3;
position = "{150, 0}";
},
{
name = mark0.4;
position = "{150, 0}";
},
{
name = mark0.5;
position = "{223, 0}";
},
{
name = mark0.6;
position = "{150, 382}";
},
{
name = mark0.7;
position = "{150, 368}";
}
);
layerId = "0A6BB479-68DF-438A-AB6B-934827A2B9BB";
shapes = (
{
closed = 1;
nodes = (
(140,0,l),
(140,735,l),
(160,735,l),
(160,0,l)
);
}
);
width = 300;
}
);
unicode = 108;
},
{
glyphname = m;
layers = (
{
anchors = (
{
name = mark0;
position = "{450, 530}";
},
{
name = mark0.1;
position = "{836, 530}";
},
{
name = mark0.2;
position = "{450, 0}";
},
{
name = mark0.3;
position = "{450, 276}";
},
{
name = mark0.4;
position = "{450, 265}";
}
);
layerId = "AC532A80-AEF9-404E-A94E-472F4CBCE5BB";
shapes = (
{
closed = 1;
nodes = (
(64,0,l),
(64,530,l),
(210,530,l),
(210,440,l),
(227,481,o),
(255,510,o),
(288,524,cs),
(309,533,o),
(333,538,o),
(356,538,c),
(431,541,o),
(498,484,o),
(513,411,c),
(526,474,o),
(581,531,o),
(647,537,cs),
(654,538,o),
(662,538,o),
(670,538,cs),
(765,538,o),
(836,468,o),
(836,325,cs),
(836,0,l),
(690,0,l),
(690,279,ls),
(690,328,o),
(697,423,o),
(607,418,c),
(607,418,o),
(607,418,o),
(607,418,c),
(607,418,o),
(607,418,o),
(607,418,c),
(557,421,o),
(520,376,o),
(523,325,c),
(523,0,l),
(377,0,l),
(377,279,ls),
(377,327,o),
(385,423,o),
(293,418,c),
(293,418,o),
(293,418,o),
(293,418,c),
(209,423,o),
(210,336,o),
(210,279,cs),
(210,0,l)
);
}
);
width = 900;
},
{
anchors = (
{
name = mark0;
position = "{450, 530}";
},
{
name = mark0.1;
position = "{836, 530}";
},
{
name = mark0.2;
position = "{450, 0}";
},
{
name = mark0.3;
position = "{450, 276}";
},
{
name = mark0.4;
position = "{450, 265}";
}
);
layerId = "3EF66B8B-A4EF-422E-A8E2-9DC69E93467B";
shapes = (
{
closed = 1;
nodes = (
(72,0,l),
(72,530,l),
(162,530,l),
(162,436,l),
(182,489,o),
(226,522,o),
(282,530,c),
(302,535,o),
(324,537,o),
(346,535,c),
(414,530,o),
(469,479,o),
(486,410,c),
(502,476,o),
(557,534,o),
(640,537,c),
(648,538,o),
(656,538,o),
(664,538,c),
(752,533,o),
(828,473,o),
(828,332,cs),
(828,0,l),
(738,0,l),
(738,306,ls),
(738,368,o),
(726,466,o),
(617,463,c),
(610,463,o),
(603,462,o),
(596,461,cs),
(589,459,o),
(583,457,o),
(577,454,c),
(522,440,o),
(493,388,o),
(495,332,c),
(495,0,l),
(405,0,l),
(405,306,ls),
(405,370,o),
(391,466,o),
(283,463,c),
(276,463,o),
(269,462,o),
(263,461,c),
(176,456,o),
(162,372,o),
(162,306,cs),
(162,0,l)
);
}
);
width = 900;
},
{
anchors = (
{
name = mark0;
position = "{450, 530}";
},
{
name = mark0.1;
position = "{836, 530}";
},
{
name = mark0.2;
position = "{450, 0}";
},
{
name = mark0.3;
position = "{450, 276}";
},
{
name = mark0.4;
position = "{450, 265}";
}
);
layerId = "0A6BB479-68DF-438A-AB6B-934827A2B9BB";
shapes = (
{
closed = 1;
nodes = (
(82,0,l),
(82,530,l),
(103,530,l),
(103,431,l),
(126,498,o),
(190,538,o),
(274,538,cs),
(294,538,o),
(313,536,o),
(333,531,cs),
(393,517,o),
(432,472,o),
(453,408,c),
(471,479,o),
(527,538,o),
(632,538,cs),
(640,538,o),
(648,538,o),
(657,537,cs),
(736,527,o),
(818,480,o),
(818,340,cs),
(818,0,l),
(797,0,l),
(797,340,ls),
(797,419,o),
(762,519,o),
(629,519,cs),
(613,519,o),
(598,517,o),
(582,514,cs),
(566,511,o),
(552,506,o),
(539,498,cs),
(479,463,o),
(460,403,o),
(460,340,cs),
(460,0,l),
(440,0,l),
(440,340,ls),
(440,423,o),
(399,519,o),
(271,519,cs),
(255,519,o),
(240,517,o),
(225,514,cs),
(135,497,o),
(103,418,o),
(103,340,cs),
(103,0,l)
);
}
);
width = 900;
}
);
unicode = 109;
},
{
glyphname = n;
layers = (
{
anchors = (
{
name = mark0;
position = "{300, 530}";
},
{
name = mark0.1;
position = "{536, 530}";
},
{
name = mark0.2;
position = "{300, 0}";
},
{
name = mark0.3;
position = "{536, 0}";
},
{
name = mark0.4;
position = "{300, 276}";
},
{
name = mark0.5;
position = "{300, 265}";
}
);
layerId = "AC532A80-AEF9-404E-A94E-472F4CBCE5BB";
shapes = (
{
closed = 1;
nodes = (
(64,0,l),
(64,530,l),
(210,530,l),
(210,436,l),
(227,482,o),
(265,519,o),
(313,531,cs),
(329,535,o),
(345,538,o),
(363,538,cs),
(460,538,o),
(536,470,o),
(536,320,cs),
(536,0,l),
(390,0,l),
(390,213,ls),
(390,296,o),
(412,424,o),
(300,418,c),
(194,424,o),
(210,293,o),
(210,213,cs),
(210,0,l)
);
}
);
width = 600;
},
{
anchors = (
{
name = mark0;
position = "{300, 530}";
},
{
name = mark0.1;
position = "{536, 530}";
},
{
name = mark0.2;
position = "{300, 0}";
},
{
name = mark0.3;
position = "{536, 0}";
},
{
name = mark0.4;
position = "{300, 276}";
},
{
name = mark0.5;
position = "{300, 265}";
}
);
layerId = "3EF66B8B-A4EF-422E-A8E2-9DC69E93467B";
shapes = (
{
closed = 1;
nodes = (
(72,0,l),
(72,530,l),
(162,530,l),
(162,427,l),
(184,485,o),
(236,527,o),
(309,534,c),
(325,536,o),
(343,538,o),
(362,536,cs),
(454,528,o),
(528,461,o),
(528,320,cs),
(528,0,l),
(438,0,l),
(438,261,ls),
(438,347,o),
(432,466,o),
(300,463,c),
(196,466,o),
(162,372,o),
(162,261,cs),
(162,0,l)
);
}
);
width = 600;
},
{
anchors = (
{
name = mark0;
position = "{300, 530}";
},
{
name = mark0.1;
position = "{536, 530}";
},
{
name = mark0.2;
position = "{300, 0}";
},
{
name = mark0.3;
position = "{536, 0}";
},
{
name = mark0.4;
position = "{300, 276}";
},
{
name = mark0.5;
position = "{300, 265}";
}
);
layerId = "0A6BB479-68DF-438A-AB6B-934827A2B9BB";
shapes = (
{
closed = 1;
nodes = (
(82,0,l),
(82,530,l),
(103,530,l),
(103,415,l),
(130,489,o),
(199,538,o),
(303,538,cs),
(321,538,o),
(341,537,o),
(361,533,cs),
(446,516,o),
(518,449,o),
(518,320,cs),
(518,0,l),
(497,0,l),
(497,320,ls),
(497,410,o),
(456,519,o),
(300,519,cs),
(199,519,o),
(103,471,o),
(103,320,cs),
(103,0,l)
);
}
);
width = 600;
}
);
unicode = 110;
},
{
glyphname = o;
layers = (
{
anchors = (
{
name = mark0;
position = "{300, 530}";
},
{
name = mark0.1;
position = "{536, 530}";
},
{
name = mark0.2;
position = "{300, 0}";
},
{
name = mark0.3;
position = "{300, 276}";
},
{
name = mark0.4;
position = "{300, 265}";
}
);
layerId = "AC532A80-AEF9-404E-A94E-472F4CBCE5BB";
shapes = (
{
closed = 1;
nodes = (
(300,-8,ls),
(203,-8,o),
(56,26,o),
(56,210,cs),
(56,302,ls),
(56,408,o),
(92,538,o),
(300,538,cs),
(410,538,o),
(544,492,o),
(544,320,cs),
(544,228,ls),
(544,136,o),
(523,3,o),
(319,-8,c)
);
},
{
closed = 1;
nodes = (
(374,101,o),
(398,170,o),
(398,227,cs),
(398,295,ls),
(398,318,o),
(408,430,o),
(300,418,c),
(229,425,o),
(202,364,o),
(202,303,cs),
(202,235,ls),
(202,201,o),
(192,112,o),
(300,112,c)
);
}
);
width = 600;
},
{
anchors = (
{
name = mark0;
position = "{300, 530}";
},
{
name = mark0.1;
position = "{536, 530}";
},
{
name = mark0.2;
position = "{300, 0}";
},
{
name = mark0.3;
position = "{300, 276}";
},
{
name = mark0.4;
position = "{300, 265}";
}
);
layerId = "3EF66B8B-A4EF-422E-A8E2-9DC69E93467B";
shapes = (
{
closed = 1;
nodes = (
(300,-8,ls),
(198,-8,o),
(64,32,o),
(64,210,cs),
(64,310,ls),
(64,412,o),
(103,538,o),
(300,538,cs),
(407,538,o),
(536,491,o),
(536,320,cs),
(536,220,ls),
(536,118,o),
(497,-2,o),
(311,-8,c)
);
},
{
closed = 1;
nodes = (
(379,61,o),
(446,114,o),
(446,219,cs),
(446,306,ls),
(446,361,o),
(430,470,o),
(300,463,c),
(216,467,o),
(154,412,o),
(154,311,cs),
(154,224,ls),
(154,162,o),
(169,67,o),
(300,67,c)
);
}
);
width = 600;
},
{
anchors = (
{
name = mark0;
position = "{300, 530}";
},
{
name = mark0.1;
position = "{536, 530}";
},
{
name = mark0.2;
position = "{300, 0}";
},
{
name = mark0.3;
position = "{300, 276}";
},
{
name = mark0.4;
position = "{300, 265}";
}
);
layerId = "0A6BB479-68DF-438A-AB6B-934827A2B9BB";
shapes = (
{
closed = 1;
nodes = (
(191,-8,o),
(74,40,o),
(74,210,cs),
(74,320,ls),
(74,417,o),
(117,538,o),
(300,538,cs),
(404,538,o),
(526,490,o),
(526,320,cs),
(526,210,ls),
(526,96,o),
(465,-8,o),
(300,-8,c)
);
},
{
closed = 1;
nodes = (
(385,11,o),
(505,43,o),
(505,210,cs),
(505,320,ls),
(505,415,o),
(457,519,o),
(300,519,cs),
(199,519,o),
(95,471,o),
(95,320,cs),
(95,210,ls),
(95,113,o),
(140,11,o),
(300,11,cs)
);
}
);
width = 600;
}
);
unicode = 111;
},
{
glyphname = p;
layers = (
{
anchors = (
{
name = mark0;
position = "{300, 530}";
},
{
name = mark0.1;
position = "{536, 530}";
},
{
name = mark0.2;
position = "{300, -205}";
},
{
name = mark0.3;
position = "{137, -205}";
},
{
name = mark0.4;
position = "{300, 177}";
},
{
name = mark0.5;
position = "{300, 163}";
}
);
layerId = "AC532A80-AEF9-404E-A94E-472F4CBCE5BB";
shapes = (
{
closed = 1;
nodes = (
(64,-205,l),
(64,530,l),
(210,530,l),
(210,435,l),
(225,481,o),
(265,515,o),
(310,530,cs),
(328,536,o),
(348,539,o),
(367,538,c),
(467,538,o),
(544,468,o),
(544,320,cs),
(544,210,ls),
(544,116,o),
(513,-8,o),
(367,-8,c),
(348,-9,o),
(328,-6,o),
(310,0,cs),
(266,14,o),
(225,49,o),
(210,95,c),
(210,-205,l)
);
},
{
closed = 1;
nodes = (
(376,105,o),
(398,172,o),
(398,227,cs),
(398,295,ls),
(398,324,o),
(403,429,o),
(304,418,c),
(231,425,o),
(210,359,o),
(210,303,cs),
(210,235,ls),
(210,210,o),
(205,95,o),
(304,112,c)
);
}
);
width = 600;
},
{
anchors = (
{
name = mark0;
position = "{300, 530}";
},
{
name = mark0.1;
position = "{536, 530}";
},
{
name = mark0.2;
position = "{300, -205}";
},
{
name = mark0.3;
position = "{137, -205}";
},
{
name = mark0.4;
position = "{300, 177}";
},
{
name = mark0.5;
position = "{300, 163}";
}
);
layerId = "3EF66B8B-A4EF-422E-A8E2-9DC69E93467B";
shapes = (
{
closed = 1;
nodes = (
(72,-205,l),
(72,530,l),
(162,530,l),
(162,426,l),
(184,489,o),
(242,525,o),
(309,534,c),
(327,537,o),
(347,538,o),
(366,536,c),
(456,530,o),
(536,465,o),
(536,320,cs),
(536,210,ls),
(536,116,o),
(500,2,o),
(366,-6,c),
(347,-8,o),
(327,-7,o),
(309,-4,c),
(247,4,o),
(185,37,o),
(162,104,c),
(162,-205,l)
);
},
{
closed = 1;
nodes = (
(384,63,o),
(446,118,o),
(446,219,cs),
(446,306,ls),
(446,364,o),
(428,469,o),
(304,463,c),
(221,467,o),
(162,410,o),
(162,311,cs),
(162,224,ls),
(162,170,o),
(177,58,o),
(304,67,c)
);
}
);
width = 600;
},
{
anchors = (
{
name = mark0;
position = "{300, 530}";
},
{
name = mark0.1;
position = "{536, 530}";
},
{
name = mark0.2;
position = "{300, -205}";
},
{
name = mark0.3;
position = "{137, -205}";
},
{
name = mark0.4;
position = "{300, 177}";
},
{
name = mark0.5;
position = "{300, 163}";
}
);
layerId = "0A6BB479-68DF-438A-AB6B-934827A2B9BB";
shapes = (
{
closed = 1;
nodes = (
(82,-205,l),
(82,530,l),
(103,530,l),
(103,414,l),
(132,498,o),
(213,538,o),
(307,538,cs),
(326,538,o),
(345,536,o),
(365,533,cs),
(443,519,o),
(526,461,o),
(526,320,cs),
(526,210,ls),
(526,116,o),
(483,15,o),
(365,-3,cs),
(345,-6,o),
(326,-8,o),
(307,-8,cs),
(223,-8,o),
(136,21,o),
(103,116,c),
(103,-205,l)
);
},
{
closed = 1;
nodes = (
(394,11,o),
(505,50,o),
(505,210,cs),
(505,320,ls),
(505,414,o),
(459,519,o),
(304,519,cs),
(209,519,o),
(103,474,o),
(103,320,cs),
(103,210,ls),
(103,119,o),
(142,11,o),
(304,11,cs)
);
}
);
width = 600;
}
);
unicode = 112;
},
{
glyphname = q;
layers = (
{
anchors = (
{
name = mark0;
position = "{300, 530}";
},
{
name = mark0.1;
position = "{536, 530}";
},
{
name = mark0.2;
position = "{300, -205}";
},
{
name = mark0.3;
position = "{463, -205}";
},
{
name = mark0.4;
position = "{488, -205}";
},
{
name = mark0.5;
position = "{300, 177}";
},
{
name = mark0.6;
position = "{300, 163}";
}
);
layerId = "AC532A80-AEF9-404E-A94E-472F4CBCE5BB";
shapes = (
{
closed = 1;
nodes = (
(390,-205,l),
(390,95,l),
(375,49,o),
(335,15,o),
(290,0,cs),
(272,-6,o),
(252,-9,o),
(233,-8,c),
(136,-8,o),
(56,52,o),
(56,210,cs),
(56,320,ls),
(56,417,o),
(92,538,o),
(233,538,c),
(252,539,o),
(272,536,o),
(290,530,cs),
(334,516,o),
(375,481,o),
(390,435,c),
(390,530,l),
(536,530,l),
(536,-205,l)
);
},
{
closed = 1;
nodes = (
(368,105,o),
(390,172,o),
(390,227,cs),
(390,295,ls),
(390,324,o),
(395,429,o),
(296,418,c),
(223,425,o),
(202,359,o),
(202,303,cs),
(202,235,ls),
(202,210,o),
(197,95,o),
(296,112,c)
);
}
);
width = 600;
},
{
anchors = (
{
name = mark0;
position = "{300, 530}";
},
{
name = mark0.1;
position = "{536, 530}";
},
{
name = mark0.2;
position = "{300, -205}";
},
{
name = mark0.3;
position = "{463, -205}";
},
{
name = mark0.4;
position = "{488, -205}";
},
{
name = mark0.5;
position = "{300, 177}";
},
{
name = mark0.6;
position = "{300, 163}";
}
);
layerId = "3EF66B8B-A4EF-422E-A8E2-9DC69E93467B";
shapes = (
{
closed = 1;
nodes = (
(438,-205,l),
(438,104,l),
(414,41,o),
(359,5,o),
(291,-4,c),
(272,-7,o),
(253,-8,o),
(233,-6,c),
(132,1,o),
(64,76,o),
(64,210,cs),
(64,320,ls),
(64,407,o),
(95,524,o),
(233,536,c),
(252,538,o),
(272,537,o),
(291,534,c),
(351,526,o),
(412,494,o),
(438,426,c),
(438,530,l),
(528,530,l),
(528,-205,l)
);
},
{
closed = 1;
nodes = (
(376,63,o),
(438,118,o),
(438,219,cs),
(438,306,ls),
(438,364,o),
(420,469,o),
(296,463,c),
(213,467,o),
(154,410,o),
(154,311,cs),
(154,224,ls),
(154,170,o),
(169,58,o),
(296,67,c)
);
}
);
width = 600;
},
{
anchors = (
{
name = mark0;
position = "{300, 530}";
},
{
name = mark0.1;
position = "{536, 530}";
},
{
name = mark0.2;
position = "{300, -205}";
},
{
name = mark0.3;
position = "{463, -205}";
},
{
name = mark0.4;
position = "{488, -205}";
},
{
name = mark0.5;
position = "{300, 177}";
},
{
name = mark0.6;
position = "{300, 163}";
}
);
layerId = "0A6BB479-68DF-438A-AB6B-934827A2B9BB";
shapes = (
{
closed = 1;
nodes = (
(497,-205,l),
(497,116,l),
(463,31,o),
(390,-8,o),
(293,-8,cs),
(273,-8,o),
(254,-6,o),
(234,-3,cs),
(128,13,o),
(74,105,o),
(74,210,cs),
(74,320,ls),
(74,395,o),
(99,507,o),
(234,533,cs),
(253,537,o),
(273,538,o),
(293,538,cs),
(372,538,o),
(458,511,o),
(497,414,c),
(497,530,l),
(518,530,l),
(518,-205,l)
);
},
{
closed = 1;
nodes = (
(386,11,o),
(497,50,o),
(497,210,cs),
(497,320,ls),
(497,414,o),
(451,519,o),
(296,519,cs),
(201,519,o),
(95,474,o),
(95,320,cs),
(95,210,ls),
(95,119,o),
(134,11,o),
(296,11,cs)
);
}
);
width = 600;
}
);
unicode = 113;
},
{
glyphname = r;
layers = (
{
anchors = (
{
name = mark0;
position = "{250, 530}";
},
{
name = mark0.1;
position = "{248, 530}";
},
{
name = mark0.2;
position = "{436, 530}";
},
{
name = mark0.3;
position = "{250, 0}";
},
{
name = mark0.4;
position = "{175, 0}";
},
{
name = mark0.5;
position = "{218, 265}";
},
{
name = mark0.6;
position = "{250, 265}";
}
);
layerId = "AC532A80-AEF9-404E-A94E-472F4CBCE5BB";
shapes = (
{
closed = 1;
nodes = (
(102,0,l),
(102,530,l),
(248,530,l),
(248,404,l),
(277,478,o),
(350,546,o),
(452,538,c),
(452,410,l),
(304,417,o),
(248,371,o),
(248,169,cs),
(248,0,l)
);
}
);
width = 500;
},
{
anchors = (
{
name = mark0;
position = "{250, 530}";
},
{
name = mark0.1;
position = "{248, 530}";
},
{
name = mark0.2;
position = "{436, 530}";
},
{
name = mark0.3;
position = "{250, 0}";
},
{
name = mark0.4;
position = "{175, 0}";
},
{
name = mark0.5;
position = "{218, 265}";
},
{
name = mark0.6;
position = "{250, 265}";
}
);
layerId = "3EF66B8B-A4EF-422E-A8E2-9DC69E93467B";
shapes = (
{
closed = 1;
nodes = (
(114,0,l),
(114,530,l),
(204,530,l),
(204,392,l),
(237,482,o),
(331,539,o),
(441,535,c),
(441,455,l),
(304,459,o),
(204,414,o),
(204,219,cs),
(204,0,l)
);
}
);
width = 500;
},
{
anchors = (
{
name = mark0;
position = "{250, 530}";
},
{
name = mark0.1;
position = "{248, 530}";
},
{
name = mark0.2;
position = "{436, 530}";
},
{
name = mark0.3;
position = "{250, 0}";
},
{
name = mark0.4;
position = "{175, 0}";
},
{
name = mark0.5;
position = "{218, 265}";
},
{
name = mark0.6;
position = "{250, 265}";
}
);
layerId = "0A6BB479-68DF-438A-AB6B-934827A2B9BB";
shapes = (
{
closed = 1;
nodes = (
(128,0,l),
(128,530,l),
(149,530,l),
(149,377,l),
(188,487,o),
(308,531,o),
(427,531,c),
(427,511,l),
(303,511,o),
(149,468,o),
(149,281,cs),
(149,0,l)
);
}
);
width = 500;
}
);
unicode = 114;
},
{
glyphname = s;
layers = (
{
anchors = (
{
name = mark0;
position = "{300, 530}";
},
{
name = mark0.1;
position = "{536, 530}";
},
{
name = mark0.2;
position = "{300, 0}";
},
{
name = mark0.3;
position = "{300, 276}";
},
{
name = mark0.4;
position = "{300, 265}";
}
);
layerId = "AC532A80-AEF9-404E-A94E-472F4CBCE5BB";
shapes = (
{
closed = 1;
nodes = (
(299,-8,ls),
(201,-8,o),
(62,21,o),
(62,150,c),
(204,150,l),
(214,115,o),
(248,108,o),
(299,108,cs),
(331,108,o),
(373,113,o),
(388,131,cs),
(392,136,o),
(395,142,o),
(395,149,c),
(390,187,o),
(340,199,o),
(311,204,cs),
(301,206,o),
(291,209,o),
(280,212,cs),
(227,227,ls),
(154,247,o),
(72,301,o),
(72,384,cs),
(72,507,o),
(214,538,o),
(301,538,cs),
(395,538,o),
(530,512,o),
(530,380,c),
(388,380,l),
(385,407,o),
(356,421,o),
(321,421,cs),
(314,421,o),
(307,422,o),
(301,422,cs),
(261,422,o),
(217,415,o),
(213,382,c),
(218,345,o),
(268,331,o),
(296,326,c),
(402,309,o),
(536,258,o),
(536,146,cs),
(536,33,o),
(404,-8,o),
(309,-8,cs)
);
}
);
width = 600;
},
{
anchors = (
{
name = mark0;
position = "{300, 530}";
},
{
name = mark0.1;
position = "{536, 530}";
},
{
name = mark0.2;
position = "{300, 0}";
},
{
name = mark0.3;
position = "{300, 276}";
},
{
name = mark0.4;
position = "{300, 265}";
}
);
layerId = "3EF66B8B-A4EF-422E-A8E2-9DC69E93467B";
shapes = (
{
closed = 1;
nodes = (
(299,-8,ls),
(199,-8,o),
(70,21,o),
(70,137,c),
(158,137,l),
(163,67,o),
(267,65,o),
(299,65,cs),
(344,65,o),
(406,70,o),
(432,113,cs),
(437,121,o),
(441,131,o),
(441,141,c),
(438,202,o),
(349,217,o),
(320,224,c),
(308,226,o),
(296,229,o),
(284,232,cs),
(235,246,ls),
(162,265,o),
(80,308,o),
(80,391,cs),
(80,497,o),
(199,538,o),
(301,538,cs),
(388,538,o),
(522,514,o),
(522,393,c),
(434,393,l),
(433,448,o),
(361,463,o),
(330,464,c),
(320,464,o),
(310,465,o),
(301,465,cs),
(241,465,o),
(169,448,o),
(167,390,c),
(170,330,o),
(255,313,o),
(287,306,cs),
(385,286,o),
(528,251,o),
(528,140,cs),
(528,24,o),
(386,-8,o),
(305,-8,cs)
);
}
);
width = 600;
},
{
anchors = (
{
name = mark0;
position = "{300, 530}";
},
{
name = mark0.1;
position = "{536, 530}";
},
{
name = mark0.2;
position = "{300, 0}";
},
{
name = mark0.3;
position = "{300, 276}";
},
{
name = mark0.4;
position = "{300, 265}";
}
);
layerId = "0A6BB479-68DF-438A-AB6B-934827A2B9BB";
shapes = (
{
closed = 1;
nodes = (
(197,-8,o),
(79,22,o),
(80,120,c),
(101,120,l),
(99,6,o),
(290,11,o),
(299,11,cs),
(360,11,o),
(447,16,o),
(487,90,cs),
(494,103,o),
(498,117,o),
(498,131,cs),
(498,220,o),
(361,240,o),
(331,248,cs),
(317,251,o),
(303,254,o),
(289,258,cs),
(246,269,ls),
(173,288,o),
(90,317,o),
(90,399,cs),
(90,484,o),
(181,538,o),
(301,538,cs),
(380,538,o),
(513,517,o),
(512,410,c),
(491,410,l),
(492,499,o),
(368,515,o),
(341,517,cs),
(327,518,o),
(314,519,o),
(301,519,cs),
(215,519,o),
(110,490,o),
(110,399,cs),
(110,311,o),
(239,290,o),
(276,282,c),
(364,257,o),
(518,242,o),
(518,132,cs),
(518,13,o),
(364,-8,o),
(299,-8,c)
);
}
);
width = 600;
}
);
unicode = 115;
},
{
glyphname = t;
layers = (
{
anchors = (
{
name = mark0;
position = "{250, 735}";
},
{
name = mark0.1;
position = "{216, 735}";
},
{
name = mark0.2;
position = "{457, 735}";
},
{
name = mark0.3;
position = "{250, 0}";
},
{
name = mark0.4;
position = "{280, 0}";
},
{
name = mark0.5;
position = "{234, 307}";
},
{
name = mark0.6;
position = "{250, 368}";
}
);
layerId = "AC532A80-AEF9-404E-A94E-472F4CBCE5BB";
shapes = (
{
closed = 1;
nodes = (
(457,0,l),
(371,0,ls),
(290,0,o),
(143,1,o),
(143,167,cs),
(143,410,l),
(26,410,l),
(26,530,l),
(143,530,l),
(143,735,l),
(288,735,l),
(288,530,l),
(457,530,l),
(457,410,l),
(288,410,l),
(288,167,l),
(288,167,o),
(288,167,o),
(288,167,c),
(288,167,o),
(288,167,o),
(288,167,c),
(288,119,o),
(337,120,o),
(371,120,cs),
(457,120,l)
);
}
);
width = 500;
},
{
anchors = (
{
name = mark0;
position = "{250, 735}";
},
{
name = mark0.1;
position = "{216, 735}";
},
{
name = mark0.2;
position = "{457, 735}";
},
{
name = mark0.3;
position = "{250, 0}";
},
{
name = mark0.4;
position = "{280, 0}";
},
{
name = mark0.5;
position = "{234, 307}";
},
{
name = mark0.6;
position = "{250, 368}";
}
);
layerId = "3EF66B8B-A4EF-422E-A8E2-9DC69E93467B";
shapes = (
{
closed = 1;
nodes = (
(452,0,l),
(360,0,ls),
(286,0,o),
(171,11,o),
(171,155,cs),
(171,455,l),
(29,455,l),
(29,530,l),
(171,530,l),
(171,735,l),
(260,735,l),
(260,530,l),
(452,530,l),
(452,455,l),
(260,455,l),
(260,155,ls),
(260,151,o),
(260,146,o),
(261,141,cs),
(262,136,o),
(264,131,o),
(266,127,c),
(275,77,o),
(332,75,o),
(360,75,cs),
(452,75,l)
);
}
);
width = 500;
},
{
anchors = (
{
name = mark0;
position = "{250, 735}";
},
{
name = mark0.1;
position = "{216, 735}";
},
{
name = mark0.2;
position = "{457, 735}";
},
{
name = mark0.3;
position = "{250, 0}";
},
{
name = mark0.4;
position = "{280, 0}";
},
{
name = mark0.5;
position = "{234, 307}";
},
{
name = mark0.6;
position = "{250, 368}";
}
);
layerId = "0A6BB479-68DF-438A-AB6B-934827A2B9BB";
shapes = (
{
closed = 1;
nodes = (
(445,0,l),
(346,0,ls),
(281,0,o),
(205,24,o),
(205,141,cs),
(205,511,l),
(33,511,l),
(33,530,l),
(205,530,l),
(205,735,l),
(226,735,l),
(226,530,l),
(445,530,l),
(445,511,l),
(226,511,l),
(226,141,ls),
(226,130,o),
(226,119,o),
(228,108,cs),
(230,97,o),
(233,87,o),
(238,77,c),
(259,24,o),
(325,19,o),
(346,19,cs),
(445,19,l)
);
}
);
width = 500;
}
);
unicode = 116;
},
{
glyphname = u;
layers = (
{
anchors = (
{
name = mark0;
position = "{300, 530}";
},
{
name = mark0.1;
position = "{536, 530}";
},
{
name = mark0.2;
position = "{300, 0}";
},
{
name = mark0.3;
position = "{536, 0}";
},
{
name = mark0.4;
position = "{300, 276}";
},
{
name = mark0.5;
position = "{300, 265}";
}
);
layerId = "AC532A80-AEF9-404E-A94E-472F4CBCE5BB";
shapes = (
{
closed = 1;
nodes = (
(138,-8,o),
(64,63,o),
(64,210,cs),
(64,530,l),
(210,530,l),
(210,317,ls),
(210,234,o),
(188,106,o),
(300,112,c),
(406,106,o),
(390,237,o),
(390,317,cs),
(390,530,l),
(536,530,l),
(536,0,l),
(390,0,l),
(390,94,l),
(366,30,o),
(307,-8,o),
(237,-8,cs)
);
}
);
width = 600;
},
{
anchors = (
{
name = mark0;
position = "{300, 530}";
},
{
name = mark0.1;
position = "{536, 530}";
},
{
name = mark0.2;
position = "{300, 0}";
},
{
name = mark0.3;
position = "{536, 0}";
},
{
name = mark0.4;
position = "{300, 276}";
},
{
name = mark0.5;
position = "{300, 265}";
}
);
layerId = "3EF66B8B-A4EF-422E-A8E2-9DC69E93467B";
shapes = (
{
closed = 1;
nodes = (
(161,-8,o),
(72,53,o),
(72,210,cs),
(72,530,l),
(162,530,l),
(162,269,ls),
(162,181,o),
(168,64,o),
(300,67,c),
(394,64,o),
(438,150,o),
(438,269,cs),
(438,530,l),
(528,530,l),
(528,0,l),
(438,0,l),
(438,103,l),
(409,29,o),
(344,-8,o),
(264,-8,cs)
);
}
);
width = 600;
},
{
anchors = (
{
name = mark0;
position = "{300, 530}";
},
{
name = mark0.1;
position = "{536, 530}";
},
{
name = mark0.2;
position = "{300, 0}";
},
{
name = mark0.3;
position = "{536, 0}";
},
{
name = mark0.4;
position = "{300, 276}";
},
{
name = mark0.5;
position = "{300, 265}";
}
);
layerId = "0A6BB479-68DF-438A-AB6B-934827A2B9BB";
shapes = (
{
closed = 1;
nodes = (
(190,-8,o),
(82,41,o),
(82,210,cs),
(82,530,l),
(103,530,l),
(103,210,ls),
(103,115,o),
(142,11,o),
(300,11,cs),
(380,11,o),
(497,41,o),
(497,210,cs),
(497,530,l),
(518,530,l),
(518,0,l),
(497,0,l),
(497,115,l),
(462,28,o),
(390,-8,o),
(297,-8,cs)
);
}
);
width = 600;
}
);
unicode = 117;
},
{
glyphname = v;
layers = (
{
anchors = (
{
name = mark0;
position = "{300, 530}";
},
{
name = mark0.1;
position = "{536, 530}";
},
{
name = mark0.2;
position = "{300, 0}";
},
{
name = mark0.3;
position = "{300, 276}";
},
{
name = mark0.4;
position = "{300, 265}";
}
);
layerId = "AC532A80-AEF9-404E-A94E-472F4CBCE5BB";
shapes = (
{
closed = 1;
nodes = (
(216,0,l),
(37,530,l),
(191,530,l),
(218,429,o),
(246,329,o),
(274,228,cs),
(288,177,ls),
(292,163,o),
(296,149,o),
(300,135,c),
(312,177,l),
(346,294,o),
(378,412,o),
(409,530,c),
(563,530,l),
(384,0,l)
);
}
);
width = 600;
},
{
anchors = (
{
name = mark0;
position = "{300, 530}";
},
{
name = mark0.1;
position = "{536, 530}";
},
{
name = mark0.2;
position = "{300, 0}";
},
{
name = mark0.3;
position = "{300, 276}";
},
{
name = mark0.4;
position = "{300, 265}";
}
);
layerId = "3EF66B8B-A4EF-422E-A8E2-9DC69E93467B";
shapes = (
{
closed = 1;
nodes = (
(248,0,l),
(49,530,l),
(146,530,l),
(182,421,o),
(220,314,o),
(258,205,c),
(272,160,l),
(281,135,o),
(291,109,o),
(300,85,c),
(320,142,l),
(364,272,o),
(410,400,o),
(454,530,c),
(551,530,l),
(352,0,l)
);
}
);
width = 600;
},
{
anchors = (
{
name = mark0;
position = "{300, 530}";
},
{
name = mark0.1;
position = "{536, 530}";
},
{
name = mark0.2;
position = "{300, 0}";
},
{
name = mark0.3;
position = "{300, 276}";
},
{
name = mark0.4;
position = "{300, 265}";
}
);
layerId = "0A6BB479-68DF-438A-AB6B-934827A2B9BB";
shapes = (
{
closed = 1;
nodes = (
(288,0,l),
(65,530,l),
(89,530,l),
(138,412,o),
(188,295,o),
(237,177,cs),
(253,138,ls),
(268,100,o),
(284,60,o),
(300,23,c),
(331,99,l),
(387,244,o),
(451,386,o),
(511,530,c),
(535,530,l),
(312,0,l)
);
}
);
width = 600;
}
);
unicode = 118;
},
{
glyphname = w;
layers = (
{
anchors = (
{
name = mark0;
position = "{400, 530}";
},
{
name = mark0.1;
position = "{736, 530}";
},
{
name = mark0.2;
position = "{400, 0}";
},
{
name = mark0.3;
position = "{400, 276}";
},
{
name = mark0.4;
position = "{400, 265}";
}
);
layerId = "AC532A80-AEF9-404E-A94E-472F4CBCE5BB";
shapes = (
{
closed = 1;
nodes = (
(182,0,l),
(48,530,l),
(186,530,l),
(256,130,l),
(332,410,l),
(468,410,l),
(544,130,l),
(614,530,l),
(752,530,l),
(618,0,l),
(482,0,l),
(400,289,l),
(318,0,l)
);
}
);
width = 800;
},
{
anchors = (
{
name = mark0;
position = "{400, 530}";
},
{
name = mark0.1;
position = "{736, 530}";
},
{
name = mark0.2;
position = "{400, 0}";
},
{
name = mark0.3;
position = "{400, 276}";
},
{
name = mark0.4;
position = "{400, 265}";
}
);
layerId = "3EF66B8B-A4EF-422E-A8E2-9DC69E93467B";
shapes = (
{
closed = 1;
nodes = (
(198,0,l),
(56,530,l),
(142,530,l),
(244,85,l),
(357,455,l),
(443,455,l),
(556,85,l),
(658,530,l),
(744,530,l),
(602,0,l),
(517,0,l),
(400,376,l),
(283,0,l)
);
}
);
width = 800;
},
{
anchors = (
{
name = mark0;
position = "{400, 530}";
},
{
name = mark0.1;
position = "{736, 530}";
},
{
name = mark0.2;
position = "{400, 0}";
},
{
name = mark0.3;
position = "{400, 276}";
},
{
name = mark0.4;
position = "{400, 265}";
}
);
layerId = "0A6BB479-68DF-438A-AB6B-934827A2B9BB";
shapes = (
{
closed = 1;
nodes = (
(218,0,l),
(66,530,l),
(87,530,l),
(230,28,l),
(389,511,l),
(411,511,l),
(570,28,l),
(713,530,l),
(734,530,l),
(582,0,l),
(560,0,l),
(400,485,l),
(240,0,l)
);
}
);
width = 800;
}
);
unicode = 119;
},
{
glyphname = x;
layers = (
{
anchors = (
{
name = mark0;
position = "{300, 530}";
},
{
name = mark0.1;
position = "{536, 530}";
},
{
name = mark0.2;
position = "{300, 0}";
},
{
name = mark0.3;
position = "{300, 276}";
},
{
name = mark0.4;
position = "{300, 265}";
}
);
layerId = "AC532A80-AEF9-404E-A94E-472F4CBCE5BB";
shapes = (
{
closed = 1;
nodes = (
(44,0,l),
(228,265,l),
(44,530,l),
(221,530,l),
(300,388,l),
(379,530,l),
(556,530,l),
(372,265,l),
(556,0,l),
(379,0,l),
(300,142,l),
(221,0,l)
);
}
);
width = 600;
},
{
anchors = (
{
name = mark0;
position = "{300, 530}";
},
{
name = mark0.1;
position = "{536, 530}";
},
{
name = mark0.2;
position = "{300, 0}";
},
{
name = mark0.3;
position = "{300, 276}";
},
{
name = mark0.4;
position = "{300, 265}";
}
);
layerId = "3EF66B8B-A4EF-422E-A8E2-9DC69E93467B";
shapes = (
{
closed = 1;
nodes = (
(60,0,l),
(255,265,l),
(60,530,l),
(169,530,l),
(300,340,l),
(431,530,l),
(540,530,l),
(345,265,l),
(540,0,l),
(431,0,l),
(300,190,l),
(169,0,l)
);
}
);
width = 600;
},
{
anchors = (
{
name = mark0;
position = "{300, 530}";
},
{
name = mark0.1;
position = "{536, 530}";
},
{
name = mark0.2;
position = "{300, 0}";
},
{
name = mark0.3;
position = "{300, 276}";
},
{
name = mark0.4;
position = "{300, 265}";
}
);
layerId = "0A6BB479-68DF-438A-AB6B-934827A2B9BB";
shapes = (
{
closed = 1;
nodes = (
(79,0,l),
(288,265,l),
(79,530,l),
(105,530,l),
(300,281,l),
(495,530,l),
(521,530,l),
(312,265,l),
(521,0,l),
(495,0,l),
(300,249,l),
(105,0,l)
);
}
);
width = 600;
}
);
unicode = 120;
},
{
glyphname = y;
layers = (
{
anchors = (
{
name = mark0;
position = "{300, 530}";
},
{
name = mark0.1;
position = "{536, 530}";
},
{
name = mark0.2;
position = "{300, -205}";
},
{
name = mark0.3;
position = "{367, 0}";
},
{
name = mark0.4;
position = "{300, 177}";
},
{
name = mark0.5;
position = "{300, 163}";
}
);
layerId = "AC532A80-AEF9-404E-A94E-472F4CBCE5BB";
shapes = (
{
closed = 1;
nodes = (
(81,-205,l),
(81,-85,l),
(135,-85,l),
(178,-89,o),
(201,-53,o),
(210,-17,c),
(227,32,l),
(51,530,l),
(203,530,l),
(304,169,l),
(397,530,l),
(549,530,l),
(348,-56,l),
(319,-133,o),
(276,-215,o),
(135,-205,c)
);
}
);
width = 600;
},
{
anchors = (
{
name = mark0;
position = "{300, 530}";
},
{
name = mark0.1;
position = "{536, 530}";
},
{
name = mark0.2;
position = "{300, -205}";
},
{
name = mark0.3;
position = "{367, 0}";
},
{
name = mark0.4;
position = "{300, 177}";
},
{
name = mark0.5;
position = "{300, 163}";
}
);
layerId = "3EF66B8B-A4EF-422E-A8E2-9DC69E93467B";
shapes = (
{
closed = 1;
nodes = (
(105,-205,l),
(105,-130,l),
(153,-130,l),
(193,-132,o),
(211,-106,o),
(227,-64,cs),
(254,6,l),
(58,530,l),
(152,530,l),
(301,94,l),
(448,530,l),
(542,530,l),
(322,-66,l),
(294,-139,o),
(263,-211,o),
(153,-205,c)
);
}
);
width = 600;
},
{
anchors = (
{
name = mark0;
position = "{300, 530}";
},
{
name = mark0.1;
position = "{536, 530}";
},
{
name = mark0.2;
position = "{300, -205}";
},
{
name = mark0.3;
position = "{367, 0}";
},
{
name = mark0.4;
position = "{300, 177}";
},
{
name = mark0.5;
position = "{300, 163}";
}
);
layerId = "0A6BB479-68DF-438A-AB6B-934827A2B9BB";
shapes = (
{
closed = 1;
nodes = (
(134,-205,l),
(134,-186,l),
(175,-186,ls),
(211,-186,o),
(224,-172,o),
(249,-123,c),
(287,-27,l),
(66,530,l),
(88,530,l),
(298,0,l),
(512,530,l),
(534,530,l),
(289,-79,ls),
(262,-147,o),
(247,-205,o),
(175,-205,cs)
);
}
);
width = 600;
}
);
unicode = 121;
},
{
glyphname = z;
layers = (
{
anchors = (
{
name = mark0;
position = "{300, 530}";
},
{
name = mark0.1;
position = "{536, 530}";
},
{
name = mark0.2;
position = "{300, 0}";
},
{
name = mark0.3;
position = "{536, 0}";
},
{
name = mark0.4;
position = "{300, 276}";
},
{
name = mark0.5;
position = "{300, 265}";
}
);
layerId = "AC532A80-AEF9-404E-A94E-472F4CBCE5BB";
shapes = (
{
closed = 1;
nodes = (
(64,0,l),
(64,120,l),
(377,410,l),
(64,410,l),
(64,530,l),
(536,530,l),
(536,410,l),
(223,120,l),
(536,120,l),
(536,0,l)
);
}
);
width = 600;
},
{
anchors = (
{
name = mark0;
position = "{300, 530}";
},
{
name = mark0.1;
position = "{536, 530}";
},
{
name = mark0.2;
position = "{300, 0}";
},
{
name = mark0.3;
position = "{536, 0}";
},
{
name = mark0.4;
position = "{300, 276}";
},
{
name = mark0.5;
position = "{300, 265}";
}
);
layerId = "3EF66B8B-A4EF-422E-A8E2-9DC69E93467B";
shapes = (
{
closed = 1;
nodes = (
(72,0,l),
(72,75,l),
(429,455,l),
(72,455,l),
(72,530,l),
(528,530,l),
(528,455,l),
(171,75,l),
(528,75,l),
(528,0,l)
);
}
);
width = 600;
},
{
anchors = (
{
name = mark0;
position = "{300, 530}";
},
{
name = mark0.1;
position = "{536, 530}";
},
{
name = mark0.2;
position = "{300, 0}";
},
{
name = mark0.3;
position = "{536, 0}";
},
{
name = mark0.4;
position = "{300, 276}";
},
{
name = mark0.5;
position = "{300, 265}";
}
);
layerId = "0A6BB479-68DF-438A-AB6B-934827A2B9BB";
shapes = (
{
closed = 1;
nodes = (
(82,0,l),
(82,19,l),
(494,511,l),
(82,511,l),
(82,530,l),
(518,530,l),
(518,511,l),
(106,19,l),
(518,19,l),
(518,0,l)
);
}
);
width = 600;
}
);
unicode = 122;
},
{
glyphname = braceleft;
layers = (
{
layerId = "AC532A80-AEF9-404E-A94E-472F4CBCE5BB";
shapes = (
{
closed = 1;
nodes = (
(489,-186,l),
(373,-186,o),
(175,-156,o),
(175,3,cs),
(175,45,o),
(193,84,o),
(213,119,c),
(213,119,o),
(213,120,o),
(213,120,c),
(223,137,o),
(235,157,o),
(235,178,cs),
(235,253,o),
(96,247,o),
(88,247,c),
(88,367,l),
(134,367,o),
(235,370,o),
(235,436,cs),
(235,444,o),
(233,452,o),
(230,460,cs),
(208,510,o),
(175,554,o),
(175,611,cs),
(175,677,o),
(214,721,o),
(267,752,c),
(290,764,l),
(313,774,l),
(368,794,o),
(430,800,o),
(489,800,c),
(489,680,l),
(429,680,o),
(321,674,o),
(321,611,cs),
(321,539,o),
(381,498,o),
(381,436,cs),
(381,372,o),
(333,327,o),
(279,307,c),
(332,286,o),
(381,243,o),
(381,178,cs),
(381,111,o),
(321,87,o),
(321,3,cs),
(321,-78,o),
(501,-66,o),
(489,-66,c)
);
}
);
width = 600;
},
{
layerId = "3EF66B8B-A4EF-422E-A8E2-9DC69E93467B";
shapes = (
{
closed = 1;
nodes = (
(482,-186,l),
(378,-186,o),
(205,-156,o),
(205,-7,cs),
(205,37,o),
(226,72,o),
(246,114,cs),
(249,120,o),
(250,127,o),
(250,134,c),
(256,156,o),
(259,182,o),
(250,204,c),
(232,267,o),
(127,270,o),
(95,270,c),
(95,344,l),
(146,344,o),
(249,351,o),
(259,428,cs),
(261,439,o),
(261,450,o),
(260,461,c),
(248,516,o),
(205,560,o),
(205,621,cs),
(205,674,o),
(232,713,o),
(272,743,cs),
(293,758,l),
(316,770,l),
(368,792,o),
(423,800,o),
(482,800,c),
(482,725,l),
(408,725,o),
(295,706,o),
(295,621,cs),
(295,553,o),
(353,509,o),
(353,448,cs),
(353,378,o),
(305,327,o),
(236,307,c),
(295,287,o),
(353,246,o),
(353,166,cs),
(353,101,o),
(295,66,o),
(295,-7,cs),
(295,-90,o),
(431,-111,o),
(482,-111,c)
);
}
);
width = 600;
},
{
layerId = "0A6BB479-68DF-438A-AB6B-934827A2B9BB";
shapes = (
{
closed = 1;
nodes = (
(474,-186,l),
(385,-186,o),
(242,-157,o),
(242,-20,cs),
(242,28,o),
(267,58,o),
(288,107,cs),
(294,121,o),
(297,135,o),
(297,151,cs),
(297,180,o),
(288,213,o),
(269,236,cs),
(229,284,o),
(165,298,o),
(104,298,c),
(104,316,l),
(162,316,o),
(266,328,o),
(290,417,cs),
(294,432,o),
(297,447,o),
(297,463,cs),
(297,524,o),
(242,567,o),
(242,634,cs),
(242,670,o),
(254,704,o),
(278,732,c),
(297,750,l),
(319,765,l),
(367,789,o),
(415,800,o),
(474,800,c),
(474,781,l),
(381,781,o),
(262,747,o),
(262,634,cs),
(262,570,o),
(318,523,o),
(318,463,cs),
(318,386,o),
(271,327,o),
(183,307,c),
(248,289,o),
(318,250,o),
(318,151,cs),
(318,88,o),
(262,40,o),
(262,-20,cs),
(262,-106,o),
(344,-167,o),
(474,-167,c)
);
}
);
width = 600;
}
);
unicode = 123;
},
{
glyphname = bar;
layers = (
{
anchors = (
{
name = mark0;
position = "{300, 790}";
},
{
name = mark0.1;
position = "{300, -176}";
}
);
layerId = "AC532A80-AEF9-404E-A94E-472F4CBCE5BB";
shapes = (
{
closed = 1;
nodes = (
(227,-176,l),
(227,790,l),
(373,790,l),
(373,-176,l)
);
}
);
width = 600;
},
{
anchors = (
{
name = mark0;
position = "{300, 790}";
},
{
name = mark0.1;
position = "{300, -176}";
}
);
layerId = "3EF66B8B-A4EF-422E-A8E2-9DC69E93467B";
shapes = (
{
closed = 1;
nodes = (
(255,-176,l),
(255,790,l),
(345,790,l),
(345,-176,l)
);
}
);
width = 600;
},
{
anchors = (
{
name = mark0;
position = "{300, 790}";
},
{
name = mark0.1;
position = "{300, -176}";
}
);
layerId = "0A6BB479-68DF-438A-AB6B-934827A2B9BB";
shapes = (
{
closed = 1;
nodes = (
(290,-176,l),
(290,790,l),
(310,790,l),
(310,-176,l)
);
}
);
width = 600;
}
);
unicode = 124;
},
{
glyphname = braceright;
layers = (
{
layerId = "AC532A80-AEF9-404E-A94E-472F4CBCE5BB";
shapes = (
{
closed = 1;
nodes = (
(111,-186,l),
(111,-66,l),
(165,-66,o),
(279,-61,o),
(279,3,cs),
(279,61,o),
(219,113,o),
(219,178,cs),
(219,240,o),
(266,289,o),
(321,307,c),
(266,326,o),
(219,373,o),
(219,436,cs),
(219,493,o),
(251,526,o),
(274,586,cs),
(277,594,o),
(279,603,o),
(279,611,cs),
(279,668,o),
(180,676,o),
(161,678,cs),
(144,679,o),
(127,680,o),
(111,680,c),
(111,800,l),
(226,800,o),
(425,769,o),
(425,611,cs),
(425,553,o),
(388,514,o),
(370,460,cs),
(367,452,o),
(365,444,o),
(365,436,cs),
(365,361,o),
(500,367,o),
(512,367,c),
(512,247,l),
(468,247,o),
(365,246,o),
(365,178,c),
(365,165,o),
(369,154,o),
(375,142,cs),
(396,97,o),
(425,55,o),
(425,3,cs),
(425,-146,o),
(232,-186,o),
(125,-186,c)
);
}
);
width = 600;
},
{
layerId = "3EF66B8B-A4EF-422E-A8E2-9DC69E93467B";
shapes = (
{
closed = 1;
nodes = (
(118,-186,l),
(118,-111,l),
(186,-111,o),
(305,-94,o),
(305,-7,cs),
(305,51,o),
(247,99,o),
(247,166,cs),
(247,235,o),
(293,286,o),
(364,307,c),
(300,325,o),
(247,373,o),
(247,448,cs),
(247,501,o),
(276,533,o),
(298,588,c),
(303,598,o),
(305,610,o),
(305,621,cs),
(305,685,o),
(223,716,o),
(167,722,cs),
(150,724,o),
(134,725,o),
(118,725,c),
(118,800,l),
(222,800,o),
(395,768,o),
(395,621,cs),
(395,560,o),
(350,518,o),
(340,461,c),
(339,450,o),
(338,439,o),
(340,428,cs),
(351,346,o),
(476,344,o),
(505,344,c),
(505,270,l),
(453,270,o),
(356,262,o),
(344,195,c),
(339,180,o),
(340,162,o),
(343,146,cs),
(355,93,o),
(395,49,o),
(395,-7,cs),
(395,-137,o),
(244,-186,o),
(125,-186,cs)
);
}
);
width = 600;
},
{
layerId = "0A6BB479-68DF-438A-AB6B-934827A2B9BB";
shapes = (
{
closed = 1;
nodes = (
(126,-167,l),
(212,-167,o),
(338,-136,o),
(338,-20,cs),
(338,39,o),
(282,82,o),
(282,151,cs),
(282,228,o),
(326,282,o),
(417,307,c),
(342,324,o),
(282,372,o),
(282,463,cs),
(282,510,o),
(308,541,o),
(329,590,cs),
(335,604,o),
(338,619,o),
(338,634,cs),
(338,706,o),
(276,765,o),
(174,778,cs),
(158,780,o),
(142,781,o),
(126,781,c),
(126,800,l),
(218,800,o),
(358,767,o),
(358,634,cs),
(358,568,o),
(303,522,o),
(303,463,cs),
(303,447,o),
(305,432,o),
(309,417,cs),
(333,327,o),
(446,316,o),
(496,316,c),
(496,298,l),
(435,298,o),
(345,282,o),
(317,217,c),
(306,198,o),
(303,172,o),
(303,151,cs),
(303,87,o),
(358,41,o),
(358,-20,cs),
(358,-126,o),
(260,-186,o),
(126,-186,c)
);
}
);
width = 600;
}
);
unicode = 125;
},
{
glyphname = asciitilde;
layers = (
{
anchors = (
{
name = mark0;
position = "{300, 552}";
},
{
name = mark0.1;
position = "{536, 552}";
},
{
name = mark0.2;
position = "{300, 62}";
},
{
name = mark0.3;
position = "{300, 317}";
},
{
name = mark0.4;
position = "{300, 307}";
}
);
layerId = "AC532A80-AEF9-404E-A94E-472F4CBCE5BB";
shapes = (
{
closed = 1;
nodes = (
(123,146,l),
(5,193,l),
(6,195,o),
(7,198,o),
(8,200,cs),
(19,218,l),
(26,232,o),
(33,245,o),
(41,258,c),
(59,287,l),
(79,317,l),
(85,325,l),
(98,341,o),
(113,357,o),
(131,368,cs),
(151,380,ls),
(162,387,o),
(179,391,o),
(191,393,cs),
(197,394,o),
(204,394,o),
(210,394,cs),
(251,394,o),
(290,375,o),
(317,343,c),
(340,318,l),
(347,308,l),
(349,305,o),
(352,302,o),
(355,298,cs),
(363,289,l),
(366,286,o),
(368,283,o),
(370,280,cs),
(376,272,l),
(376,272,o),
(376,272,o),
(376,272,c),
(376,272,o),
(376,272,o),
(376,272,c),
(379,269,o),
(382,267,o),
(385,265,cs),
(391,262,o),
(394,260,o),
(394,254,c),
(392,254,o),
(389,254,o),
(387,254,c),
(388,255,o),
(400,269,o),
(406,275,c),
(418,289,l),
(430,309,l),
(432,311,o),
(433,314,o),
(435,317,cs),
(441,325,ls),
(444,329,o),
(446,334,o),
(449,339,cs),
(469,377,l),
(477,395,l),
(595,348,l),
(594,346,o),
(593,343,o),
(592,341,cs),
(582,323,l),
(569,299,ls),
(566,293,o),
(562,288,o),
(559,283,cs),
(541,253,l),
(520,224,l),
(514,216,l),
(493,190,o),
(462,164,o),
(432,154,cs),
(426,152,o),
(420,150,o),
(414,149,cs),
(406,147,o),
(398,147,o),
(390,147,cs),
(367,147,o),
(344,153,o),
(324,165,c),
(301,181,l),
(283,197,ls),
(278,202,o),
(274,208,o),
(269,214,cs),
(258,226,ls),
(256,229,o),
(253,232,o),
(251,235,c),
(244,243,ls),
(242,246,o),
(239,249,o),
(237,252,c),
(223,268,l),
(219,275,o),
(206,279,o),
(206,287,c),
(208,287,o),
(211,287,o),
(213,287,c),
(213,287,o),
(212,285,o),
(209,282,cs),
(204,277,ls),
(201,274,o),
(198,270,o),
(195,267,cs),
(183,252,l),
(169,232,l),
(165,224,ls),
(164,221,o),
(162,218,o),
(160,215,cs),
(155,206,ls),
(153,203,o),
(151,200,o),
(149,197,cs),
(135,170,l),
(129,158,l)
);
}
);
width = 600;
},
{
anchors = (
{
name = mark0;
position = "{300, 552}";
},
{
name = mark0.1;
position = "{536, 552}";
},
{
name = mark0.2;
position = "{300, 62}";
},
{
name = mark0.3;
position = "{300, 317}";
},
{
name = mark0.4;
position = "{300, 307}";
}
);
layerId = "3EF66B8B-A4EF-422E-A8E2-9DC69E93467B";
shapes = (
{
closed = 1;
nodes = (
(109,146,l),
(35,174,l),
(36,179,o),
(38,183,o),
(40,188,cs),
(52,214,ls),
(58,227,o),
(65,238,o),
(71,251,c),
(87,280,l),
(104,307,l),
(110,317,l),
(121,329,o),
(134,347,o),
(148,357,c),
(165,368,ls),
(175,375,o),
(189,379,o),
(201,380,cs),
(207,381,o),
(213,380,o),
(219,379,cs),
(250,375,o),
(277,359,o),
(299,331,cs),
(320,303,l),
(328,291,ls),
(330,287,o),
(333,283,o),
(336,278,cs),
(344,266,ls),
(347,262,o),
(349,258,o),
(352,254,cs),
(359,244,l),
(360,241,o),
(362,239,o),
(363,237,c),
(364,236,o),
(366,233,o),
(368,232,c),
(373,226,o),
(379,222,o),
(385,221,cs),
(393,219,o),
(398,220,o),
(402,220,c),
(402,221,o),
(401,222,o),
(402,224,cs),
(407,231,o),
(418,244,o),
(423,251,cs),
(435,268,l),
(447,290,ls),
(449,293,o),
(450,297,o),
(452,301,cs),
(459,312,ls),
(461,316,o),
(463,321,o),
(466,327,cs),
(483,363,l),
(491,382,l),
(565,353,l),
(563,349,o),
(561,344,o),
(560,340,c),
(548,313,l),
(537,292,ls),
(534,286,o),
(531,281,o),
(529,276,c),
(513,247,l),
(495,220,l),
(489,211,l),
(467,176,o),
(438,158,o),
(419,152,cs),
(413,150,o),
(408,149,o),
(402,148,cs),
(394,147,o),
(388,147,o),
(381,148,cs),
(363,150,o),
(347,157,o),
(332,167,c),
(314,181,l),
(300,197,ls),
(296,201,o),
(293,207,o),
(289,212,cs),
(278,226,ls),
(276,229,o),
(273,233,o),
(271,238,c),
(263,249,l),
(261,253,o),
(258,257,o),
(256,261,c),
(240,284,ls),
(233,293,o),
(223,302,o),
(216,311,c),
(215,312,o),
(214,313,o),
(213,313,c),
(205,313,o),
(200,305,o),
(196,300,c),
(188,292,l),
(185,288,o),
(182,284,o),
(179,281,c),
(168,264,l),
(155,243,l),
(150,233,l),
(149,229,o),
(146,225,o),
(144,222,c),
(139,210,ls),
(137,206,o),
(135,202,o),
(133,198,cs),
(119,167,l),
(113,152,l)
);
}
);
width = 600;
},
{
anchors = (
{
name = mark0;
position = "{300, 552}";
},
{
name = mark0.1;
position = "{536, 552}";
},
{
name = mark0.2;
position = "{300, 62}";
},
{
name = mark0.3;
position = "{300, 317}";
},
{
name = mark0.4;
position = "{300, 307}";
}
);
layerId = "0A6BB479-68DF-438A-AB6B-934827A2B9BB";
shapes = (
{
closed = 1;
nodes = (
(92,145,l),
(72,151,l),
(74,158,o),
(77,165,o),
(80,172,cs),
(94,210,ls),
(98,221,o),
(105,230,o),
(109,243,c),
(122,271,l),
(135,295,l),
(142,306,l),
(149,315,o),
(160,334,o),
(170,343,cs),
(182,353,ls),
(191,360,o),
(202,364,o),
(214,364,cs),
(219,364,o),
(224,362,o),
(230,360,cs),
(249,352,o),
(260,338,o),
(277,315,c),
(295,285,l),
(304,270,l),
(306,264,o),
(309,259,o),
(312,254,cs),
(321,238,l),
(323,232,o),
(326,227,o),
(329,222,cs),
(338,208,ls),
(341,203,o),
(344,198,o),
(347,194,cs),
(350,190,o),
(354,185,o),
(358,181,cs),
(366,173,o),
(375,166,o),
(386,166,cs),
(395,166,o),
(404,171,o),
(411,178,cs),
(414,180,o),
(417,183,o),
(421,187,cs),
(431,200,o),
(440,212,o),
(444,221,c),
(456,242,l),
(468,266,ls),
(470,270,o),
(472,275,o),
(474,280,cs),
(481,295,ls),
(483,300,o),
(485,305,o),
(487,311,cs),
(501,346,l),
(508,366,l),
(528,359,l),
(525,352,o),
(522,345,o),
(520,338,c),
(505,300,l),
(498,283,ls),
(495,277,o),
(493,272,o),
(491,267,cs),
(477,239,l),
(464,214,l),
(458,204,l),
(435,158,o),
(407,151,o),
(402,149,cs),
(397,147,o),
(392,147,o),
(386,147,cs),
(380,147,o),
(375,148,o),
(370,150,cs),
(358,154,o),
(350,161,o),
(342,169,c),
(331,182,l),
(322,196,ls),
(319,200,o),
(316,205,o),
(313,210,cs),
(304,225,ls),
(301,230,o),
(298,235,o),
(296,241,c),
(287,257,ls),
(284,262,o),
(281,267,o),
(279,273,c),
(261,303,l),
(251,316,o),
(245,330,o),
(228,340,cs),
(223,343,o),
(218,345,o),
(214,345,cs),
(195,345,o),
(184,329,o),
(179,323,cs),
(168,310,ls),
(164,305,o),
(162,301,o),
(160,298,cs),
(150,280,l),
(138,257,l),
(132,244,ls),
(130,239,o),
(127,234,o),
(125,230,cs),
(119,215,ls),
(117,210,o),
(114,205,o),
(112,199,cs),
(98,164,l)
);
}
);
width = 600;
}
);
unicode = 126;
},
{
glyphname = exclamdown;
layers = (
{
layerId = "AC532A80-AEF9-404E-A94E-472F4CBCE5BB";
shapes = (
{
closed = 1;
nodes = (
(200,342,l),
(145,338,o),
(102,383,o),
(102,440,c),
(95,500,o),
(151,541,o),
(200,538,c),
(255,541,o),
(298,498,o),
(298,440,c),
(302,389,o),
(262,346,o),
(210,342,c)
);
},
{
closed = 1;
nodes = (
(127,-170,l),
(127,250,l),
(273,250,l),
(273,-170,l)
);
}
);
width = 400;
},
{
layerId = "3EF66B8B-A4EF-422E-A8E2-9DC69E93467B";
shapes = (
{
closed = 1;
nodes = (
(200,398,l),
(162,396,o),
(130,424,o),
(130,468,c),
(126,507,o),
(159,540,o),
(200,538,c),
(237,540,o),
(270,512,o),
(270,468,c),
(272,427,o),
(240,401,o),
(206,398,c)
);
},
{
closed = 1;
nodes = (
(155,-170,l),
(155,264,l),
(245,264,l),
(245,-170,l)
);
}
);
width = 400;
},
{
layerId = "0A6BB479-68DF-438A-AB6B-934827A2B9BB";
shapes = (
{
closed = 1;
nodes = (
(183,469,o),
(165,475,o),
(165,504,cs),
(165,515,o),
(170,538,o),
(200,538,cs),
(215,538,o),
(234,529,o),
(234,504,cs),
(234,474,o),
(213,469,o),
(200,469,c)
);
},
{
closed = 1;
nodes = (
(190,-170,l),
(190,282,l),
(210,282,l),
(210,-170,l)
);
}
);
width = 400;
}
);
unicode = 161;
},
{
glyphname = cent;
layers = (
{
layerId = "AC532A80-AEF9-404E-A94E-472F4CBCE5BB";
shapes = (
{
closed = 1;
nodes = (
(238,0,l),
(238,81,l),
(143,100,o),
(56,155,o),
(56,295,cs),
(56,389,ls),
(56,489,o),
(82,588,o),
(238,619,c),
(238,700,l),
(362,700,l),
(362,618,l),
(432,605,o),
(496,570,o),
(527,493,c),
(536,469,o),
(538,446,o),
(538,420,c),
(392,420,l),
(392,454,o),
(377,482,o),
(339,497,c),
(339,203,l),
(371,216,o),
(392,240,o),
(392,280,c),
(538,280,l),
(538,194,o),
(493,104,o),
(362,82,c),
(362,0,l)
);
},
{
closed = 1;
nodes = (
(261,498,l),
(218,480,o),
(202,455,o),
(202,373,cs),
(202,327,ls),
(202,287,o),
(199,214,o),
(261,202,c)
);
}
);
width = 600;
},
{
layerId = "3EF66B8B-A4EF-422E-A8E2-9DC69E93467B";
shapes = (
{
closed = 1;
nodes = (
(261,0,l),
(261,79,l),
(156,90,o),
(64,150,o),
(64,295,cs),
(64,396,ls),
(64,491,o),
(95,604,o),
(261,621,c),
(261,700,l),
(339,700,l),
(339,620,l),
(411,611,o),
(486,585,o),
(520,496,c),
(527,475,o),
(530,456,o),
(530,433,c),
(440,433,l),
(440,483,o),
(409,532,o),
(326,545,c),
(326,155,l),
(379,163,o),
(440,193,o),
(440,267,c),
(530,267,l),
(530,167,o),
(457,92,o),
(339,80,c),
(339,0,l)
);
},
{
closed = 1;
nodes = (
(274,545,l),
(198,535,o),
(154,489,o),
(154,387,cs),
(154,313,ls),
(154,248,o),
(172,162,o),
(274,155,c)
);
}
);
width = 600;
},
{
layerId = "0A6BB479-68DF-438A-AB6B-934827A2B9BB";
shapes = (
{
closed = 1;
nodes = (
(290,0,l),
(290,77,l),
(172,77,o),
(74,143,o),
(74,295,cs),
(74,405,ls),
(74,493,o),
(112,623,o),
(290,623,c),
(290,700,l),
(310,700,l),
(310,623,l),
(385,618,o),
(473,603,o),
(512,500,c),
(516,482,o),
(520,468,o),
(520,450,c),
(499,450,l),
(499,519,o),
(450,595,o),
(310,604,c),
(310,96,l),
(390,96,o),
(499,134,o),
(499,250,c),
(520,250,l),
(520,134,o),
(413,77,o),
(310,77,c),
(310,0,l)
);
},
{
closed = 1;
nodes = (
(290,604,l),
(172,604,o),
(95,531,o),
(95,405,cs),
(95,295,ls),
(95,200,o),
(138,96,o),
(290,96,c)
);
}
);
width = 600;
}
);
unicode = 162;
},
{
glyphname = sterling;
layers = (
{
layerId = "AC532A80-AEF9-404E-A94E-472F4CBCE5BB";
shapes = (
{
closed = 1;
nodes = (
(64,0,l),
(64,120,l),
(129,150,o),
(151,229,o),
(146,294,c),
(146,305,l),
(81,305,l),
(81,395,l),
(146,395,l),
(146,531,ls),
(146,617,o),
(191,699,o),
(309,707,c),
(316,707,o),
(323,708,o),
(330,708,cs),
(337,708,o),
(343,707,o),
(350,707,c),
(427,703,o),
(515,655,o),
(515,542,cs),
(515,539,o),
(514,537,o),
(514,534,c),
(369,534,l),
(369,537,l),
(369,537,o),
(369,537,o),
(369,537,c),
(369,560,o),
(358,588,o),
(330,588,cs),
(283,588,o),
(292,514,o),
(292,492,cs),
(292,395,l),
(383,395,l),
(383,305,l),
(292,305,l),
(292,274,ls),
(292,223,o),
(287,166,o),
(264,120,c),
(536,120,l),
(536,0,l)
);
}
);
width = 600;
},
{
layerId = "3EF66B8B-A4EF-422E-A8E2-9DC69E93467B";
shapes = (
{
closed = 1;
nodes = (
(72,0,l),
(72,75,l),
(148,117,o),
(158,206,o),
(155,298,c),
(155,321,l),
(67,321,l),
(67,379,l),
(155,379,l),
(155,538,ls),
(155,611,o),
(191,695,o),
(300,706,c),
(307,706,o),
(315,707,o),
(322,708,c),
(329,708,o),
(335,707,o),
(342,707,c),
(419,705,o),
(507,662,o),
(507,552,cs),
(507,550,o),
(507,548,o),
(507,546,c),
(417,546,l),
(417,549,ls),
(417,557,o),
(416,565,o),
(412,572,c),
(401,607,o),
(374,633,o),
(331,633,cs),
(275,633,o),
(246,578,o),
(246,516,cs),
(246,379,l),
(360,379,l),
(360,321,l),
(246,321,l),
(246,251,ls),
(246,190,o),
(239,125,o),
(198,75,c),
(528,75,l),
(528,0,l)
);
}
);
width = 600;
},
{
layerId = "0A6BB479-68DF-438A-AB6B-934827A2B9BB";
shapes = (
{
closed = 1;
nodes = (
(82,0,l),
(82,19,l),
(172,75,o),
(167,178,o),
(167,302,cs),
(167,341,l),
(50,341,l),
(50,359,l),
(167,359,l),
(167,546,ls),
(167,604,o),
(191,691,o),
(289,704,cs),
(296,705,o),
(304,706,o),
(311,707,cs),
(318,708,o),
(325,708,o),
(333,708,cs),
(408,708,o),
(498,671,o),
(498,564,cs),
(498,563,o),
(498,561,o),
(498,560,c),
(478,560,l),
(478,564,ls),
(478,582,o),
(474,599,o),
(466,616,cs),
(442,666,o),
(395,689,o),
(333,689,cs),
(264,689,o),
(188,657,o),
(188,546,cs),
(188,359,l),
(331,359,l),
(331,341,l),
(188,341,l),
(188,223,ls),
(188,148,o),
(180,74,o),
(115,19,c),
(518,19,l),
(518,0,l)
);
}
);
width = 600;
}
);
unicode = 163;
},
{
glyphname = currency;
layers = (
{
layerId = "AC532A80-AEF9-404E-A94E-472F4CBCE5BB";
shapes = (
{
closed = 1;
nodes = (
(105,38,l),
(23,104,l),
(106,187,l),
(87,226,o),
(80,262,o),
(80,309,cs),
(80,350,o),
(87,389,o),
(106,427,c),
(23,510,l),
(105,576,l),
(180,501,l),
(218,519,o),
(258,527,o),
(300,527,cs),
(340,527,o),
(380,521,o),
(420,501,c),
(495,576,l),
(577,510,l),
(494,427,l),
(513,388,o),
(520,352,o),
(520,305,cs),
(520,264,o),
(513,225,o),
(494,187,c),
(577,104,l),
(495,38,l),
(420,113,l),
(382,95,o),
(342,87,o),
(300,87,cs),
(260,87,o),
(220,93,o),
(180,113,c)
);
},
{
closed = 1;
nodes = (
(300,181,ls),
(325,181,o),
(351,188,o),
(370,207,c),
(374,211,l),
(382,220,l),
(385,225,l),
(404,252,o),
(406,277,o),
(406,309,c),
(408,335,o),
(401,362,o),
(388,384,c),
(382,394,l),
(374,403,l),
(370,407,l),
(351,426,o),
(327,436,o),
(300,433,c),
(275,433,o),
(249,426,o),
(230,407,c),
(226,403,l),
(218,394,l),
(215,389,l),
(197,364,o),
(194,337,o),
(194,305,c),
(192,278,o),
(199,247,o),
(215,225,c),
(218,220,l),
(226,211,l),
(230,207,l),
(245,192,o),
(265,181,o),
(287,181,cs)
);
}
);
width = 600;
},
{
layerId = "3EF66B8B-A4EF-422E-A8E2-9DC69E93467B";
shapes = (
{
closed = 1;
nodes = (
(98,58,l),
(46,100,l),
(122,177,l),
(95,215,o),
(87,259,o),
(87,308,cs),
(87,352,o),
(94,396,o),
(122,437,c),
(46,514,l),
(98,556,l),
(170,485,l),
(206,508,o),
(250,520,o),
(300,520,cs),
(345,520,o),
(388,512,o),
(430,485,c),
(502,556,l),
(554,514,l),
(478,437,l),
(502,398,o),
(513,359,o),
(513,306,cs),
(513,260,o),
(504,216,o),
(478,177,c),
(554,100,l),
(502,58,l),
(430,129,l),
(390,103,o),
(347,94,o),
(300,94,cs),
(256,94,o),
(209,101,o),
(170,129,c)
);
},
{
closed = 1;
nodes = (
(300,155,ls),
(335,155,o),
(370,163,o),
(396,188,c),
(398,191,l),
(408,202,l),
(411,204,l),
(433,234,o),
(441,269,o),
(441,308,c),
(442,343,o),
(432,378,o),
(412,407,c),
(408,412,l),
(398,423,l),
(396,426,l),
(370,448,o),
(339,461,o),
(300,459,c),
(265,459,o),
(229,450,o),
(204,426,c),
(202,423,l),
(192,412,l),
(189,410,l),
(165,380,o),
(159,344,o),
(159,306,c),
(158,269,o),
(167,231,o),
(189,204,c),
(192,202,l),
(202,191,l),
(204,188,l),
(228,164,o),
(264,155,o),
(293,155,cs)
);
}
);
width = 600;
},
{
layerId = "0A6BB479-68DF-438A-AB6B-934827A2B9BB";
shapes = (
{
closed = 1;
nodes = (
(89,82,l),
(75,96,l),
(143,164,l),
(106,201,o),
(96,255,o),
(96,307,cs),
(96,355,o),
(102,405,o),
(143,450,c),
(75,518,l),
(89,532,l),
(157,464,l),
(192,495,o),
(241,511,o),
(300,511,cs),
(351,511,o),
(397,501,o),
(443,464,c),
(511,532,l),
(525,518,l),
(457,450,l),
(489,410,o),
(504,368,o),
(504,307,cs),
(504,255,o),
(493,205,o),
(457,164,c),
(525,96,l),
(511,82,l),
(443,150,l),
(401,112,o),
(353,103,o),
(300,103,cs),
(251,103,o),
(196,110,o),
(157,150,c)
);
},
{
closed = 1;
nodes = (
(347,122,o),
(393,132,o),
(429,164,c),
(427,166,l),
(441,180,l),
(443,178,l),
(470,211,o),
(484,259,o),
(484,307,cs),
(484,352,o),
(471,399,o),
(443,436,c),
(441,434,l),
(427,448,l),
(429,450,l),
(394,476,o),
(354,492,o),
(300,492,cs),
(252,492,o),
(205,480,o),
(171,450,c),
(173,448,l),
(159,434,l),
(157,436,l),
(126,399,o),
(116,352,o),
(116,307,cs),
(116,258,o),
(127,212,o),
(157,178,c),
(159,180,l),
(173,166,l),
(171,164,l),
(207,128,o),
(263,122,o),
(300,122,c)
);
}
);
width = 600;
}
);
unicode = 164;
},
{
glyphname = yen;
layers = (
{
anchors = (
{
name = mark0;
position = "{300, 700}";
},
{
name = mark0.1;
position = "{536, 700}";
},
{
name = mark0.2;
position = "{300, 0}";
},
{
name = mark0.3;
position = "{300, 280}";
},
{
name = mark0.4;
position = "{300, 350}";
}
);
layerId = "AC532A80-AEF9-404E-A94E-472F4CBCE5BB";
shapes = (
{
closed = 1;
nodes = (
(227,0,l),
(227,95,l),
(64,95,l),
(64,185,l),
(227,185,l),
(227,235,l),
(64,235,l),
(64,325,l),
(211,325,l),
(32,700,l),
(193,700,l),
(300,439,l),
(407,700,l),
(568,700,l),
(389,325,l),
(536,325,l),
(536,235,l),
(373,235,l),
(373,185,l),
(536,185,l),
(536,95,l),
(373,95,l),
(373,0,l)
);
}
);
width = 600;
},
{
anchors = (
{
name = mark0;
position = "{300, 700}";
},
{
name = mark0.1;
position = "{536, 700}";
},
{
name = mark0.2;
position = "{300, 0}";
},
{
name = mark0.3;
position = "{300, 280}";
},
{
name = mark0.4;
position = "{300, 350}";
}
);
layerId = "3EF66B8B-A4EF-422E-A8E2-9DC69E93467B";
shapes = (
{
closed = 1;
nodes = (
(255,0,l),
(255,111,l),
(72,111,l),
(72,169,l),
(255,169,l),
(255,251,l),
(72,251,l),
(72,309,l),
(243,309,l),
(52,700,l),
(152,700,l),
(300,378,l),
(448,700,l),
(548,700,l),
(357,309,l),
(528,309,l),
(528,251,l),
(345,251,l),
(345,169,l),
(528,169,l),
(528,111,l),
(345,111,l),
(345,0,l)
);
}
);
width = 600;
},
{
anchors = (
{
name = mark0;
position = "{300, 700}";
},
{
name = mark0.1;
position = "{536, 700}";
},
{
name = mark0.2;
position = "{300, 0}";
},
{
name = mark0.3;
position = "{300, 280}";
},
{
name = mark0.4;
position = "{300, 350}";
}
);
layerId = "0A6BB479-68DF-438A-AB6B-934827A2B9BB";
shapes = (
{
closed = 1;
nodes = (
(290,0,l),
(290,131,l),
(82,131,l),
(82,149,l),
(290,149,l),
(290,271,l),
(82,271,l),
(82,289,l),
(284,289,l),
(77,700,l),
(100,700,l),
(300,302,l),
(500,700,l),
(523,700,l),
(316,289,l),
(518,289,l),
(518,271,l),
(310,271,l),
(310,149,l),
(518,149,l),
(518,131,l),
(310,131,l),
(310,0,l)
);
}
);
width = 600;
}
);
unicode = 165;
},
{
glyphname = brokenbar;
layers = (
{
layerId = "AC532A80-AEF9-404E-A94E-472F4CBCE5BB";
shapes = (
{
closed = 1;
nodes = (
(227,367,l),
(227,790,l),
(373,790,l),
(373,367,l)
);
},
{
closed = 1;
nodes = (
(227,-176,l),
(227,247,l),
(373,247,l),
(373,-176,l)
);
}
);
width = 600;
},
{
layerId = "3EF66B8B-A4EF-422E-A8E2-9DC69E93467B";
shapes = (
{
closed = 1;
nodes = (
(255,360,l),
(255,790,l),
(345,790,l),
(345,360,l)
);
},
{
closed = 1;
nodes = (
(255,-176,l),
(255,254,l),
(345,254,l),
(345,-176,l)
);
}
);
width = 600;
},
{
layerId = "0A6BB479-68DF-438A-AB6B-934827A2B9BB";
shapes = (
{
closed = 1;
nodes = (
(290,351,l),
(290,790,l),
(310,790,l),
(310,351,l)
);
},
{
closed = 1;
nodes = (
(290,-176,l),
(290,263,l),
(310,263,l),
(310,-176,l)
);
}
);
width = 600;
}
);
unicode = 166;
},
{
glyphname = section;
layers = (
{
layerId = "AC532A80-AEF9-404E-A94E-472F4CBCE5BB";
shapes = (
{
closed = 1;
nodes = (
(299,-184,ls),
(200,-184,o),
(62,-143,o),
(62,19,c),
(208,19,l),
(208,-22,o),
(239,-72,o),
(299,-64,c),
(356,-70,o),
(396,-11,o),
(391,30,c),
(391,63,o),
(371,87,o),
(340,100,c),
(263,128,o),
(119,64,o),
(71,239,cs),
(66,258,o),
(64,277,o),
(64,296,cs),
(64,354,o),
(82,397,o),
(112,442,c),
(80,481,o),
(64,526,o),
(64,576,cs),
(64,584,o),
(64,591,o),
(65,599,c),
(71,714,o),
(164,798,o),
(301,798,cs),
(385,798,o),
(482,772,o),
(522,678,cs),
(534,651,o),
(538,624,o),
(538,595,c),
(392,595,l),
(392,636,o),
(361,686,o),
(301,678,c),
(244,684,o),
(204,625,o),
(209,584,c),
(209,551,o),
(229,527,o),
(260,514,c),
(334,486,o),
(484,549,o),
(529,376,cs),
(534,357,o),
(536,337,o),
(536,318,cs),
(536,260,o),
(518,217,o),
(488,172,c),
(520,135,o),
(536,87,o),
(536,38,cs),
(536,30,o),
(536,23,o),
(535,15,c),
(529,-99,o),
(441,-177,o),
(310,-184,c)
);
},
{
closed = 1;
nodes = (
(376,242,o),
(392,275,o),
(392,308,cs),
(392,366,o),
(328,387,o),
(298,387,cs),
(284,387,o),
(268,387,o),
(253,389,c),
(224,372,o),
(208,339,o),
(208,306,cs),
(208,243,o),
(277,226,o),
(319,226,cs),
(328,226,o),
(338,225,o),
(347,225,c)
);
}
);
width = 600;
},
{
layerId = "3EF66B8B-A4EF-422E-A8E2-9DC69E93467B";
shapes = (
{
closed = 1;
nodes = (
(299,-184,ls),
(203,-184,o),
(70,-147,o),
(70,6,c),
(160,6,l),
(160,-53,o),
(203,-113,o),
(299,-109,c),
(366,-112,o),
(441,-63,o),
(439,22,c),
(439,71,o),
(403,112,o),
(342,120,c),
(256,135,o),
(124,97,o),
(79,243,cs),
(74,261,o),
(72,279,o),
(72,297,cs),
(72,359,o),
(99,414,o),
(140,452,c),
(100,482,o),
(75,528,o),
(72,577,c),
(72,585,o),
(72,592,o),
(72,600,c),
(75,714,o),
(166,798,o),
(301,798,cs),
(382,798,o),
(479,776,o),
(518,678,cs),
(527,655,o),
(530,632,o),
(530,608,c),
(440,608,l),
(440,676,o),
(381,727,o),
(301,723,c),
(228,726,o),
(159,672,o),
(161,592,c),
(161,541,o),
(198,501,o),
(257,494,c),
(335,478,o),
(476,518,o),
(521,371,cs),
(526,353,o),
(528,335,o),
(528,317,cs),
(528,254,o),
(501,201,o),
(460,162,c),
(497,132,o),
(524,90,o),
(528,36,c),
(528,29,o),
(528,22,o),
(528,14,cs),
(525,-103,o),
(431,-180,o),
(305,-184,c)
);
},
{
closed = 1;
nodes = (
(411,214,o),
(439,262,o),
(439,311,cs),
(439,383,o),
(370,415,o),
(298,415,cs),
(276,415,o),
(252,415,o),
(231,419,c),
(188,398,o),
(161,353,o),
(161,303,cs),
(161,215,o),
(251,198,o),
(332,198,cs),
(344,198,o),
(357,196,o),
(369,195,c)
);
}
);
width = 600;
},
{
layerId = "0A6BB479-68DF-438A-AB6B-934827A2B9BB";
shapes = (
{
closed = 1;
nodes = (
(207,-184,o),
(79,-152,o),
(80,-11,c),
(101,-11,l),
(101,-91,o),
(159,-165,o),
(299,-165,cs),
(378,-165,o),
(498,-127,o),
(498,12,cs),
(498,80,o),
(443,144,o),
(345,144,cs),
(247,144,o),
(130,138,o),
(89,248,cs),
(83,264,o),
(81,281,o),
(81,298,cs),
(81,365,o),
(120,435,o),
(176,465,c),
(124,483,o),
(89,531,o),
(82,579,cs),
(81,586,o),
(81,593,o),
(81,601,cs),
(81,714,o),
(169,798,o),
(301,798,cs),
(378,798,o),
(475,780,o),
(512,677,cs),
(518,660,o),
(519,642,o),
(520,625,c),
(499,625,l),
(500,726,o),
(406,779,o),
(301,779,cs),
(208,779,o),
(102,731,o),
(102,602,cs),
(102,529,o),
(159,469,o),
(254,469,cs),
(337,469,o),
(467,479,o),
(510,365,cs),
(516,349,o),
(519,332,o),
(519,316,cs),
(519,247,o),
(480,181,o),
(424,149,c),
(469,128,o),
(508,93,o),
(517,34,cs),
(518,27,o),
(519,20,o),
(519,13,cs),
(519,-109,o),
(418,-184,o),
(299,-184,c)
);
},
{
closed = 1;
nodes = (
(454,180,o),
(498,245,o),
(498,315,cs),
(498,404,o),
(422,450,o),
(297,450,cs),
(266,450,o),
(233,449,o),
(204,457,c),
(142,430,o),
(102,370,o),
(102,299,cs),
(102,179,o),
(219,163,o),
(349,163,cs),
(365,163,o),
(380,160,o),
(396,157,c)
);
}
);
width = 600;
}
);
unicode = 167;
},
{
glyphname = dieresis;
layers = (
{
anchors = (
{
name = mark0;
position = "{175, 735}";
},
{
name = mark0.1;
position = "{286, 530}";
},
{
name = mark0.2;
position = "{175, 0}";
},
{
name = mark0.3;
position = "{175, 276}";
},
{
name = mark0.4;
position = "{175, 265}";
}
);
layerId = "AC532A80-AEF9-404E-A94E-472F4CBCE5BB";
shapes = (
{
closed = 1;
nodes = (
(290,600,ls),
(248,600,o),
(210,630,o),
(210,680,cs),
(210,722,o),
(239,760,o),
(290,760,cs),
(330,760,o),
(370,734,o),
(370,680,cs),
(370,637,o),
(344,606,o),
(299,600,c)
);
},
{
closed = 1;
nodes = (
(60,600,ls),
(18,600,o),
(-20,630,o),
(-20,680,cs),
(-20,722,o),
(9,760,o),
(60,760,cs),
(100,760,o),
(140,734,o),
(140,680,cs),
(140,637,o),
(114,606,o),
(69,600,c)
);
}
);
width = 350;
},
{
anchors = (
{
name = mark0;
position = "{175, 735}";
},
{
name = mark0.1;
position = "{286, 530}";
},
{
name = mark0.2;
position = "{175, 0}";
},
{
name = mark0.3;
position = "{175, 276}";
},
{
name = mark0.4;
position = "{175, 265}";
}
);
layerId = "3EF66B8B-A4EF-422E-A8E2-9DC69E93467B";
shapes = (
{
closed = 1;
nodes = (
(290,624,ls),
(260,624,o),
(234,643,o),
(234,680,cs),
(234,709,o),
(254,736,o),
(290,736,cs),
(319,736,o),
(346,716,o),
(346,680,cs),
(346,649,o),
(328,627,o),
(295,624,c)
);
},
{
closed = 1;
nodes = (
(60,624,ls),
(30,624,o),
(4,643,o),
(4,680,cs),
(4,709,o),
(24,736,o),
(60,736,cs),
(89,736,o),
(116,716,o),
(116,680,cs),
(116,649,o),
(98,627,o),
(65,624,c)
);
}
);
width = 350;
},
{
anchors = (
{
name = mark0;
position = "{175, 735}";
},
{
name = mark0.1;
position = "{286, 530}";
},
{
name = mark0.2;
position = "{175, 0}";
},
{
name = mark0.3;
position = "{175, 276}";
},
{
name = mark0.4;
position = "{175, 265}";
}
);
layerId = "0A6BB479-68DF-438A-AB6B-934827A2B9BB";
shapes = (
{
closed = 1;
nodes = (
(276,654,o),
(263,659,o),
(263,680,cs),
(263,693,o),
(273,707,o),
(290,707,cs),
(306,707,o),
(316,694,o),
(316,680,cs),
(316,664,o),
(308,654,o),
(290,654,c)
);
},
{
closed = 1;
nodes = (
(46,654,o),
(33,659,o),
(33,680,cs),
(33,693,o),
(43,707,o),
(60,707,cs),
(76,707,o),
(86,694,o),
(86,680,cs),
(86,664,o),
(78,654,o),
(60,654,c)
);
}
);
width = 350;
}
);
unicode = 168;
},
{
glyphname = ordfeminine;
layers = (
{
anchors = (
{
name = mark0;
position = "{300, 684}";
},
{
name = mark0.1;
position = "{476, 684}";
},
{
name = mark0.2;
position = "{300, 169}";
},
{
name = mark0.3;
position = "{476, 313}";
},
{
name = mark0.4;
position = "{300, 505}";
},
{
name = mark0.5;
position = "{300, 498}";
}
);
layerId = "AC532A80-AEF9-404E-A94E-472F4CBCE5BB";
shapes = (
{
closed = 1;
nodes = (
(198,307,o),
(118,327,o),
(118,412,cs),
(118,504,o),
(214,545,o),
(318,545,cs),
(375,545,l),
(375,557,ls),
(375,595,o),
(331,606,o),
(299,606,cs),
(266,606,o),
(231,598,o),
(224,571,c),
(122,571,l),
(122,648,o),
(208,697,o),
(299,689,c),
(374,689,o),
(476,665,o),
(476,557,cs),
(476,313,l),
(375,313,l),
(375,373,l),
(354,339,o),
(319,307,o),
(253,307,cs)
);
},
{
closed = 1;
nodes = (
(297,390,ls),
(329,390,o),
(375,404,o),
(375,445,cs),
(375,461,l),
(318,461,ls),
(286,461,o),
(220,460,o),
(220,423,c),
(227,391,o),
(270,390,o),
(292,390,cs)
);
},
{
closed = 1;
nodes = (
(476,172,l),
(124,172,l),
(124,243,l),
(476,243,l)
);
}
);
width = 600;
},
{
anchors = (
{
name = mark0;
position = "{300, 684}";
},
{
name = mark0.1;
position = "{476, 684}";
},
{
name = mark0.2;
position = "{300, 169}";
},
{
name = mark0.3;
position = "{476, 313}";
},
{
name = mark0.4;
position = "{300, 505}";
},
{
name = mark0.5;
position = "{300, 498}";
}
);
layerId = "3EF66B8B-A4EF-422E-A8E2-9DC69E93467B";
shapes = (
{
closed = 1;
nodes = (
(210,307,o),
(122,323,o),
(122,410,cs),
(122,494,o),
(212,533,o),
(318,533,cs),
(407,533,l),
(407,557,ls),
(407,605,o),
(363,634,o),
(299,634,cs),
(258,634,o),
(196,625,o),
(192,580,c),
(126,580,l),
(126,653,o),
(213,693,o),
(299,689,c),
(370,689,o),
(472,665,o),
(472,557,cs),
(472,313,l),
(407,313,l),
(407,377,l),
(382,332,o),
(335,307,o),
(270,307,cs)
);
},
{
closed = 1;
nodes = (
(297,362,ls),
(341,362,o),
(407,376,o),
(407,445,cs),
(407,478,l),
(318,478,ls),
(272,478,o),
(188,472,o),
(188,417,c),
(192,370,o),
(250,362,o),
(294,362,cs)
);
},
{
closed = 1;
nodes = (
(472,184,l),
(128,184,l),
(128,231,l),
(472,231,l)
);
}
);
width = 600;
},
{
anchors = (
{
name = mark0;
position = "{300, 684}";
},
{
name = mark0.1;
position = "{476, 684}";
},
{
name = mark0.2;
position = "{300, 169}";
},
{
name = mark0.3;
position = "{476, 313}";
},
{
name = mark0.4;
position = "{300, 505}";
},
{
name = mark0.5;
position = "{300, 498}";
}
);
layerId = "0A6BB479-68DF-438A-AB6B-934827A2B9BB";
shapes = (
{
closed = 1;
nodes = (
(226,307,o),
(128,319,o),
(128,407,cs),
(128,481,o),
(209,517,o),
(317,517,cs),
(446,517,l),
(446,556,ls),
(446,617,o),
(402,670,o),
(299,670,cs),
(247,670,o),
(152,659,o),
(152,592,c),
(132,592,l),
(132,660,o),
(220,689,o),
(299,689,cs),
(365,689,o),
(467,665,o),
(467,556,cs),
(467,313,l),
(446,313,l),
(446,383,l),
(416,323,o),
(354,307,o),
(292,307,cs)
);
},
{
closed = 1;
nodes = (
(355,326,o),
(446,342,o),
(446,445,cs),
(446,499,l),
(317,499,ls),
(254,499,o),
(148,486,o),
(148,409,cs),
(148,343,o),
(224,326,o),
(296,326,c)
);
},
{
closed = 1;
nodes = (
(467,198,l),
(133,198,l),
(133,217,l),
(467,217,l)
);
}
);
width = 600;
}
);
unicode = 170;
},
{
glyphname = guillemotleft;
layers = (
{
layerId = "AC532A80-AEF9-404E-A94E-472F4CBCE5BB";
shapes = (
{
alignment = -1;
pos = (-118,0);
ref = guilsinglleft;
},
{
alignment = -1;
pos = (118,0);
ref = guilsinglleft;
}
);
width = 600;
},
{
layerId = "3EF66B8B-A4EF-422E-A8E2-9DC69E93467B";
shapes = (
{
closed = 1;
nodes = (
(262,48,l),
(38,307,l),
(262,566,l),
(315,531,l),
(130,307,l),
(315,83,l)
);
},
{
closed = 1;
nodes = (
(490,48,l),
(266,307,l),
(490,566,l),
(543,531,l),
(358,307,l),
(543,83,l)
);
}
);
width = 600;
},
{
layerId = "0A6BB479-68DF-438A-AB6B-934827A2B9BB";
shapes = (
{
alignment = -1;
pos = (-109,0);
ref = guilsinglleft;
},
{
alignment = -1;
pos = (109,0);
ref = guilsinglleft;
}
);
width = 600;
}
);
unicode = 171;
},
{
glyphname = logicalnot;
layers = (
{
layerId = "AC532A80-AEF9-404E-A94E-472F4CBCE5BB";
shapes = (
{
closed = 1;
nodes = (
(406,47,l),
(406,254,l),
(64,254,l),
(64,360,l),
(536,360,l),
(536,47,l)
);
}
);
width = 600;
},
{
layerId = "3EF66B8B-A4EF-422E-A8E2-9DC69E93467B";
shapes = (
{
closed = 1;
nodes = (
(446,56,l),
(446,274,l),
(72,274,l),
(72,340,l),
(528,340,l),
(528,56,l)
);
}
);
width = 600;
},
{
layerId = "0A6BB479-68DF-438A-AB6B-934827A2B9BB";
shapes = (
{
closed = 1;
nodes = (
(497,67,l),
(497,298,l),
(82,298,l),
(82,316,l),
(518,316,l),
(518,67,l)
);
}
);
width = 600;
}
);
unicode = 172;
},
